Exo-Thin.ufo
<glyph name=".notdef" format="1">
  <advance width="798"/>
  <unicode hex="0000"/>
  <unicode hex="0000"/>
  <outline>
    <contour>
      <point x="120" y="0" type="line"/>
      <point x="120" y="531" type="line"/>
      <point x="678" y="531" type="line"/>
      <point x="678" y="0" type="line"/>
    </contour>
    <contour>
      <point x="655" y="518" type="line"/>
      <point x="144" y="518" type="line"/>
      <point x="401" y="276" type="line"/>
    </contour>
    <contour>
      <point x="134" y="22" type="line"/>
      <point x="390" y="266" type="line"/>
      <point x="134" y="507" type="line"/>
    </contour>
    <contour>
      <point x="147" y="13" type="line"/>
      <point x="654" y="13" type="line"/>
      <point x="401" y="256" type="line"/>
    </contour>
    <contour>
      <point x="664" y="506" type="line"/>
      <point x="412" y="266" type="line"/>
      <point x="664" y="25" type="line"/>
    </contour>
  </outline>
</glyph>
<glyph name="exclam" format="1">
  <advance width="260"/>
  <unicode hex="0021"/>
  <outline>
    <contour>
      <point x="117" y="731" type="line"/>
      <point x="139" y="731" type="line"/>
      <point x="134" y="196" type="line"/>
      <point x="122" y="196" type="line"/>
    </contour>
    <contour>
      <point x="111" y="12" type="curve" smooth="yes"/>
      <point x="111" y="74" type="line" smooth="yes"/>
      <point x="111" y="82"/>
      <point x="115" y="86"/>
      <point x="123" y="86" type="curve" smooth="yes"/>
      <point x="134" y="86" type="line" smooth="yes"/>
      <point x="142" y="86"/>
      <point x="146" y="81"/>
      <point x="146" y="74" type="curve" smooth="yes"/>
      <point x="146" y="12" type="line" smooth="yes"/>
      <point x="146" y="4"/>
      <point x="141" y="0"/>
      <point x="134" y="0" type="curve" smooth="yes"/>
      <point x="123" y="0" type="line" smooth="yes"/>
      <point x="116" y="0"/>
      <point x="111" y="5"/>
    </contour>
  </outline>
</glyph>
<glyph name="quotedbl" format="1">
  <advance width="262"/>
  <unicode hex="0022"/>
  <outline>
    <contour>
      <point x="169" y="665" type="line"/>
      <point x="169" y="732" type="line"/>
      <point x="194" y="732" type="line"/>
      <point x="194" y="665" type="line"/>
      <point x="188" y="531" type="line"/>
      <point x="176" y="531" type="line"/>
    </contour>
    <contour>
      <point x="69" y="665" type="line"/>
      <point x="69" y="732" type="line"/>
      <point x="94" y="732" type="line"/>
      <point x="94" y="665" type="line"/>
      <point x="88" y="531" type="line"/>
      <point x="76" y="531" type="line"/>
    </contour>
  </outline>
</glyph>
<glyph name="numbersign" format="1">
  <advance width="654"/>
  <unicode hex="0023"/>
  <outline>
    <contour>
      <point x="220" y="262" type="line"/>
      <point x="405" y="261" type="line"/>
      <point x="437" y="467" type="line"/>
      <point x="252" y="467" type="line"/>
    </contour>
    <contour>
      <point x="27" y="250" type="line"/>
      <point x="29" y="262" type="line"/>
      <point x="208" y="262" type="line"/>
      <point x="240" y="467" type="line"/>
      <point x="61" y="467" type="line"/>
      <point x="64" y="479" type="line"/>
      <point x="242" y="479" type="line"/>
      <point x="283" y="732" type="line"/>
      <point x="295" y="732" type="line"/>
      <point x="254" y="479" type="line"/>
      <point x="440" y="479" type="line"/>
      <point x="480" y="732" type="line"/>
      <point x="492" y="732" type="line"/>
      <point x="452" y="479" type="line"/>
      <point x="629" y="479" type="line"/>
      <point x="627" y="467" type="line"/>
      <point x="449" y="467" type="line"/>
      <point x="417" y="261" type="line"/>
      <point x="594" y="261" type="line"/>
      <point x="592" y="249" type="line"/>
      <point x="415" y="249" type="line"/>
      <point x="376" y="0" type="line"/>
      <point x="364" y="0" type="line"/>
      <point x="403" y="249" type="line"/>
      <point x="217" y="250" type="line"/>
      <point x="178" y="0" type="line"/>
      <point x="166" y="0" type="line"/>
      <point x="205" y="250" type="line"/>
    </contour>
  </outline>
</glyph>
<glyph name="dollar" format="1">
  <advance width="585"/>
  <unicode hex="0024"/>
  <outline>
    <contour>
      <point x="74" y="494" type="curve" smooth="yes"/>
      <point x="74" y="560" type="line" smooth="yes"/>
      <point x="74" y="711"/>
      <point x="161" y="742"/>
      <point x="283" y="738" type="curve"/>
      <point x="283" y="824" type="line"/>
      <point x="301" y="824" type="line"/>
      <point x="301" y="737" type="line"/>
      <point x="358" y="734"/>
      <point x="439" y="725"/>
      <point x="479" y="719" type="curve"/>
      <point x="479" y="706" type="line"/>
      <point x="415" y="710"/>
      <point x="267" y="714"/>
      <point x="267" y="714" type="curve" smooth="yes"/>
      <point x="162" y="718"/>
      <point x="98" y="686"/>
      <point x="98" y="560" type="curve" smooth="yes"/>
      <point x="98" y="494" type="line" smooth="yes"/>
      <point x="98" y="394"/>
      <point x="155" y="371"/>
      <point x="245" y="371" type="curve" smooth="yes"/>
      <point x="349" y="371" type="line" smooth="yes"/>
      <point x="482" y="371"/>
      <point x="511" y="306"/>
      <point x="511" y="224" type="curve" smooth="yes"/>
      <point x="511" y="156" type="line" smooth="yes"/>
      <point x="511" y="8"/>
      <point x="409" y="-10"/>
      <point x="301" y="-8" type="curve"/>
      <point x="301" y="-88" type="line"/>
      <point x="283" y="-88" type="line"/>
      <point x="283" y="-7" type="line"/>
      <point x="223" y="-5"/>
      <point x="130" y="0"/>
      <point x="92" y="7" type="curve"/>
      <point x="92" y="22" type="line"/>
      <point x="136" y="18"/>
      <point x="224" y="16"/>
      <point x="317" y="16" type="curve" smooth="yes"/>
      <point x="414" y="16"/>
      <point x="487" y="39"/>
      <point x="487" y="156" type="curve" smooth="yes"/>
      <point x="487" y="224" type="line" smooth="yes"/>
      <point x="487" y="309"/>
      <point x="449" y="347"/>
      <point x="349" y="347" type="curve" smooth="yes"/>
      <point x="247" y="347" type="line" smooth="yes"/>
      <point x="92" y="347"/>
      <point x="74" y="423"/>
    </contour>
  </outline>
</glyph>
<glyph name="percent" format="1">
  <advance width="954"/>
  <unicode hex="0025"/>
  <outline>
    <contour>
      <point x="556" y="128" type="line" smooth="yes"/>
      <point x="556" y="42"/>
      <point x="590" y="18"/>
      <point x="668" y="18" type="curve" smooth="yes"/>
      <point x="769" y="18" type="line" smooth="yes"/>
      <point x="846" y="18"/>
      <point x="883" y="39"/>
      <point x="883" y="128" type="curve" smooth="yes"/>
      <point x="883" y="261" type="line" smooth="yes"/>
      <point x="883" y="339"/>
      <point x="857" y="371"/>
      <point x="771" y="371" type="curve" smooth="yes"/>
      <point x="670" y="371" type="line" smooth="yes"/>
      <point x="591" y="371"/>
      <point x="556" y="350"/>
      <point x="556" y="261" type="curve" smooth="yes"/>
    </contour>
    <contour>
      <point x="541" y="128" type="curve" smooth="yes"/>
      <point x="541" y="261" type="line" smooth="yes"/>
      <point x="541" y="346"/>
      <point x="569" y="386"/>
      <point x="670" y="386" type="curve" smooth="yes"/>
      <point x="771" y="386" type="line" smooth="yes"/>
      <point x="869" y="386"/>
      <point x="898" y="346"/>
      <point x="898" y="261" type="curve" smooth="yes"/>
      <point x="898" y="128" type="line" smooth="yes"/>
      <point x="898" y="43"/>
      <point x="870" y="3"/>
      <point x="769" y="3" type="curve" smooth="yes"/>
      <point x="668" y="3" type="line" smooth="yes"/>
      <point x="570" y="3"/>
      <point x="541" y="43"/>
    </contour>
    <contour>
      <point x="242" y="0" type="line"/>
      <point x="680" y="732" type="line"/>
      <point x="701" y="732" type="line"/>
      <point x="263" y="0" type="line"/>
    </contour>
    <contour>
      <point x="72" y="474" type="line" smooth="yes"/>
      <point x="72" y="388"/>
      <point x="106" y="364"/>
      <point x="184" y="364" type="curve" smooth="yes"/>
      <point x="285" y="364" type="line" smooth="yes"/>
      <point x="362" y="364"/>
      <point x="399" y="385"/>
      <point x="399" y="474" type="curve" smooth="yes"/>
      <point x="399" y="607" type="line" smooth="yes"/>
      <point x="399" y="685"/>
      <point x="373" y="717"/>
      <point x="287" y="717" type="curve" smooth="yes"/>
      <point x="186" y="717" type="line" smooth="yes"/>
      <point x="107" y="717"/>
      <point x="72" y="696"/>
      <point x="72" y="607" type="curve" smooth="yes"/>
    </contour>
    <contour>
      <point x="57" y="474" type="curve" smooth="yes"/>
      <point x="57" y="607" type="line" smooth="yes"/>
      <point x="57" y="692"/>
      <point x="85" y="732"/>
      <point x="186" y="732" type="curve" smooth="yes"/>
      <point x="287" y="732" type="line" smooth="yes"/>
      <point x="385" y="732"/>
      <point x="414" y="692"/>
      <point x="414" y="607" type="curve" smooth="yes"/>
      <point x="414" y="474" type="line" smooth="yes"/>
      <point x="414" y="389"/>
      <point x="386" y="349"/>
      <point x="285" y="349" type="curve" smooth="yes"/>
      <point x="184" y="349" type="line" smooth="yes"/>
      <point x="86" y="349"/>
      <point x="57" y="389"/>
    </contour>
  </outline>
</glyph>
<glyph name="ampersand" format="1">
  <advance width="653"/>
  <unicode hex="0026"/>
  <outline>
    <contour>
      <point x="110" y="97" type="curve" smooth="yes"/>
      <point x="172" y="14"/>
      <point x="289" y="-11"/>
      <point x="365" y="60" type="curve" smooth="yes"/>
      <point x="440" y="130" type="line"/>
      <point x="227" y="418" type="line"/>
      <point x="149" y="353" type="line" smooth="yes"/>
      <point x="59" y="278"/>
      <point x="44" y="185"/>
    </contour>
    <contour>
      <point x="91" y="82" type="curve" smooth="yes"/>
      <point x="13" y="182"/>
      <point x="40" y="292"/>
      <point x="127" y="366" type="curve" smooth="yes"/>
      <point x="213" y="439" type="line"/>
      <point x="150" y="524" type="line" smooth="yes"/>
      <point x="71" y="631"/>
      <point x="145" y="707"/>
      <point x="219" y="725" type="curve" smooth="yes"/>
      <point x="277" y="739"/>
      <point x="414" y="730"/>
      <point x="486" y="724" type="curve"/>
      <point x="486" y="710" type="line"/>
      <point x="283" y="710" type="line" smooth="yes"/>
      <point x="189" y="710"/>
      <point x="88" y="649"/>
      <point x="170" y="538" type="curve" smooth="yes"/>
      <point x="459" y="146" type="line"/>
      <point x="613" y="295" type="line"/>
      <point x="622" y="287" type="line"/>
      <point x="553" y="201" type="line"/>
      <point x="475" y="127" type="line"/>
      <point x="569" y="0" type="line"/>
      <point x="538" y="0" type="line"/>
      <point x="456" y="111" type="line"/>
      <point x="384" y="44" type="line" smooth="yes"/>
      <point x="304" y="-31"/>
      <point x="173" y="-23"/>
    </contour>
  </outline>
</glyph>
<glyph name="quotesingle" format="1">
  <advance width="113"/>
  <unicode hex="0027"/>
  <outline>
    <contour>
      <point x="44.4004" y="665" type="line"/>
      <point x="44.4004" y="732" type="line"/>
      <point x="69.4004" y="732" type="line"/>
      <point x="69.4004" y="665" type="line"/>
      <point x="63.4004" y="531" type="line"/>
      <point x="51.4004" y="531" type="line"/>
    </contour>
  </outline>
</glyph>
<glyph name="parenleft" format="1">
  <advance width="315"/>
  <unicode hex="0028"/>
  <outline>
    <contour>
      <point x="101" y="326" type="curve" smooth="yes"/>
      <point x="101" y="600"/>
      <point x="260" y="860"/>
      <point x="260" y="860" type="curve"/>
      <point x="287" y="860" type="line"/>
      <point x="287" y="860"/>
      <point x="125" y="598"/>
      <point x="125" y="326" type="curve" smooth="yes"/>
      <point x="125" y="26"/>
      <point x="288" y="-210"/>
      <point x="288" y="-210" type="curve"/>
      <point x="260" y="-210" type="line"/>
      <point x="260" y="-210"/>
      <point x="101" y="10"/>
    </contour>
  </outline>
</glyph>
<glyph name="parenright" format="1">
  <advance width="314"/>
  <unicode hex="0029"/>
  <outline>
    <contour>
      <point x="27" y="-210" type="line"/>
      <point x="27" y="-210"/>
      <point x="189" y="26"/>
      <point x="189" y="326" type="curve" smooth="yes"/>
      <point x="189" y="598"/>
      <point x="27" y="860"/>
      <point x="27" y="860" type="curve"/>
      <point x="54" y="860" type="line"/>
      <point x="54" y="860"/>
      <point x="213" y="600"/>
      <point x="213" y="326" type="curve" smooth="yes"/>
      <point x="213" y="10"/>
      <point x="54" y="-210"/>
      <point x="54" y="-210" type="curve"/>
    </contour>
  </outline>
</glyph>
<glyph name="asterisk" format="1">
  <advance width="469"/>
  <unicode hex="002A"/>
  <outline>
    <contour>
      <point x="283" y="552" type="line"/>
      <point x="395" y="635" type="line"/>
      <point x="403" y="623" type="line"/>
      <point x="301" y="533" type="line"/>
    </contour>
    <contour>
      <point x="239" y="495" type="line"/>
      <point x="251" y="518" type="line"/>
      <point x="369" y="435" type="line"/>
      <point x="361" y="424" type="line"/>
    </contour>
    <contour>
      <point x="206" y="723" type="line"/>
      <point x="219" y="727" type="line"/>
      <point x="286" y="604" type="line"/>
      <point x="262" y="593" type="line"/>
    </contour>
    <contour>
      <point x="148" y="409" type="line"/>
      <point x="181" y="543" type="line"/>
      <point x="207" y="539" type="line"/>
      <point x="161" y="405" type="line"/>
    </contour>
    <contour>
      <point x="68" y="592" type="line"/>
      <point x="68" y="606" type="line"/>
      <point x="210" y="610" type="line"/>
      <point x="210" y="586" type="line"/>
    </contour>
  </outline>
</glyph>
<glyph name="plus" format="1">
  <advance width="521"/>
  <unicode hex="002B"/>
  <outline>
    <contour>
      <point x="68" y="344" type="line"/>
      <point x="68" y="368" type="line"/>
      <point x="248" y="368" type="line"/>
      <point x="248" y="549" type="line"/>
      <point x="272" y="549" type="line"/>
      <point x="272" y="368" type="line"/>
      <point x="454" y="368" type="line"/>
      <point x="454" y="344" type="line"/>
      <point x="272" y="344" type="line"/>
      <point x="272" y="163" type="line"/>
      <point x="248" y="163" type="line"/>
      <point x="248" y="344" type="line"/>
    </contour>
  </outline>
</glyph>
<glyph name="comma" format="1">
  <advance width="171"/>
  <unicode hex="002C"/>
  <outline>
    <contour>
      <point x="69" y="13" type="curve" smooth="yes"/>
      <point x="69" y="75" type="line" smooth="yes"/>
      <point x="69" y="84"/>
      <point x="73" y="88"/>
      <point x="81" y="88" type="curve" smooth="yes"/>
      <point x="91" y="88" type="line" smooth="yes"/>
      <point x="100" y="88"/>
      <point x="103" y="83"/>
      <point x="103" y="75" type="curve" smooth="yes"/>
      <point x="103" y="-37" type="line" smooth="yes"/>
      <point x="103" y="-77"/>
      <point x="71" y="-68"/>
      <point x="71" y="-68" type="curve"/>
      <point x="71" y="-62" type="line"/>
      <point x="86" y="-62"/>
      <point x="87" y="-53"/>
      <point x="87" y="-47" type="curve" smooth="yes"/>
      <point x="87" y="0" type="line"/>
      <point x="81" y="0" type="line" smooth="yes"/>
      <point x="74" y="0"/>
      <point x="69" y="5"/>
    </contour>
  </outline>
</glyph>
<glyph name="period" format="1">
  <advance width="172"/>
  <unicode hex="002E"/>
  <outline>
    <contour>
      <point x="69" y="12" type="curve" smooth="yes"/>
      <point x="69" y="74" type="line" smooth="yes"/>
      <point x="69" y="82"/>
      <point x="73" y="86"/>
      <point x="81" y="86" type="curve" smooth="yes"/>
      <point x="92" y="86" type="line" smooth="yes"/>
      <point x="100" y="86"/>
      <point x="104" y="81"/>
      <point x="104" y="74" type="curve" smooth="yes"/>
      <point x="104" y="12" type="line" smooth="yes"/>
      <point x="104" y="4"/>
      <point x="99" y="0"/>
      <point x="92" y="0" type="curve" smooth="yes"/>
      <point x="81" y="0" type="line" smooth="yes"/>
      <point x="74" y="0"/>
      <point x="69" y="5"/>
    </contour>
  </outline>
</glyph>
<glyph name="zero" format="1">
  <advance width="662"/>
  <unicode hex="0030"/>
  <outline>
    <contour>
      <point x="118" y="162" type="curve" smooth="yes"/>
      <point x="118" y="576" type="line" smooth="yes"/>
      <point x="118" y="664.0"/>
      <point x="177.0" y="716"/>
      <point x="266" y="716" type="curve" smooth="yes"/>
      <point x="400" y="716" type="line" smooth="yes"/>
      <point x="496" y="716"/>
      <point x="544" y="666.0"/>
      <point x="544" y="576" type="curve" smooth="yes"/>
      <point x="544" y="162" type="line" smooth="yes"/>
      <point x="544" y="77"/>
      <point x="504" y="22"/>
      <point x="400" y="22" type="curve" smooth="yes"/>
      <point x="266" y="22" type="line" smooth="yes"/>
      <point x="176.0" y="22"/>
      <point x="118" y="70.0"/>
    </contour>
    <contour>
      <point x="94" y="162" type="line" smooth="yes"/>
      <point x="94" y="42.0"/>
      <point x="175.0" y="0"/>
      <point x="266" y="0" type="curve" smooth="yes"/>
      <point x="400" y="0" type="line" smooth="yes"/>
      <point x="499" y="0"/>
      <point x="568" y="43"/>
      <point x="568" y="162" type="curve" smooth="yes"/>
      <point x="568" y="576" type="line" smooth="yes"/>
      <point x="568" y="667.0"/>
      <point x="522" y="738"/>
      <point x="400" y="738" type="curve" smooth="yes"/>
      <point x="266" y="738" type="line" smooth="yes"/>
      <point x="171.0" y="738"/>
      <point x="94" y="684.0"/>
      <point x="94" y="576" type="curve" smooth="yes"/>
    </contour>
  </outline>
</glyph>
<glyph name="one" format="1">
  <advance width="354"/>
  <unicode hex="0031"/>
  <outline>
    <contour>
      <point x="54" y="634" type="line"/>
      <point x="54" y="647" type="line"/>
      <point x="222" y="732" type="line"/>
      <point x="246" y="732" type="line"/>
      <point x="246" y="0" type="line"/>
      <point x="222" y="0" type="line"/>
      <point x="222" y="705" type="line"/>
    </contour>
  </outline>
</glyph>
<glyph name="two" format="1">
  <advance width="598"/>
  <unicode hex="0032"/>
  <outline>
    <contour>
      <point x="54" y="717" type="line"/>
      <point x="54" y="732" type="line"/>
      <point x="157" y="745"/>
      <point x="277" y="742"/>
      <point x="328" y="742" type="curve" smooth="yes"/>
      <point x="475" y="742"/>
      <point x="531" y="656"/>
      <point x="531" y="532" type="curve" smooth="yes"/>
      <point x="531" y="351"/>
      <point x="151" y="63"/>
      <point x="100" y="24" type="curve"/>
      <point x="531" y="24" type="line"/>
      <point x="531" y="0" type="line"/>
      <point x="61" y="0" type="line"/>
      <point x="61" y="23" type="line"/>
      <point x="159" y="102"/>
      <point x="506" y="367"/>
      <point x="506" y="533" type="curve" smooth="yes"/>
      <point x="506" y="672"/>
      <point x="435" y="717"/>
      <point x="326" y="717" type="curve" smooth="yes"/>
    </contour>
  </outline>
</glyph>
<glyph name="three" format="1">
  <advance width="600"/>
  <unicode hex="0033"/>
  <outline>
    <contour>
      <point x="40" y="710" type="line"/>
      <point x="40" y="724" type="line"/>
      <point x="100" y="735"/>
      <point x="211" y="736"/>
      <point x="328" y="734" type="curve" smooth="yes"/>
      <point x="447" y="732"/>
      <point x="500" y="661"/>
      <point x="500" y="569" type="curve" smooth="yes"/>
      <point x="500" y="500" type="line" smooth="yes"/>
      <point x="500" y="395"/>
      <point x="410" y="367"/>
      <point x="380" y="365" type="curve"/>
      <point x="412" y="360"/>
      <point x="500" y="324"/>
      <point x="500" y="220" type="curve" smooth="yes"/>
      <point x="500" y="161" type="line" smooth="yes"/>
      <point x="500" y="52"/>
      <point x="444" y="-7"/>
      <point x="322" y="-7" type="curve" smooth="yes"/>
      <point x="208" y="-7"/>
      <point x="85" y="-4"/>
      <point x="46" y="4" type="curve"/>
      <point x="48" y="18" type="line"/>
      <point x="320" y="18" type="line" smooth="yes"/>
      <point x="399" y="18"/>
      <point x="474" y="44"/>
      <point x="474" y="161" type="curve" smooth="yes"/>
      <point x="474" y="220" type="line" smooth="yes"/>
      <point x="474" y="320"/>
      <point x="379" y="350"/>
      <point x="322" y="352" type="curve" smooth="yes"/>
      <point x="108" y="359" type="line"/>
      <point x="108" y="373" type="line"/>
      <point x="322" y="379" type="line"/>
      <point x="400" y="380"/>
      <point x="476" y="415"/>
      <point x="476" y="500" type="curve" smooth="yes"/>
      <point x="476" y="569" type="line" smooth="yes"/>
      <point x="476" y="668"/>
      <point x="408" y="710"/>
      <point x="326" y="710" type="curve" smooth="yes"/>
    </contour>
  </outline>
</glyph>
<glyph name="four" format="1">
  <advance width="575"/>
  <unicode hex="0034"/>
  <outline>
    <contour>
      <point x="27" y="237" type="line"/>
      <point x="334" y="732" type="line"/>
      <point x="361" y="732" type="line"/>
      <point x="56" y="236" type="line"/>
      <point x="434" y="236" type="line"/>
      <point x="434" y="472" type="line"/>
      <point x="444" y="547" type="line"/>
      <point x="458" y="547" type="line"/>
      <point x="458" y="236" type="line"/>
      <point x="548" y="236" type="line"/>
      <point x="548" y="222" type="line"/>
      <point x="458" y="212" type="line"/>
      <point x="458" y="2" type="line"/>
      <point x="434" y="2" type="line"/>
      <point x="434" y="212" type="line"/>
      <point x="39" y="212" type="line"/>
    </contour>
  </outline>
</glyph>
<glyph name="five" format="1">
  <advance width="649"/>
  <unicode hex="0035"/>
  <outline>
    <contour>
      <point x="103" y="2" type="line"/>
      <point x="166" y="-4"/>
      <point x="259" y="-4"/>
      <point x="357" y="-4" type="curve" smooth="yes"/>
      <point x="474" y="-4"/>
      <point x="570" y="55"/>
      <point x="570" y="166" type="curve" smooth="yes"/>
      <point x="570" y="275" type="line" smooth="yes"/>
      <point x="570" y="377.84337349397595"/>
      <point x="502" y="451"/>
      <point x="387" y="451" type="curve" smooth="yes"/>
      <point x="294" y="451" type="line" smooth="yes"/>
      <point x="215.79310344827587" y="451"/>
      <point x="171.87133010621247" y="414.1783252655311"/>
      <point x="159" y="382" type="curve"/>
      <point x="176" y="708" type="line"/>
      <point x="549" y="708" type="line"/>
      <point x="549" y="732" type="line"/>
      <point x="154" y="732" type="line"/>
      <point x="133" y="322" type="line"/>
      <point x="155" y="322" type="line"/>
      <point x="168.5365785401416" y="395.60514581201994"/>
      <point x="215.54794520547944" y="429"/>
      <point x="291" y="429" type="curve" smooth="yes"/>
      <point x="386" y="429" type="line" smooth="yes"/>
      <point x="491" y="429"/>
      <point x="546" y="369.16438356164383"/>
      <point x="546" y="273" type="curve" smooth="yes"/>
      <point x="546" y="168" type="line" smooth="yes"/>
      <point x="546" y="68"/>
      <point x="457" y="18"/>
      <point x="355" y="18" type="curve" smooth="yes"/>
      <point x="103" y="18" type="line"/>
    </contour>
  </outline>
</glyph>
<glyph name="six" format="1">
  <advance width="636"/>
  <unicode hex="0036"/>
  <outline>
    <contour>
      <point x="112" y="373" type="curve"/>
      <point x="345" y="373" type="line" smooth="yes"/>
      <point x="459.2278481012658" y="373"/>
      <point x="533" y="354.0"/>
      <point x="533" y="249" type="curve" smooth="yes"/>
      <point x="533" y="146" type="line" smooth="yes"/>
      <point x="533" y="42"/>
      <point x="467" y="21"/>
      <point x="395" y="21" type="curve" smooth="yes"/>
      <point x="276" y="21" type="line" smooth="yes"/>
      <point x="175" y="21"/>
      <point x="112" y="92"/>
    </contour>
    <contour>
      <point x="88" y="374" type="curve" smooth="yes"/>
      <point x="88" y="71"/>
      <point x="167" y="-1"/>
      <point x="276" y="-1" type="curve" smooth="yes"/>
      <point x="395" y="-1" type="line" smooth="yes"/>
      <point x="479" y="-1"/>
      <point x="556" y="36"/>
      <point x="556" y="148" type="curve" smooth="yes"/>
      <point x="556" y="249" type="line" smooth="yes"/>
      <point x="556" y="370.0"/>
      <point x="466.3076923076923" y="395.0"/>
      <point x="344" y="395" type="curve" smooth="yes"/>
      <point x="297.0687022900764" y="395.0"/>
      <point x="182.87555240411615" y="393.42972202525726"/>
      <point x="112" y="389" type="curve"/>
      <point x="112" y="611"/>
      <point x="198.19780219780222" y="716"/>
      <point x="324" y="716" type="curve" smooth="yes"/>
      <point x="512" y="716" type="line"/>
      <point x="512" y="732" type="line"/>
      <point x="459.7457915490727" y="733.713252736096"/>
      <point x="382.67464114832535" y="738.0"/>
      <point x="333" y="738" type="curve" smooth="yes"/>
      <point x="179.1627906976744" y="738.0"/>
      <point x="88" y="618"/>
    </contour>
  </outline>
</glyph>
<glyph name="seven" format="1">
  <advance width="535"/>
  <unicode hex="0037"/>
  <outline>
    <contour>
      <point x="40" y="708" type="line"/>
      <point x="40" y="732" type="line"/>
      <point x="478" y="732" type="line"/>
      <point x="494" y="709" type="line"/>
      <point x="256" y="0" type="line"/>
      <point x="228" y="0" type="line"/>
      <point x="466" y="708" type="line"/>
    </contour>
  </outline>
</glyph>
<glyph name="eight" format="1">
  <advance width="655"/>
  <unicode hex="0038"/>
  <outline>
    <contour>
      <point x="125" y="494" type="line" smooth="yes"/>
      <point x="125" y="393"/>
      <point x="200" y="385"/>
      <point x="266" y="385" type="curve" smooth="yes"/>
      <point x="395" y="385" type="line" smooth="yes"/>
      <point x="492" y="385"/>
      <point x="531" y="448"/>
      <point x="531" y="494" type="curve" smooth="yes"/>
      <point x="531" y="562" type="line" smooth="yes"/>
      <point x="531" y="672"/>
      <point x="486" y="713"/>
      <point x="393" y="713" type="curve" smooth="yes"/>
      <point x="277" y="713" type="line" smooth="yes"/>
      <point x="168" y="713"/>
      <point x="125" y="666"/>
      <point x="125" y="562" type="curve" smooth="yes"/>
    </contour>
    <contour>
      <point x="125" y="151" type="line" smooth="yes"/>
      <point x="125" y="58"/>
      <point x="192" y="24"/>
      <point x="277" y="24" type="curve" smooth="yes"/>
      <point x="392" y="24" type="line" smooth="yes"/>
      <point x="453" y="24"/>
      <point x="531" y="55"/>
      <point x="531" y="151" type="curve" smooth="yes"/>
      <point x="531" y="256" type="line" smooth="yes"/>
      <point x="531" y="362"/>
      <point x="445" y="362"/>
      <point x="395" y="362" type="curve" smooth="yes"/>
      <point x="266" y="362" type="line" smooth="yes"/>
      <point x="220" y="362"/>
      <point x="125" y="338"/>
      <point x="125" y="256" type="curve" smooth="yes"/>
    </contour>
    <contour>
      <point x="101" y="154" type="curve" smooth="yes"/>
      <point x="101" y="253" type="line" smooth="yes"/>
      <point x="101" y="329"/>
      <point x="162" y="366"/>
      <point x="201" y="366" type="curve"/>
      <point x="115" y="381"/>
      <point x="101" y="446"/>
      <point x="101" y="499" type="curve" smooth="yes"/>
      <point x="101" y="564" type="line" smooth="yes"/>
      <point x="101" y="698"/>
      <point x="174" y="737"/>
      <point x="277" y="737" type="curve" smooth="yes"/>
      <point x="393" y="737" type="line" smooth="yes"/>
      <point x="500" y="737"/>
      <point x="555" y="687"/>
      <point x="555" y="564" type="curve" smooth="yes"/>
      <point x="555" y="499" type="line" smooth="yes"/>
      <point x="555" y="445"/>
      <point x="519" y="384"/>
      <point x="463" y="380" type="curve"/>
      <point x="533" y="360"/>
      <point x="555" y="315"/>
      <point x="555" y="252" type="curve" smooth="yes"/>
      <point x="555" y="154" type="line" smooth="yes"/>
      <point x="555" y="24"/>
      <point x="456" y="0"/>
      <point x="392" y="0" type="curve" smooth="yes"/>
      <point x="277" y="0" type="line" smooth="yes"/>
      <point x="105" y="0"/>
      <point x="101" y="113"/>
    </contour>
  </outline>
</glyph>
<glyph name="nine" format="1">
  <advance width="636"/>
  <unicode hex="0039"/>
  <outline>
    <contour>
      <point x="104" y="473" type="line" smooth="yes"/>
      <point x="104" y="368"/>
      <point x="166" y="352"/>
      <point x="242" y="352" type="curve" smooth="yes"/>
      <point x="525" y="352" type="line"/>
      <point x="525" y="508"/>
      <point x="505" y="709"/>
      <point x="361" y="709" type="curve" smooth="yes"/>
      <point x="242" y="709" type="line" smooth="yes"/>
      <point x="180" y="709"/>
      <point x="104" y="690"/>
      <point x="104" y="586" type="curve" smooth="yes"/>
    </contour>
    <contour>
      <point x="81" y="473" type="curve" smooth="yes"/>
      <point x="81" y="584" type="line" smooth="yes"/>
      <point x="81" y="696"/>
      <point x="148" y="733"/>
      <point x="242" y="733" type="curve" smooth="yes"/>
      <point x="361" y="733" type="line" smooth="yes"/>
      <point x="470" y="733"/>
      <point x="549" y="651"/>
      <point x="549" y="348" type="curve" smooth="yes"/>
      <point x="549" y="90"/>
      <point x="469" y="-6"/>
      <point x="377" y="-6" type="curve" smooth="yes"/>
      <point x="276" y="-6"/>
      <point x="166" y="-4"/>
      <point x="105" y="3" type="curve"/>
      <point x="105" y="18" type="line"/>
      <point x="374" y="18" type="line" smooth="yes"/>
      <point x="501" y="18"/>
      <point x="525" y="226"/>
      <point x="525" y="338" type="curve"/>
      <point x="440" y="328"/>
      <point x="316" y="327"/>
      <point x="242" y="327" type="curve" smooth="yes"/>
      <point x="108" y="327"/>
      <point x="81" y="391"/>
    </contour>
  </outline>
</glyph>
<glyph name="colon" format="1">
  <advance width="177"/>
  <unicode hex="003A"/>
  <outline>
    <contour>
      <point x="69" y="455" type="curve" smooth="yes"/>
      <point x="69" y="518" type="line" smooth="yes"/>
      <point x="69" y="526"/>
      <point x="73" y="530"/>
      <point x="81" y="530" type="curve" smooth="yes"/>
      <point x="92" y="530" type="line" smooth="yes"/>
      <point x="100" y="530"/>
      <point x="104" y="525"/>
      <point x="104" y="518" type="curve" smooth="yes"/>
      <point x="104" y="455" type="line" smooth="yes"/>
      <point x="104" y="447"/>
      <point x="99" y="444"/>
      <point x="92" y="444" type="curve" smooth="yes"/>
      <point x="81" y="444" type="line" smooth="yes"/>
      <point x="74" y="444"/>
      <point x="69" y="448"/>
    </contour>
    <contour>
      <point x="69" y="12" type="curve" smooth="yes"/>
      <point x="69" y="74" type="line" smooth="yes"/>
      <point x="69" y="82"/>
      <point x="73" y="86"/>
      <point x="81" y="86" type="curve" smooth="yes"/>
      <point x="92" y="86" type="line" smooth="yes"/>
      <point x="100" y="86"/>
      <point x="104" y="81"/>
      <point x="104" y="74" type="curve" smooth="yes"/>
      <point x="104" y="12" type="line" smooth="yes"/>
      <point x="104" y="4"/>
      <point x="99" y="0"/>
      <point x="92" y="0" type="curve" smooth="yes"/>
      <point x="81" y="0" type="line" smooth="yes"/>
      <point x="74" y="0"/>
      <point x="69" y="5"/>
    </contour>
  </outline>
</glyph>
<glyph name="semicolon" format="1">
  <advance width="172"/>
  <unicode hex="003B"/>
  <outline>
    <contour>
      <point x="69" y="455" type="curve" smooth="yes"/>
      <point x="69" y="518" type="line" smooth="yes"/>
      <point x="69" y="526"/>
      <point x="73" y="530"/>
      <point x="81" y="530" type="curve" smooth="yes"/>
      <point x="92" y="530" type="line" smooth="yes"/>
      <point x="100" y="530"/>
      <point x="104" y="525"/>
      <point x="104" y="518" type="curve" smooth="yes"/>
      <point x="104" y="455" type="line" smooth="yes"/>
      <point x="104" y="447"/>
      <point x="99" y="444"/>
      <point x="92" y="444" type="curve" smooth="yes"/>
      <point x="81" y="444" type="line" smooth="yes"/>
      <point x="74" y="444"/>
      <point x="69" y="448"/>
    </contour>
    <contour>
      <point x="69" y="13" type="curve" smooth="yes"/>
      <point x="69" y="75" type="line" smooth="yes"/>
      <point x="69" y="84"/>
      <point x="73" y="88"/>
      <point x="81" y="88" type="curve" smooth="yes"/>
      <point x="91" y="88" type="line" smooth="yes"/>
      <point x="100" y="88"/>
      <point x="103" y="83"/>
      <point x="103" y="75" type="curve" smooth="yes"/>
      <point x="103" y="-37" type="line" smooth="yes"/>
      <point x="103" y="-77"/>
      <point x="71" y="-68"/>
      <point x="71" y="-68" type="curve"/>
      <point x="71" y="-62" type="line"/>
      <point x="86" y="-62"/>
      <point x="87" y="-53"/>
      <point x="87" y="-47" type="curve" smooth="yes"/>
      <point x="87" y="0" type="line"/>
      <point x="81" y="0" type="line" smooth="yes"/>
      <point x="74" y="0"/>
      <point x="69" y="5"/>
    </contour>
  </outline>
</glyph>
<glyph name="less" format="1">
  <advance width="480"/>
  <unicode hex="003C"/>
  <outline>
    <contour>
      <point x="68" y="345" type="line"/>
      <point x="68" y="365" type="line"/>
      <point x="412" y="557" type="line"/>
      <point x="412" y="530" type="line"/>
      <point x="98" y="355" type="line"/>
      <point x="412" y="169" type="line"/>
      <point x="412" y="141" type="line"/>
    </contour>
  </outline>
</glyph>
<glyph name="equal" format="1">
  <advance width="481"/>
  <unicode hex="003D"/>
  <outline>
    <contour>
      <point x="27" y="471" type="line"/>
      <point x="27" y="495" type="line"/>
      <point x="454" y="495" type="line"/>
      <point x="454" y="471" type="line"/>
    </contour>
    <contour>
      <point x="27" y="212" type="line"/>
      <point x="27" y="236" type="line"/>
      <point x="454" y="236" type="line"/>
      <point x="454" y="212" type="line"/>
    </contour>
  </outline>
</glyph>
<glyph name="greater" format="1">
  <advance width="480"/>
  <unicode hex="003E"/>
  <outline>
    <contour>
      <point x="68" y="141" type="line"/>
      <point x="68" y="169" type="line"/>
      <point x="382" y="355" type="line"/>
      <point x="68" y="530" type="line"/>
      <point x="68" y="557" type="line"/>
      <point x="412" y="365" type="line"/>
      <point x="412" y="345" type="line"/>
    </contour>
  </outline>
</glyph>
<glyph name="question" format="1">
  <advance width="532"/>
  <unicode hex="003F"/>
  <outline>
    <contour>
      <point x="180" y="12" type="curve" smooth="yes"/>
      <point x="180" y="74" type="line" smooth="yes"/>
      <point x="180" y="82"/>
      <point x="184" y="86"/>
      <point x="192" y="86" type="curve" smooth="yes"/>
      <point x="204" y="86" type="line" smooth="yes"/>
      <point x="212" y="86"/>
      <point x="215" y="81"/>
      <point x="215" y="74" type="curve" smooth="yes"/>
      <point x="215" y="12" type="line" smooth="yes"/>
      <point x="215" y="4"/>
      <point x="211" y="0"/>
      <point x="204" y="0" type="curve" smooth="yes"/>
      <point x="192" y="0" type="line" smooth="yes"/>
      <point x="185" y="0"/>
      <point x="180" y="5"/>
    </contour>
    <contour>
      <point x="27" y="715" type="line"/>
      <point x="27" y="729" type="line"/>
      <point x="105" y="738"/>
      <point x="196" y="739"/>
      <point x="279" y="739" type="curve"/>
      <point x="436" y="742"/>
      <point x="478" y="672"/>
      <point x="478" y="554" type="curve" smooth="yes"/>
      <point x="478" y="453" type="line" smooth="yes"/>
      <point x="478" y="318"/>
      <point x="399" y="278"/>
      <point x="211" y="297" type="curve"/>
      <point x="211" y="195" type="line"/>
      <point x="185" y="195" type="line"/>
      <point x="185" y="317" type="line"/>
      <point x="291" y="317" type="line" smooth="yes"/>
      <point x="395" y="317"/>
      <point x="454" y="352"/>
      <point x="454" y="453" type="curve" smooth="yes"/>
      <point x="454" y="554" type="line" smooth="yes"/>
      <point x="454" y="674"/>
      <point x="403" y="715"/>
      <point x="278" y="715" type="curve" smooth="yes"/>
    </contour>
  </outline>
</glyph>
<glyph name="at" format="1">
  <advance width="866"/>
  <unicode hex="0040"/>
  <outline>
    <contour>
      <point x="257" y="114" type="curve"/>
      <point x="257" y="54"/>
      <point x="300" y="15"/>
      <point x="368" y="15" type="curve"/>
      <point x="427" y="14"/>
      <point x="535" y="54"/>
      <point x="585" y="78" type="curve"/>
      <point x="585" y="280" type="line"/>
      <point x="367" y="270" type="line" smooth="yes"/>
      <point x="327" y="268"/>
      <point x="257" y="257"/>
      <point x="257" y="159" type="curve"/>
      <point x="256" y="158"/>
      <point x="256" y="115"/>
    </contour>
    <contour>
      <point x="88" y="0" type="curve" smooth="yes"/>
      <point x="88" y="348" type="line" smooth="yes"/>
      <point x="88" y="384"/>
      <point x="90" y="512"/>
      <point x="256" y="512" type="curve" smooth="yes"/>
      <point x="456" y="512" type="line" smooth="yes"/>
      <point x="527" y="512"/>
      <point x="609" y="482"/>
      <point x="609" y="372" type="curve" smooth="yes"/>
      <point x="609" y="0" type="line"/>
      <point x="593" y="0" type="line"/>
      <point x="586" y="64" type="line"/>
      <point x="584" y="64"/>
      <point x="452" y="-9"/>
      <point x="361" y="-9" type="curve"/>
      <point x="287" y="-11"/>
      <point x="232" y="40"/>
      <point x="233" y="108" type="curve"/>
      <point x="233" y="161" type="line" smooth="yes"/>
      <point x="233" y="241"/>
      <point x="279" y="294"/>
      <point x="362" y="294" type="curve" smooth="yes"/>
      <point x="449" y="294"/>
      <point x="585" y="293"/>
      <point x="585" y="294" type="curve" smooth="yes"/>
      <point x="585" y="294"/>
      <point x="586" y="369"/>
      <point x="585" y="370" type="curve"/>
      <point x="585" y="452"/>
      <point x="533" y="488"/>
      <point x="453" y="488" type="curve" smooth="yes"/>
      <point x="256" y="488" type="line" smooth="yes"/>
      <point x="170" y="488"/>
      <point x="112" y="451"/>
      <point x="112" y="348" type="curve" smooth="yes"/>
      <point x="112" y="0" type="line" smooth="yes"/>
      <point x="112" y="-118"/>
      <point x="188" y="-153"/>
      <point x="256" y="-153" type="curve" smooth="yes"/>
      <point x="575" y="-153" type="line" smooth="yes"/>
      <point x="678" y="-153"/>
      <point x="728" y="-102"/>
      <point x="728" y="0" type="curve" smooth="yes"/>
      <point x="728" y="512" type="line" smooth="yes"/>
      <point x="728" y="606"/>
      <point x="679" y="676"/>
      <point x="575" y="676" type="curve" smooth="yes"/>
      <point x="186" y="676" type="line"/>
      <point x="186" y="690" type="line"/>
      <point x="234" y="700"/>
      <point x="348" y="701"/>
      <point x="474" y="700" type="curve"/>
      <point x="575" y="700" type="line"/>
      <point x="681" y="698"/>
      <point x="752" y="637"/>
      <point x="752" y="512" type="curve" smooth="yes"/>
      <point x="752" y="0" type="line" smooth="yes"/>
      <point x="752" y="-98"/>
      <point x="713" y="-178"/>
      <point x="575" y="-178" type="curve" smooth="yes"/>
      <point x="256" y="-178" type="line" smooth="yes"/>
      <point x="154" y="-178"/>
      <point x="88" y="-116"/>
    </contour>
  </outline>
</glyph>
<glyph name="A" format="1">
  <advance width="659"/>
  <unicode hex="0041"/>
  <outline>
    <contour>
      <point x="190" y="277" type="line"/>
      <point x="505" y="277" type="line"/>
      <point x="352" y="708" type="line"/>
    </contour>
    <contour>
      <point x="61" y="0" type="line"/>
      <point x="335" y="732" type="line"/>
      <point x="369" y="732" type="line"/>
      <point x="631" y="0" type="line"/>
      <point x="605" y="0" type="line"/>
      <point x="514" y="253" type="line"/>
      <point x="181" y="253" type="line"/>
      <point x="87" y="0" type="line"/>
    </contour>
  </outline>
</glyph>
<glyph name="B" format="1">
  <advance width="584.0"/>
  <unicode hex="0042"/>
  <outline>
    <contour>
      <point x="112" y="394" type="line"/>
      <point x="112" y="710" type="line"/>
      <point x="332" y="710" type="line" smooth="yes"/>
      <point x="429" y="710"/>
      <point x="495" y="668"/>
      <point x="491" y="548" type="curve" smooth="yes"/>
      <point x="488" y="450"/>
      <point x="425" y="394"/>
      <point x="341" y="394" type="curve" smooth="yes"/>
    </contour>
    <contour>
      <point x="112" y="22" type="line"/>
      <point x="112" y="372" type="line"/>
      <point x="341" y="372" type="line" smooth="yes"/>
      <point x="433" y="372"/>
      <point x="510" y="309"/>
      <point x="510" y="206" type="curve" smooth="yes"/>
      <point x="510" y="54"/>
      <point x="440" y="22"/>
      <point x="341" y="22" type="curve" smooth="yes"/>
    </contour>
    <contour>
      <point x="88" y="0" type="line"/>
      <point x="341" y="0" type="line" smooth="yes"/>
      <point x="455" y="0"/>
      <point x="534" y="42"/>
      <point x="534" y="204" type="curve" smooth="yes"/>
      <point x="534" y="328"/>
      <point x="446" y="374"/>
      <point x="402" y="384" type="curve"/>
      <point x="457" y="400"/>
      <point x="515" y="453"/>
      <point x="515" y="548" type="curve" smooth="yes"/>
      <point x="515" y="676"/>
      <point x="448" y="732"/>
      <point x="332" y="732" type="curve" smooth="yes"/>
      <point x="88" y="732" type="line"/>
    </contour>
  </outline>
</glyph>
<glyph name="C" format="1">
  <advance width="577.0"/>
  <unicode hex="0043"/>
  <outline>
    <contour>
      <point x="70" y="368" type="curve" smooth="yes"/>
      <point x="70" y="646"/>
      <point x="150" y="737"/>
      <point x="323" y="737" type="curve" smooth="yes"/>
      <point x="373" y="737"/>
      <point x="460" y="730"/>
      <point x="527" y="718" type="curve"/>
      <point x="527" y="702" type="line"/>
      <point x="526" y="702"/>
      <point x="411" y="715"/>
      <point x="323" y="715" type="curve" smooth="yes"/>
      <point x="169" y="715"/>
      <point x="94" y="645"/>
      <point x="94" y="368" type="curve" smooth="yes"/>
      <point x="94" y="138"/>
      <point x="165" y="16"/>
      <point x="324" y="16" type="curve" smooth="yes"/>
      <point x="424" y="16"/>
      <point x="527" y="30"/>
      <point x="527" y="30" type="curve"/>
      <point x="527" y="14" type="line"/>
      <point x="460" y="2"/>
      <point x="373" y="-6"/>
      <point x="323" y="-6" type="curve" smooth="yes"/>
      <point x="145" y="-6"/>
      <point x="70" y="133"/>
    </contour>
  </outline>
</glyph>
<glyph name="D" format="1">
  <advance width="671"/>
  <unicode hex="0044"/>
  <outline>
    <contour>
      <point x="132" y="24" type="line"/>
      <point x="361" y="24" type="line" smooth="yes"/>
      <point x="528" y="24"/>
      <point x="596" y="216"/>
      <point x="596" y="364" type="curve" smooth="yes"/>
      <point x="596" y="600"/>
      <point x="509" y="708"/>
      <point x="361" y="708" type="curve" smooth="yes"/>
      <point x="132" y="708" type="line"/>
    </contour>
    <contour>
      <point x="108" y="0" type="line"/>
      <point x="108" y="732" type="line"/>
      <point x="361" y="732" type="line" smooth="yes"/>
      <point x="587" y="732"/>
      <point x="620" y="513"/>
      <point x="620" y="363" type="curve" smooth="yes"/>
      <point x="620" y="197"/>
      <point x="546" y="0"/>
      <point x="361" y="0" type="curve" smooth="yes"/>
    </contour>
  </outline>
</glyph>
<glyph name="E" format="1">
  <advance width="582"/>
  <unicode hex="0045"/>
  <outline>
    <contour>
      <point x="108" y="123" type="curve" smooth="yes"/>
      <point x="108" y="602" type="line" smooth="yes"/>
      <point x="108" y="700"/>
      <point x="170.005" y="734.154"/>
      <point x="234" y="732" type="curve" smooth="yes"/>
      <point x="531" y="722" type="line"/>
      <point x="531" y="708" type="line"/>
      <point x="234" y="708" type="line" smooth="yes"/>
      <point x="172" y="708"/>
      <point x="132" y="677"/>
      <point x="132" y="602" type="curve" smooth="yes"/>
      <point x="132" y="375" type="line"/>
      <point x="491" y="370" type="line"/>
      <point x="491" y="356" type="line"/>
      <point x="132" y="351" type="line"/>
      <point x="132" y="123" type="line" smooth="yes"/>
      <point x="132" y="31"/>
      <point x="189" y="21"/>
      <point x="244" y="21" type="curve" smooth="yes"/>
      <point x="531" y="21" type="line"/>
      <point x="531" y="7" type="line"/>
      <point x="245" y="-3" type="line" smooth="yes"/>
      <point x="178.973" y="-5.30078"/>
      <point x="108" y="10"/>
    </contour>
  </outline>
</glyph>
<glyph name="F" format="1">
  <advance width="582"/>
  <unicode hex="0046"/>
  <outline>
    <contour>
      <point x="108" y="0" type="line"/>
      <point x="108" y="602" type="line" smooth="yes"/>
      <point x="108" y="700"/>
      <point x="170.005" y="734.154"/>
      <point x="234" y="732" type="curve" smooth="yes"/>
      <point x="531" y="722" type="line"/>
      <point x="531" y="708" type="line"/>
      <point x="234" y="708" type="line" smooth="yes"/>
      <point x="172" y="708"/>
      <point x="132" y="677"/>
      <point x="132" y="602" type="curve" smooth="yes"/>
      <point x="132" y="375" type="line"/>
      <point x="491" y="370" type="line"/>
      <point x="491" y="356" type="line"/>
      <point x="132" y="351" type="line"/>
      <point x="132" y="0" type="line"/>
    </contour>
  </outline>
</glyph>
<glyph name="G" format="1">
  <advance width="642.0"/>
  <unicode hex="0047"/>
  <outline>
    <contour>
      <point x="70" y="370" type="curve" smooth="yes"/>
      <point x="70" y="598"/>
      <point x="111" y="737"/>
      <point x="308" y="737" type="curve" smooth="yes"/>
      <point x="364" y="737"/>
      <point x="466" y="729"/>
      <point x="527" y="718" type="curve"/>
      <point x="527" y="702" type="line"/>
      <point x="490" y="706"/>
      <point x="391" y="715"/>
      <point x="308" y="715" type="curve" smooth="yes"/>
      <point x="125" y="715"/>
      <point x="94" y="584"/>
      <point x="94" y="368" type="curve" smooth="yes"/>
      <point x="94" y="119"/>
      <point x="138" y="17"/>
      <point x="313" y="17" type="curve" smooth="yes"/>
      <point x="384" y="17"/>
      <point x="497" y="55"/>
      <point x="530" y="69" type="curve"/>
      <point x="530" y="364" type="line"/>
      <point x="316" y="364" type="line"/>
      <point x="316" y="378" type="line"/>
      <point x="355" y="384"/>
      <point x="405" y="388"/>
      <point x="486" y="388" type="curve" smooth="yes"/>
      <point x="511" y="388"/>
      <point x="537" y="386"/>
      <point x="554" y="383" type="curve"/>
      <point x="554" y="0" type="line"/>
      <point x="538" y="0" type="line"/>
      <point x="532" y="53" type="line"/>
      <point x="504.10512772953524" y="38.05631842653673"/>
      <point x="394.9997950849062" y="-4.000002498964558"/>
      <point x="313" y="-5" type="curve" smooth="yes"/>
      <point x="119" y="-7"/>
      <point x="70" y="123"/>
    </contour>
  </outline>
</glyph>
<glyph name="H" format="1">
  <advance width="664"/>
  <unicode hex="0048"/>
  <outline>
    <contour>
      <point x="108" y="0" type="line"/>
      <point x="108" y="732" type="line"/>
      <point x="132" y="732" type="line"/>
      <point x="132" y="366" type="line"/>
      <point x="572" y="366" type="line"/>
      <point x="572" y="732" type="line"/>
      <point x="596" y="732" type="line"/>
      <point x="596" y="0" type="line"/>
      <point x="572" y="0" type="line"/>
      <point x="572" y="342" type="line"/>
      <point x="132" y="342" type="line"/>
      <point x="132" y="0" type="line"/>
    </contour>
  </outline>
</glyph>
<glyph name="I" format="1">
  <advance width="200"/>
  <unicode hex="0049"/>
  <outline>
    <contour>
      <point x="108" y="0" type="line"/>
      <point x="108" y="732" type="line"/>
      <point x="132" y="732" type="line"/>
      <point x="132" y="0" type="line"/>
    </contour>
  </outline>
</glyph>
<glyph name="J" format="1">
  <advance width="349"/>
  <unicode hex="004A"/>
  <outline>
    <contour>
      <point x="47" y="21" type="curve"/>
      <point x="51" y="35" type="line"/>
      <point x="139" y="8"/>
      <point x="257" y="-9"/>
      <point x="257" y="165" type="curve" smooth="yes"/>
      <point x="257" y="732" type="line"/>
      <point x="281" y="732" type="line"/>
      <point x="281" y="165" type="line" smooth="yes"/>
      <point x="281" y="118"/>
      <point x="274" y="51"/>
      <point x="229" y="18" type="curve" smooth="yes"/>
      <point x="186" y="-14"/>
      <point x="99" y="-13"/>
    </contour>
  </outline>
</glyph>
<glyph name="K" format="1">
  <advance width="593"/>
  <unicode hex="004B"/>
  <outline>
    <contour>
      <point x="108" y="0" type="line"/>
      <point x="108" y="732" type="line"/>
      <point x="132" y="732" type="line"/>
      <point x="132" y="379" type="line"/>
      <point x="284" y="379" type="line"/>
      <point x="525" y="732" type="line"/>
      <point x="554" y="732" type="line"/>
      <point x="306" y="367" type="line"/>
      <point x="554" y="0" type="line"/>
      <point x="524" y="0" type="line"/>
      <point x="283" y="355" type="line"/>
      <point x="133" y="355" type="line"/>
      <point x="133" y="0" type="line"/>
    </contour>
  </outline>
</glyph>
<glyph name="L" format="1">
  <advance width="559"/>
  <unicode hex="004C"/>
  <outline>
    <contour>
      <point x="108" y="126" type="curve" smooth="yes"/>
      <point x="108" y="732" type="line"/>
      <point x="132" y="732" type="line"/>
      <point x="132" y="126" type="line" smooth="yes"/>
      <point x="132" y="34"/>
      <point x="190" y="24"/>
      <point x="244" y="24" type="curve" smooth="yes"/>
      <point x="520" y="24" type="line"/>
      <point x="520" y="0" type="line"/>
      <point x="244" y="0" type="line" smooth="yes"/>
      <point x="178" y="0"/>
      <point x="108" y="13"/>
    </contour>
  </outline>
</glyph>
<glyph name="M" format="1">
  <advance width="797"/>
  <unicode hex="004D"/>
  <outline>
    <contour>
      <point x="74" y="0" type="line"/>
      <point x="155" y="732" type="line"/>
      <point x="191" y="732" type="line"/>
      <point x="404" y="41" type="line"/>
      <point x="613" y="732" type="line"/>
      <point x="651" y="732" type="line"/>
      <point x="735" y="0" type="line"/>
      <point x="711" y="0" type="line"/>
      <point x="630" y="703" type="line"/>
      <point x="418" y="0" type="line"/>
      <point x="391" y="0" type="line"/>
      <point x="175" y="703" type="line"/>
      <point x="98" y="0" type="line"/>
    </contour>
  </outline>
</glyph>
<glyph name="N" format="1">
  <advance width="665"/>
  <unicode hex="004E"/>
  <outline>
    <contour>
      <point x="108" y="0" type="line"/>
      <point x="132" y="0" type="line"/>
      <point x="132" y="690" type="line"/>
      <point x="575" y="0" type="line"/>
      <point x="597" y="0" type="line"/>
      <point x="597" y="732" type="line"/>
      <point x="573" y="732" type="line"/>
      <point x="573" y="42" type="line"/>
      <point x="130" y="732" type="line"/>
      <point x="108" y="732" type="line"/>
    </contour>
    <contour>
      <point x="337" y="810" type="move" name="top"/>
    </contour>
    <contour>
      <point x="337" y="-150" type="move" name="bottom"/>
    </contour>
  </outline>
</glyph>
<glyph name="O" format="1">
  <advance width="676.0"/>
  <unicode hex="004F"/>
  <outline>
    <contour>
      <point x="94" y="361" type="curve" smooth="yes"/>
      <point x="94" y="61"/>
      <point x="159" y="18"/>
      <point x="338" y="18" type="curve" smooth="yes"/>
      <point x="509" y="18"/>
      <point x="582" y="63"/>
      <point x="582" y="361" type="curve" smooth="yes"/>
      <point x="582" y="687"/>
      <point x="498" y="715"/>
      <point x="338" y="715" type="curve" smooth="yes"/>
      <point x="190" y="715"/>
      <point x="94" y="700"/>
    </contour>
    <contour>
      <point x="70" y="361" type="curve" smooth="yes"/>
      <point x="70" y="704"/>
      <point x="166" y="737"/>
      <point x="338" y="737" type="curve" smooth="yes"/>
      <point x="511" y="737"/>
      <point x="606" y="704"/>
      <point x="606" y="361" type="curve" smooth="yes"/>
      <point x="606" y="38"/>
      <point x="518" y="-4"/>
      <point x="338" y="-4" type="curve" smooth="yes"/>
      <point x="158" y="-4"/>
      <point x="70" y="28"/>
    </contour>
  </outline>
</glyph>
<glyph name="P" format="1">
  <advance width="584"/>
  <unicode hex="0050"/>
  <outline>
    <contour>
      <point x="105" y="347" type="line"/>
      <point x="357" y="347" type="line" smooth="yes"/>
      <point x="436" y="347"/>
      <point x="510" y="373"/>
      <point x="508" y="532" type="curve"/>
      <point x="508" y="686"/>
      <point x="433" y="707"/>
      <point x="357" y="707" type="curve" smooth="yes"/>
      <point x="105" y="707" type="line"/>
    </contour>
    <contour>
      <point x="81" y="0" type="line"/>
      <point x="81" y="732" type="line"/>
      <point x="357" y="732" type="line" smooth="yes"/>
      <point x="436" y="732"/>
      <point x="533" y="711"/>
      <point x="533" y="532" type="curve" smooth="yes"/>
      <point x="533" y="328"/>
      <point x="431" y="323"/>
      <point x="357" y="323" type="curve" smooth="yes"/>
      <point x="317" y="323"/>
      <point x="110" y="330"/>
      <point x="105" y="333" type="curve"/>
      <point x="105" y="0" type="line"/>
    </contour>
  </outline>
</glyph>
<glyph name="Q" format="1">
  <advance width="676"/>
  <unicode hex="0051"/>
  <outline>
    <contour>
      <point x="348" y="-33" type="line"/>
      <point x="368" y="-127"/>
      <point x="466" y="-147"/>
      <point x="538" y="-120" type="curve"/>
      <point x="538" y="-96" type="line"/>
      <point x="479.6009975499253" y="-115.79627201697448"/>
      <point x="393.9599582071851" y="-114.89055243297264"/>
      <point x="364" y="-33" type="curve"/>
    </contour>
    <component base="O"/>
  </outline>
</glyph>
<glyph name="R" format="1">
  <advance width="592.0"/>
  <unicode hex="0052"/>
  <outline>
    <contour>
      <point x="88" y="0" type="line"/>
      <point x="112" y="0" type="line"/>
      <point x="112" y="329" type="line"/>
      <point x="177.000483163" y="325.9999777"/>
      <point x="302.999933926" y="324.000001247"/>
      <point x="356" y="323" type="curve"/>
      <point x="518" y="0" type="line"/>
      <point x="542" y="0" type="line"/>
      <point x="381" y="323" type="line"/>
      <point x="444" y="326"/>
      <point x="540" y="354"/>
      <point x="540" y="532" type="curve" smooth="yes"/>
      <point x="540" y="711"/>
      <point x="443" y="732"/>
      <point x="364" y="732" type="curve" smooth="yes"/>
      <point x="88" y="732" type="line"/>
    </contour>
    <contour>
      <point x="112" y="345" type="line"/>
      <point x="112" y="710" type="line"/>
      <point x="364" y="710" type="line" smooth="yes"/>
      <point x="440" y="710"/>
      <point x="516" y="686"/>
      <point x="516" y="532" type="curve" smooth="yes"/>
      <point x="516" y="370"/>
      <point x="443" y="345"/>
      <point x="364" y="345" type="curve" smooth="yes"/>
    </contour>
    <contour>
      <point x="288" y="810" type="move" name="top"/>
    </contour>
    <contour>
      <point x="288" y="-150" type="move" name="bottom"/>
    </contour>
  </outline>
</glyph>
<glyph name="S" format="1">
  <advance width="586"/>
  <unicode hex="0053"/>
  <outline>
    <contour>
      <point x="88" y="494" type="curve" smooth="yes"/>
      <point x="88" y="560" type="line" smooth="yes"/>
      <point x="88" y="705"/>
      <point x="169" y="738"/>
      <point x="281" y="738" type="curve" smooth="yes"/>
      <point x="334" y="738"/>
      <point x="454" y="727"/>
      <point x="503" y="719" type="curve"/>
      <point x="503" y="706" type="line"/>
      <point x="439" y="710"/>
      <point x="281" y="714"/>
      <point x="281" y="714" type="curve" smooth="yes"/>
      <point x="175.992" y="717.784"/>
      <point x="112" y="681"/>
      <point x="112" y="560" type="curve" smooth="yes"/>
      <point x="112" y="494" type="line" smooth="yes"/>
      <point x="112" y="390"/>
      <point x="167" y="371"/>
      <point x="259" y="371" type="curve" smooth="yes"/>
      <point x="373" y="371" type="line" smooth="yes"/>
      <point x="506" y="371"/>
      <point x="535" y="306"/>
      <point x="535" y="224" type="curve" smooth="yes"/>
      <point x="535" y="156" type="line" smooth="yes"/>
      <point x="535" y="14"/>
      <point x="440" y="-8"/>
      <point x="341" y="-8" type="curve" smooth="yes"/>
      <point x="292" y="-8"/>
      <point x="152" y="-1"/>
      <point x="106" y="7" type="curve"/>
      <point x="106" y="22" type="line"/>
      <point x="150" y="18"/>
      <point x="248" y="16"/>
      <point x="341" y="16" type="curve" smooth="yes"/>
      <point x="431" y="16"/>
      <point x="511" y="39"/>
      <point x="511" y="156" type="curve" smooth="yes"/>
      <point x="511" y="224" type="line" smooth="yes"/>
      <point x="511" y="309"/>
      <point x="473" y="347"/>
      <point x="373" y="347" type="curve" smooth="yes"/>
      <point x="261" y="347" type="line" smooth="yes"/>
      <point x="106" y="347"/>
      <point x="88" y="416"/>
    </contour>
  </outline>
</glyph>
<glyph name="T" format="1">
  <advance width="604"/>
  <unicode hex="0054"/>
  <outline>
    <contour>
      <point x="47" y="708" type="line"/>
      <point x="47" y="732" type="line"/>
      <point x="565" y="732" type="line"/>
      <point x="565" y="708" type="line"/>
      <point x="315" y="708" type="line"/>
      <point x="315" y="0" type="line"/>
      <point x="291" y="0" type="line"/>
      <point x="291" y="708" type="line"/>
    </contour>
  </outline>
</glyph>
<glyph name="U" format="1">
  <advance width="683"/>
  <unicode hex="0055"/>
  <outline>
    <contour>
      <point x="108" y="320" type="curve" smooth="yes"/>
      <point x="108" y="732" type="line"/>
      <point x="132" y="732" type="line"/>
      <point x="132" y="320" type="line" smooth="yes"/>
      <point x="132" y="21"/>
      <point x="228" y="19"/>
      <point x="364" y="19" type="curve" smooth="yes"/>
      <point x="489" y="19"/>
      <point x="591" y="35"/>
      <point x="591" y="320" type="curve" smooth="yes"/>
      <point x="591" y="732" type="line"/>
      <point x="615" y="732" type="line"/>
      <point x="615" y="320" type="line" smooth="yes"/>
      <point x="615" y="-3"/>
      <point x="485" y="-5"/>
      <point x="364" y="-5" type="curve" smooth="yes"/>
      <point x="228" y="-5"/>
      <point x="108" y="-9"/>
    </contour>
  </outline>
</glyph>
<glyph name="V" format="1">
  <advance width="659"/>
  <unicode hex="0056"/>
  <outline>
    <contour>
      <point x="61" y="732" type="line"/>
      <point x="87" y="732" type="line"/>
      <point x="340" y="24" type="line"/>
      <point x="605" y="732" type="line"/>
      <point x="631" y="732" type="line"/>
      <point x="357" y="0" type="line"/>
      <point x="323" y="0" type="line"/>
    </contour>
  </outline>
</glyph>
<glyph name="W" format="1">
  <advance width="971"/>
  <unicode hex="0057"/>
  <outline>
    <contour>
      <point x="61" y="732" type="line"/>
      <point x="87" y="732" type="line"/>
      <point x="340" y="24" type="line"/>
      <point x="585" y="732" type="line"/>
      <point x="611" y="732" type="line"/>
      <point x="508" y="431" type="line"/>
      <point x="671" y="24" type="line"/>
      <point x="919" y="732" type="line"/>
      <point x="943" y="732" type="line"/>
      <point x="689" y="0" type="line"/>
      <point x="655" y="0" type="line"/>
      <point x="495" y="396" type="line"/>
      <point x="357" y="0" type="line"/>
      <point x="323" y="0" type="line"/>
    </contour>
  </outline>
</glyph>
<glyph name="X" format="1">
  <advance width="565"/>
  <unicode hex="0058"/>
  <outline>
    <contour>
      <point x="61" y="732" type="line"/>
      <point x="92" y="732" type="line"/>
      <point x="298" y="388" type="line"/>
      <point x="506" y="732" type="line"/>
      <point x="537" y="732" type="line"/>
      <point x="314" y="363" type="line"/>
      <point x="532" y="0" type="line"/>
      <point x="501" y="0" type="line"/>
      <point x="298" y="337" type="line"/>
      <point x="95" y="0" type="line"/>
      <point x="64" y="0" type="line"/>
      <point x="283" y="363" type="line"/>
    </contour>
  </outline>
</glyph>
<glyph name="Y" format="1">
  <advance width="619"/>
  <unicode hex="0059"/>
  <outline>
    <contour>
      <point x="61" y="732" type="line"/>
      <point x="88" y="732" type="line"/>
      <point x="316" y="291" type="line"/>
      <point x="564" y="732" type="line"/>
      <point x="591" y="732" type="line"/>
      <point x="328" y="260" type="line"/>
      <point x="328" y="0" type="line"/>
      <point x="304" y="0" type="line"/>
      <point x="304" y="260" type="line"/>
    </contour>
  </outline>
</glyph>
<glyph name="Z" format="1">
  <advance width="549"/>
  <unicode hex="005A"/>
  <outline>
    <contour>
      <point x="47" y="0" type="line"/>
      <point x="47" y="24" type="line"/>
      <point x="480" y="708" type="line"/>
      <point x="47" y="708" type="line"/>
      <point x="47" y="732" type="line"/>
      <point x="510" y="732" type="line"/>
      <point x="510" y="708" type="line"/>
      <point x="77" y="24" type="line"/>
      <point x="510" y="24" type="line"/>
      <point x="510" y="0" type="line"/>
    </contour>
  </outline>
</glyph>
<glyph name="bracketleft" format="1">
  <advance width="327"/>
  <unicode hex="005B"/>
  <outline>
    <contour>
      <point x="115" y="-38" type="curve" smooth="yes"/>
      <point x="115" y="670" type="line" smooth="yes"/>
      <point x="115" y="730"/>
      <point x="130" y="842"/>
      <point x="251" y="842" type="curve" smooth="yes"/>
      <point x="301" y="842" type="line"/>
      <point x="301" y="818" type="line"/>
      <point x="251" y="818" type="line" smooth="yes"/>
      <point x="185" y="818"/>
      <point x="139" y="775"/>
      <point x="139" y="670" type="curve" smooth="yes"/>
      <point x="139" y="-38" type="line" smooth="yes"/>
      <point x="139" y="-118"/>
      <point x="168" y="-186"/>
      <point x="251" y="-186" type="curve" smooth="yes"/>
      <point x="301" y="-186" type="line"/>
      <point x="301" y="-210" type="line"/>
      <point x="251" y="-210" type="line" smooth="yes"/>
      <point x="130" y="-210"/>
      <point x="115" y="-98"/>
    </contour>
  </outline>
</glyph>
<glyph name="backslash" format="1">
  <advance width="354"/>
  <unicode hex="005C"/>
  <outline>
    <contour>
      <point x="27" y="770" type="line"/>
      <point x="46" y="770" type="line"/>
      <point x="327" y="-72" type="line"/>
      <point x="308" y="-72" type="line"/>
    </contour>
  </outline>
</glyph>
<glyph name="bracketright" format="1">
  <advance width="327"/>
  <unicode hex="005D"/>
  <note>
    GF Latin Plus glyph
  </note>
  <outline>
    <contour>
      <point x="27" y="-186" type="line"/>
      <point x="27" y="-210" type="line"/>
      <point x="77" y="-210" type="line" smooth="yes"/>
      <point x="198" y="-210"/>
      <point x="213" y="-98"/>
      <point x="213" y="-38" type="curve" smooth="yes"/>
      <point x="213" y="670" type="line" smooth="yes"/>
      <point x="213" y="730"/>
      <point x="198" y="842"/>
      <point x="77" y="842" type="curve" smooth="yes"/>
      <point x="27" y="842" type="line"/>
      <point x="27" y="818" type="line"/>
      <point x="77" y="818" type="line" smooth="yes"/>
      <point x="143" y="818"/>
      <point x="189" y="775"/>
      <point x="189" y="670" type="curve" smooth="yes"/>
      <point x="189" y="-38" type="line" smooth="yes"/>
      <point x="189" y="-118"/>
      <point x="160" y="-186"/>
      <point x="77" y="-186" type="curve" smooth="yes"/>
    </contour>
  </outline>
</glyph>
<glyph name="underscore" format="1">
  <advance width="658"/>
  <unicode hex="005F"/>
  <outline>
    <contour>
      <point x="27" y="-1" type="line"/>
      <point x="27" y="23" type="line"/>
      <point x="631" y="23" type="line"/>
      <point x="631" y="-1" type="line"/>
    </contour>
  </outline>
</glyph>
<glyph name="grave" format="1">
  <advance width="201"/>
  <unicode hex="0060"/>
  <outline>
    <contour>
      <point x="27" y="664" type="line"/>
      <point x="53" y="664" type="line"/>
      <point x="174" y="531" type="line"/>
      <point x="160" y="531" type="line"/>
    </contour>
  </outline>
</glyph>
<glyph name="a" format="1">
  <advance width="540.0"/>
  <unicode hex="0061"/>
  <outline>
    <contour>
      <point x="78" y="131" type="curve" smooth="yes"/>
      <point x="78" y="157" type="line" smooth="yes"/>
      <point x="78" y="222"/>
      <point x="112" y="272"/>
      <point x="207" y="275" type="curve" smooth="yes"/>
      <point x="429" y="282" type="line"/>
      <point x="429" y="80" type="line"/>
      <point x="429" y="80"/>
      <point x="267" y="16"/>
      <point x="187" y="18" type="curve" smooth="yes"/>
      <point x="138.0" y="19.0"/>
      <point x="78" y="46"/>
    </contour>
    <contour>
      <point x="54" y="126" type="line" smooth="yes"/>
      <point x="54" y="41"/>
      <point x="111" y="-6"/>
      <point x="187" y="-6" type="curve" smooth="yes"/>
      <point x="285" y="-6"/>
      <point x="427" y="64"/>
      <point x="429" y="64" type="curve"/>
      <point x="437" y="0" type="line"/>
      <point x="453" y="0" type="line"/>
      <point x="453" y="387" type="line" smooth="yes"/>
      <point x="453" y="487"/>
      <point x="404" y="542"/>
      <point x="276" y="541" type="curve" smooth="yes"/>
      <point x="197.48662303685913" y="540.0975473912283"/>
      <point x="137.34326069004277" y="523.8129880190305"/>
      <point x="91" y="512" type="curve"/>
      <point x="91" y="496" type="line"/>
      <point x="149.78379790136597" y="505.94802733715426"/>
      <point x="219.01519737011944" y="519.8206686959684"/>
      <point x="274" y="519" type="curve" smooth="yes"/>
      <point x="395.7024811295454" y="517.8518633855703"/>
      <point x="429" y="466"/>
      <point x="429" y="387" type="curve" smooth="yes"/>
      <point x="429" y="298" type="line"/>
      <point x="213" y="298" type="line" smooth="yes"/>
      <point x="109" y="298"/>
      <point x="54" y="242"/>
      <point x="54" y="157" type="curve" smooth="yes"/>
    </contour>
    <contour>
      <point x="270" y="650" type="move" name="top"/>
    </contour>
    <contour>
      <point x="270" y="-150" type="move" name="bottom"/>
    </contour>
    <contour>
      <point x="443" y="0" type="move" name="ogonek"/>
    </contour>
  </outline>
</glyph>
<glyph name="b" format="1">
  <advance width="552"/>
  <unicode hex="0062"/>
  <outline>
    <contour>
      <point x="104" y="73" type="line"/>
      <point x="157" y="46"/>
      <point x="221" y="18"/>
      <point x="300" y="18" type="curve" smooth="yes"/>
      <point x="385" y="18"/>
      <point x="461" y="89"/>
      <point x="461" y="263" type="curve" smooth="yes"/>
      <point x="461" y="468"/>
      <point x="384" y="515"/>
      <point x="300" y="515" type="curve" smooth="yes"/>
      <point x="223" y="515"/>
      <point x="173" y="503"/>
      <point x="104" y="485" type="curve"/>
    </contour>
    <contour>
      <point x="81" y="0" type="line"/>
      <point x="81" y="785" type="line"/>
      <point x="103" y="785" type="line"/>
      <point x="103" y="499" type="line"/>
      <point x="167" y="525"/>
      <point x="255" y="539"/>
      <point x="300" y="539" type="curve" smooth="yes"/>
      <point x="451" y="539"/>
      <point x="485" y="399"/>
      <point x="485" y="263" type="curve" smooth="yes"/>
      <point x="485" y="141"/>
      <point x="445" y="-6"/>
      <point x="300" y="-6" type="curve" smooth="yes"/>
      <point x="232" y="-6"/>
      <point x="130" y="35"/>
      <point x="104" y="59" type="curve"/>
      <point x="94" y="0" type="line"/>
    </contour>
  </outline>
</glyph>
<glyph name="c" format="1">
  <advance width="490.0"/>
  <unicode hex="0063"/>
  <outline>
    <contour>
      <point x="70" y="266" type="curve" smooth="yes"/>
      <point x="70.0" y="42.0"/>
      <point x="158.69565217391306" y="-6.0"/>
      <point x="274" y="-6" type="curve" smooth="yes"/>
      <point x="344.9387755102041" y="-6.0"/>
      <point x="405.0934283364551" y="-1.796262866541796"/>
      <point x="450" y="0" type="curve"/>
      <point x="450" y="16" type="line"/>
      <point x="274" y="16" type="line" smooth="yes"/>
      <point x="172.75" y="16"/>
      <point x="94.0" y="63.0"/>
      <point x="94" y="262" type="curve" smooth="yes"/>
      <point x="94.0" y="470.0"/>
      <point x="164.94117647058823" y="514"/>
      <point x="274" y="514" type="curve" smooth="yes"/>
      <point x="442" y="514" type="line"/>
      <point x="442" y="530" type="line"/>
      <point x="391.01666298390757" y="533.7765434826736"/>
      <point x="318.35955056179773" y="536.0"/>
      <point x="274" y="536" type="curve" smooth="yes"/>
      <point x="154.12371134020617" y="536.0"/>
      <point x="70.0" y="488.0"/>
    </contour>
    <contour>
      <point x="270" y="650" type="move" name="top"/>
    </contour>
    <contour>
      <point x="270" y="-150" type="move" name="bottom"/>
    </contour>
  </outline>
</glyph>
<glyph name="d" format="1">
  <advance width="552"/>
  <unicode hex="0064"/>
  <outline>
    <contour>
      <point x="92" y="263" type="curve" smooth="yes"/>
      <point x="92" y="82"/>
      <point x="167" y="18"/>
      <point x="252" y="18" type="curve" smooth="yes"/>
      <point x="331" y="18"/>
      <point x="395" y="46"/>
      <point x="448" y="73" type="curve"/>
      <point x="448" y="485" type="line"/>
      <point x="379" y="503"/>
      <point x="329" y="515"/>
      <point x="252" y="515" type="curve" smooth="yes"/>
      <point x="168" y="515"/>
      <point x="92" y="472"/>
    </contour>
    <contour>
      <point x="68" y="263" type="curve" smooth="yes"/>
      <point x="68" y="399"/>
      <point x="101" y="539"/>
      <point x="252" y="539" type="curve" smooth="yes"/>
      <point x="297" y="539"/>
      <point x="386" y="525"/>
      <point x="450" y="499" type="curve"/>
      <point x="450" y="785" type="line"/>
      <point x="471" y="785" type="line"/>
      <point x="471" y="0" type="line"/>
      <point x="458" y="0" type="line"/>
      <point x="448" y="59" type="line"/>
      <point x="422" y="35"/>
      <point x="320" y="-6"/>
      <point x="252" y="-6" type="curve" smooth="yes"/>
      <point x="107" y="-6"/>
      <point x="68" y="141"/>
    </contour>
  </outline>
</glyph>
<glyph name="e" format="1">
  <advance width="526"/>
  <unicode hex="0065"/>
  <outline>
    <contour>
      <point x="92" y="273" type="curve"/>
      <point x="336" y="273" type="line" smooth="yes"/>
      <point x="392" y="273"/>
      <point x="448" y="277"/>
      <point x="448" y="347" type="curve" smooth="yes"/>
      <point x="448" y="497"/>
      <point x="388" y="511"/>
      <point x="270" y="511" type="curve" smooth="yes"/>
      <point x="131" y="511"/>
      <point x="92" y="481"/>
    </contour>
    <contour>
      <point x="68" y="268" type="curve" smooth="yes"/>
      <point x="68" y="502"/>
      <point x="122" y="535"/>
      <point x="270" y="535" type="curve" smooth="yes"/>
      <point x="391" y="535"/>
      <point x="472" y="523"/>
      <point x="472" y="347" type="curve" smooth="yes"/>
      <point x="472" y="268"/>
      <point x="422" y="250"/>
      <point x="336" y="250" type="curve" smooth="yes"/>
      <point x="92" y="250" type="line"/>
      <point x="92" y="48"/>
      <point x="155" y="19"/>
      <point x="242" y="19" type="curve" smooth="yes"/>
      <point x="334" y="19"/>
      <point x="387" y="28"/>
      <point x="462" y="39" type="curve"/>
      <point x="462" y="23" type="line"/>
      <point x="381" y="0"/>
      <point x="325" y="-6"/>
      <point x="242" y="-5" type="curve" smooth="yes"/>
      <point x="106" y="-3"/>
      <point x="68" y="72"/>
    </contour>
  </outline>
</glyph>
<glyph name="f" format="1">
  <advance width="384"/>
  <unicode hex="0066"/>
  <outline>
    <contour>
      <point x="27" y="509" type="line"/>
      <point x="114" y="509" type="line"/>
      <point x="114" y="0" type="line"/>
      <point x="138" y="0" type="line"/>
      <point x="138" y="509" type="line"/>
      <point x="326" y="509" type="line"/>
      <point x="326" y="531" type="line"/>
      <point x="138" y="531" type="line"/>
      <point x="138" y="630" type="line" smooth="yes"/>
      <point x="138" y="716"/>
      <point x="154" y="764"/>
      <point x="248" y="764" type="curve" smooth="yes"/>
      <point x="278" y="764"/>
      <point x="311" y="761"/>
      <point x="343" y="757" type="curve"/>
      <point x="343" y="773" type="line"/>
      <point x="316" y="780"/>
      <point x="293" y="786"/>
      <point x="247" y="786" type="curve" smooth="yes"/>
      <point x="137" y="786"/>
      <point x="114" y="724"/>
      <point x="114" y="630" type="curve" smooth="yes"/>
      <point x="114" y="531" type="line"/>
      <point x="27" y="525" type="line"/>
    </contour>
    <contour>
      <point x="229" y="900" type="move" name="top"/>
    </contour>
  </outline>
</glyph>
<glyph name="g" format="1">
  <advance width="571.0"/>
  <unicode hex="0067"/>
  <outline>
    <contour>
      <point x="95" y="354" type="curve" smooth="yes"/>
      <point x="95" y="470"/>
      <point x="157" y="511"/>
      <point x="253" y="511" type="curve" smooth="yes"/>
      <point x="311" y="511" type="line" smooth="yes"/>
      <point x="396" y="511"/>
      <point x="461" y="468"/>
      <point x="461" y="344" type="curve" smooth="yes"/>
      <point x="461.0" y="270.0"/>
      <point x="431" y="195"/>
      <point x="298" y="195" type="curve" smooth="yes"/>
      <point x="236" y="195" type="line" smooth="yes"/>
      <point x="151.02649006622516" y="195"/>
      <point x="95" y="241"/>
    </contour>
    <contour>
      <point x="71" y="354" type="curve" smooth="yes"/>
      <point x="71" y="292"/>
      <point x="90" y="217"/>
      <point x="175" y="188" type="curve"/>
      <point x="117.2185772894305" y="177.04145431351267"/>
      <point x="83.0" y="157.02298850574712"/>
      <point x="83" y="111" type="curve" smooth="yes"/>
      <point x="83.0" y="68.0952380952381"/>
      <point x="124" y="43"/>
      <point x="177" y="43" type="curve" smooth="yes"/>
      <point x="371" y="43" type="line" smooth="yes"/>
      <point x="492.16184971098266" y="43"/>
      <point x="524" y="-4"/>
      <point x="524" y="-73" type="curve" smooth="yes"/>
      <point x="524" y="-98" type="line" smooth="yes"/>
      <point x="524" y="-182"/>
      <point x="461" y="-221"/>
      <point x="356" y="-221" type="curve" smooth="yes"/>
      <point x="216" y="-221" type="line" smooth="yes"/>
      <point x="124" y="-221"/>
      <point x="62" y="-193"/>
      <point x="62" y="-108" type="curve" smooth="yes"/>
      <point x="62" y="-78" type="line" smooth="yes"/>
      <point x="62" y="10"/>
      <point x="137.90322580645162" y="43.0"/>
      <point x="209" y="43" type="curve"/>
      <point x="209" y="63" type="line"/>
      <point x="131.58100558659217" y="63.0"/>
      <point x="40" y="19.692857142857136"/>
      <point x="40" y="-78" type="curve" smooth="yes"/>
      <point x="40" y="-108" type="line" smooth="yes"/>
      <point x="40" y="-201"/>
      <point x="110" y="-243"/>
      <point x="216" y="-243" type="curve" smooth="yes"/>
      <point x="356" y="-243" type="line" smooth="yes"/>
      <point x="478" y="-243"/>
      <point x="546" y="-189"/>
      <point x="546" y="-98" type="curve" smooth="yes"/>
      <point x="546" y="-70" type="line" smooth="yes"/>
      <point x="546" y="16"/>
      <point x="495.7435897435897" y="65"/>
      <point x="371" y="65" type="curve" smooth="yes"/>
      <point x="171" y="65" type="line" smooth="yes"/>
      <point x="142" y="65"/>
      <point x="107.0" y="78.35483870967741"/>
      <point x="107" y="111" type="curve" smooth="yes"/>
      <point x="107.0" y="157.5"/>
      <point x="150.0" y="173"/>
      <point x="223" y="173" type="curve" smooth="yes"/>
      <point x="300" y="173" type="line" smooth="yes"/>
      <point x="444.2051282051282" y="173"/>
      <point x="485.0" y="265.0"/>
      <point x="485" y="344" type="curve" smooth="yes"/>
      <point x="485" y="465"/>
      <point x="427" y="495"/>
      <point x="394" y="511" type="curve"/>
      <point x="545" y="517" type="line"/>
      <point x="545" y="533" type="line"/>
      <point x="263" y="533" type="line" smooth="yes"/>
      <point x="158" y="533"/>
      <point x="71" y="489"/>
    </contour>
    <contour>
      <point x="278" y="650" type="move" name="top"/>
    </contour>
  </outline>
</glyph>
<glyph name="h" format="1">
  <advance width="582.0"/>
  <unicode hex="0068"/>
  <outline>
    <contour>
      <point x="91" y="0" type="line"/>
      <point x="115" y="0" type="line"/>
      <point x="115" y="455" type="line"/>
      <point x="190" y="495"/>
      <point x="243.0" y="518.0"/>
      <point x="331" y="518" type="curve" smooth="yes"/>
      <point x="420.0" y="518.0"/>
      <point x="471" y="450"/>
      <point x="471" y="370" type="curve" smooth="yes"/>
      <point x="471" y="0" type="line"/>
      <point x="495" y="0" type="line"/>
      <point x="495" y="370" type="line" smooth="yes"/>
      <point x="495" y="458"/>
      <point x="437" y="540"/>
      <point x="331" y="540" type="curve" smooth="yes"/>
      <point x="250" y="540"/>
      <point x="173" y="507"/>
      <point x="115" y="469" type="curve"/>
      <point x="115" y="784" type="line"/>
      <point x="91" y="784" type="line"/>
    </contour>
  </outline>
</glyph>
<glyph name="i" format="1">
  <advance width="170"/>
  <unicode hex="0069"/>
  <outline>
    <contour>
      <point x="72" y="0" type="line"/>
      <point x="72" y="531" type="line"/>
      <point x="96" y="531" type="line"/>
      <point x="96" y="0" type="line"/>
    </contour>
    <contour>
      <point x="68" y="622" type="curve" smooth="yes"/>
      <point x="68" y="684" type="line" smooth="yes"/>
      <point x="68" y="692"/>
      <point x="72" y="696"/>
      <point x="80" y="696" type="curve" smooth="yes"/>
      <point x="91" y="696" type="line" smooth="yes"/>
      <point x="99" y="696"/>
      <point x="102" y="691"/>
      <point x="102" y="684" type="curve" smooth="yes"/>
      <point x="102" y="622" type="line" smooth="yes"/>
      <point x="102" y="614"/>
      <point x="98" y="610"/>
      <point x="91" y="610" type="curve" smooth="yes"/>
      <point x="80" y="610" type="line" smooth="yes"/>
      <point x="73" y="610"/>
      <point x="68" y="615"/>
    </contour>
  </outline>
</glyph>
<glyph name="j" format="1">
  <advance width="197"/>
  <unicode hex="006A"/>
  <outline>
    <contour>
      <point x="87" y="-270" type="line"/>
      <point x="87" y="531" type="line"/>
      <point x="111" y="531" type="line"/>
      <point x="111" y="-4" type="line"/>
      <point x="112" y="-90"/>
      <point x="112" y="-182"/>
      <point x="100" y="-270" type="curve"/>
    </contour>
    <contour>
      <point x="81" y="622" type="curve" smooth="yes"/>
      <point x="81" y="684" type="line" smooth="yes"/>
      <point x="81" y="692"/>
      <point x="85" y="696"/>
      <point x="93" y="696" type="curve" smooth="yes"/>
      <point x="104" y="696" type="line" smooth="yes"/>
      <point x="112" y="696"/>
      <point x="116" y="691"/>
      <point x="116" y="684" type="curve" smooth="yes"/>
      <point x="116" y="622" type="line" smooth="yes"/>
      <point x="116" y="614"/>
      <point x="111" y="610"/>
      <point x="104" y="610" type="curve" smooth="yes"/>
      <point x="93" y="610" type="line" smooth="yes"/>
      <point x="86" y="610"/>
      <point x="81" y="615"/>
    </contour>
  </outline>
</glyph>
<glyph name="k" format="1">
  <advance width="498"/>
  <unicode hex="006B"/>
  <outline>
    <contour>
      <point x="81" y="0" type="line"/>
      <point x="81" y="782" type="line"/>
      <point x="105" y="782" type="line"/>
      <point x="105" y="317" type="line"/>
      <point x="165" y="317" type="line"/>
      <point x="433" y="531" type="line"/>
      <point x="471" y="531" type="line"/>
      <point x="189" y="304" type="line"/>
      <point x="470" y="0" type="line"/>
      <point x="435" y="0" type="line"/>
      <point x="165" y="293" type="line"/>
      <point x="105" y="293" type="line"/>
      <point x="105" y="0" type="line"/>
    </contour>
  </outline>
</glyph>
<glyph name="l" format="1">
  <advance width="298"/>
  <unicode hex="006C"/>
  <outline>
    <contour>
      <point x="81" y="189" type="curve" smooth="yes"/>
      <point x="81" y="783" type="line"/>
      <point x="105" y="783" type="line"/>
      <point x="105" y="189" type="line" smooth="yes"/>
      <point x="105" y="32"/>
      <point x="167" y="28"/>
      <point x="197" y="24" type="curve" smooth="yes"/>
      <point x="197" y="24"/>
      <point x="264" y="13"/>
      <point x="271" y="13" type="curve"/>
      <point x="271" y="0" type="line"/>
      <point x="204" y="0" type="line" smooth="yes"/>
      <point x="120" y="0"/>
      <point x="81" y="57"/>
    </contour>
  </outline>
</glyph>
<glyph name="m" format="1">
  <advance width="931"/>
  <unicode hex="006D"/>
  <outline>
    <contour>
      <point x="81" y="0" type="line"/>
      <point x="81" y="531" type="line"/>
      <point x="95" y="531" type="line"/>
      <point x="105" y="469" type="line"/>
      <point x="163" y="507"/>
      <point x="240" y="540"/>
      <point x="321" y="540" type="curve" smooth="yes"/>
      <point x="389" y="540"/>
      <point x="438" y="506"/>
      <point x="464" y="458" type="curve"/>
      <point x="516" y="497"/>
      <point x="620" y="540"/>
      <point x="700" y="540" type="curve" smooth="yes"/>
      <point x="806" y="540"/>
      <point x="864" y="458"/>
      <point x="864" y="370" type="curve" smooth="yes"/>
      <point x="864" y="0" type="line"/>
      <point x="840" y="0" type="line"/>
      <point x="840" y="370" type="line" smooth="yes"/>
      <point x="840" y="449"/>
      <point x="789" y="516"/>
      <point x="700" y="516" type="curve" smooth="yes"/>
      <point x="616" y="516"/>
      <point x="540" y="484"/>
      <point x="469" y="446" type="curve"/>
      <point x="479" y="422"/>
      <point x="485" y="397"/>
      <point x="485" y="370" type="curve" smooth="yes"/>
      <point x="485" y="0" type="line"/>
      <point x="461" y="0" type="line"/>
      <point x="461" y="370" type="line" smooth="yes"/>
      <point x="461" y="449"/>
      <point x="410" y="516"/>
      <point x="321" y="516" type="curve" smooth="yes"/>
      <point x="233" y="516"/>
      <point x="179" y="495"/>
      <point x="105" y="455" type="curve"/>
      <point x="105" y="0" type="line"/>
    </contour>
  </outline>
</glyph>
<glyph name="o" format="1">
  <advance width="573"/>
  <unicode hex="006F"/>
  <outline>
    <contour>
      <point x="92" y="258" type="curve" smooth="yes"/>
      <point x="92" y="47"/>
      <point x="159" y="19"/>
      <point x="286" y="19" type="curve" smooth="yes"/>
      <point x="414" y="19"/>
      <point x="482" y="56"/>
      <point x="482" y="258" type="curve" smooth="yes"/>
      <point x="482" y="475"/>
      <point x="407" y="512"/>
      <point x="286" y="512" type="curve" smooth="yes"/>
      <point x="166" y="512"/>
      <point x="92" y="490"/>
    </contour>
    <contour>
      <point x="68" y="258" type="curve" smooth="yes"/>
      <point x="68" y="475"/>
      <point x="127" y="536"/>
      <point x="286" y="536" type="curve" smooth="yes"/>
      <point x="459" y="536"/>
      <point x="506" y="445"/>
      <point x="506" y="258" type="curve" smooth="yes"/>
      <point x="506" y="64"/>
      <point x="454" y="-5"/>
      <point x="286" y="-5" type="curve" smooth="yes"/>
      <point x="110" y="-5"/>
      <point x="68" y="68"/>
    </contour>
  </outline>
</glyph>
<glyph name="p" format="1">
  <advance width="552"/>
  <unicode hex="0070"/>
  <outline>
    <contour>
      <point x="105" y="46" type="line"/>
      <point x="174" y="28"/>
      <point x="223" y="16"/>
      <point x="300" y="16" type="curve" smooth="yes"/>
      <point x="384" y="16"/>
      <point x="461" y="63"/>
      <point x="461" y="268" type="curve" smooth="yes"/>
      <point x="461" y="442"/>
      <point x="385" y="513"/>
      <point x="300" y="513" type="curve" smooth="yes"/>
      <point x="221" y="513"/>
      <point x="158" y="485"/>
      <point x="105" y="458" type="curve"/>
    </contour>
    <contour>
      <point x="81" y="-268" type="line"/>
      <point x="81" y="531" type="line"/>
      <point x="94" y="531" type="line"/>
      <point x="105" y="472" type="line"/>
      <point x="131" y="496"/>
      <point x="232" y="537"/>
      <point x="300" y="537" type="curve" smooth="yes"/>
      <point x="445" y="537"/>
      <point x="485" y="390"/>
      <point x="485" y="268" type="curve" smooth="yes"/>
      <point x="485" y="132"/>
      <point x="451" y="-8"/>
      <point x="300" y="-8" type="curve" smooth="yes"/>
      <point x="255" y="-8"/>
      <point x="168" y="6"/>
      <point x="104" y="32" type="curve"/>
      <point x="104" y="-268" type="line"/>
    </contour>
  </outline>
</glyph>
<glyph name="q" format="1">
  <advance width="558"/>
  <unicode hex="0071"/>
  <outline>
    <contour>
      <point x="92" y="268" type="curve" smooth="yes"/>
      <point x="92" y="107"/>
      <point x="128" y="14"/>
      <point x="252" y="14" type="curve" smooth="yes"/>
      <point x="326" y="14"/>
      <point x="371" y="24"/>
      <point x="454" y="45" type="curve"/>
      <point x="454" y="513" type="line"/>
      <point x="252" y="513" type="line" smooth="yes"/>
      <point x="132" y="513"/>
      <point x="92" y="405"/>
    </contour>
    <contour>
      <point x="68" y="268" type="curve" smooth="yes"/>
      <point x="68" y="436"/>
      <point x="127" y="537"/>
      <point x="252" y="537" type="curve" smooth="yes"/>
      <point x="358" y="537"/>
      <point x="429" y="533"/>
      <point x="478" y="525" type="curve"/>
      <point x="478" y="-270" type="line"/>
      <point x="454" y="-270" type="line"/>
      <point x="454" y="29" type="line"/>
      <point x="390" y="3"/>
      <point x="297" y="-10"/>
      <point x="252" y="-10" type="curve" smooth="yes"/>
      <point x="99" y="-10"/>
      <point x="68" y="110"/>
    </contour>
  </outline>
</glyph>
<glyph name="r" format="1">
  <advance width="424"/>
  <unicode hex="0072"/>
  <outline>
    <contour>
      <point x="81" y="0" type="line"/>
      <point x="81" y="531" type="line"/>
      <point x="93" y="531" type="line"/>
      <point x="105" y="464" type="line"/>
      <point x="166" y="499"/>
      <point x="233" y="537"/>
      <point x="323" y="537" type="curve" smooth="yes"/>
      <point x="352" y="537"/>
      <point x="377" y="536"/>
      <point x="397" y="529" type="curve"/>
      <point x="397" y="506" type="line"/>
      <point x="373" y="511"/>
      <point x="352" y="513"/>
      <point x="323" y="513" type="curve" smooth="yes"/>
      <point x="234" y="513"/>
      <point x="182" y="481"/>
      <point x="105" y="444" type="curve"/>
      <point x="105" y="0" type="line"/>
    </contour>
  </outline>
</glyph>
<glyph name="s" format="1">
  <advance width="504"/>
  <unicode hex="0073"/>
  <outline>
    <contour>
      <point x="54" y="363" type="curve" smooth="yes"/>
      <point x="54" y="409" type="line" smooth="yes"/>
      <point x="54" y="491"/>
      <point x="89" y="536"/>
      <point x="192" y="536" type="curve" smooth="yes"/>
      <point x="244" y="536"/>
      <point x="371" y="532"/>
      <point x="423" y="527" type="curve"/>
      <point x="423" y="513" type="line"/>
      <point x="192" y="513" type="line" smooth="yes"/>
      <point x="108" y="513"/>
      <point x="78" y="481"/>
      <point x="78" y="409" type="curve" smooth="yes"/>
      <point x="78" y="363" type="line" smooth="yes"/>
      <point x="78" y="277"/>
      <point x="117" y="276"/>
      <point x="192" y="276" type="curve" smooth="yes"/>
      <point x="320" y="276" type="line" smooth="yes"/>
      <point x="396" y="276"/>
      <point x="450" y="237"/>
      <point x="450" y="162" type="curve" smooth="yes"/>
      <point x="450" y="113" type="line" smooth="yes"/>
      <point x="450" y="4"/>
      <point x="384" y="-5"/>
      <point x="320" y="-5" type="curve" smooth="yes"/>
      <point x="271" y="-5"/>
      <point x="114" y="1"/>
      <point x="76" y="5" type="curve"/>
      <point x="76" y="19" type="line"/>
      <point x="320" y="19" type="line" smooth="yes"/>
      <point x="367" y="19"/>
      <point x="426" y="20"/>
      <point x="426" y="113" type="curve" smooth="yes"/>
      <point x="426" y="162" type="line" smooth="yes"/>
      <point x="426" y="211"/>
      <point x="391" y="252"/>
      <point x="320" y="252" type="curve" smooth="yes"/>
      <point x="192" y="252" type="line" smooth="yes"/>
      <point x="98" y="252"/>
      <point x="54" y="260"/>
    </contour>
  </outline>
</glyph>
<glyph name="t" format="1">
  <advance width="350"/>
  <unicode hex="0074"/>
  <outline>
    <contour>
      <point x="27" y="508" type="line"/>
      <point x="27" y="524" type="line"/>
      <point x="111" y="532" type="line"/>
      <point x="119" y="680" type="line"/>
      <point x="135" y="680" type="line"/>
      <point x="135" y="532" type="line"/>
      <point x="310" y="532" type="line"/>
      <point x="310" y="508" type="line"/>
      <point x="135" y="508" type="line"/>
      <point x="135" y="188" type="line" smooth="yes"/>
      <point x="135" y="31"/>
      <point x="197" y="27"/>
      <point x="227" y="23" type="curve" smooth="yes"/>
      <point x="227" y="23"/>
      <point x="294" y="12"/>
      <point x="301" y="12" type="curve"/>
      <point x="301" y="-1" type="line"/>
      <point x="234" y="-1" type="line" smooth="yes"/>
      <point x="150" y="-1"/>
      <point x="111" y="56"/>
      <point x="111" y="188" type="curve" smooth="yes"/>
      <point x="111" y="508" type="line"/>
    </contour>
  </outline>
</glyph>
<glyph name="u" format="1">
  <advance width="552"/>
  <unicode hex="0075"/>
  <outline>
    <contour>
      <point x="68" y="162" type="curve" smooth="yes"/>
      <point x="68" y="532" type="line"/>
      <point x="92" y="532" type="line"/>
      <point x="92" y="162" type="line" smooth="yes"/>
      <point x="92" y="83"/>
      <point x="143" y="16"/>
      <point x="232" y="16" type="curve" smooth="yes"/>
      <point x="320" y="16"/>
      <point x="374" y="37"/>
      <point x="448" y="77" type="curve"/>
      <point x="448" y="532" type="line"/>
      <point x="472" y="532" type="line"/>
      <point x="472" y="1" type="line"/>
      <point x="458" y="1" type="line"/>
      <point x="448" y="63" type="line"/>
      <point x="390" y="25"/>
      <point x="313" y="-8"/>
      <point x="232" y="-8" type="curve" smooth="yes"/>
      <point x="126" y="-8"/>
      <point x="68" y="74"/>
    </contour>
  </outline>
</glyph>
<glyph name="v" format="1">
  <advance width="520"/>
  <unicode hex="0076"/>
  <outline>
    <contour>
      <point x="27" y="531" type="line"/>
      <point x="51" y="531" type="line"/>
      <point x="258" y="33" type="line"/>
      <point x="469" y="531" type="line"/>
      <point x="493" y="531" type="line"/>
      <point x="271" y="0" type="line"/>
      <point x="245" y="0" type="line"/>
    </contour>
  </outline>
</glyph>
<glyph name="w" format="1">
  <advance width="777"/>
  <unicode hex="0077"/>
  <outline>
    <contour>
      <point x="27" y="531" type="line"/>
      <point x="52" y="531" type="line"/>
      <point x="248" y="30" type="line"/>
      <point x="439" y="531" type="line"/>
      <point x="463" y="531" type="line"/>
      <point x="389" y="332" type="line"/>
      <point x="525" y="30" type="line"/>
      <point x="727" y="531" type="line"/>
      <point x="750" y="531" type="line"/>
      <point x="538" y="0" type="line"/>
      <point x="512" y="0" type="line"/>
      <point x="377" y="304" type="line"/>
      <point x="261" y="0" type="line"/>
      <point x="235" y="0" type="line"/>
    </contour>
  </outline>
</glyph>
<glyph name="x" format="1">
  <advance width="480"/>
  <unicode hex="0078"/>
  <outline>
    <contour>
      <point x="32" y="0" type="line"/>
      <point x="224" y="266" type="line"/>
      <point x="32" y="531" type="line"/>
      <point x="64" y="531" type="line"/>
      <point x="240" y="288" type="line"/>
      <point x="416" y="531" type="line"/>
      <point x="448" y="531" type="line"/>
      <point x="256" y="266" type="line"/>
      <point x="448" y="0" type="line"/>
      <point x="416" y="0" type="line"/>
      <point x="240" y="243" type="line"/>
      <point x="64" y="0" type="line"/>
    </contour>
  </outline>
</glyph>
<glyph name="y" format="1">
  <advance width="529"/>
  <unicode hex="0079"/>
  <outline>
    <contour>
      <point x="28" y="531" type="line"/>
      <point x="54" y="531" type="line"/>
      <point x="202" y="116" type="line" smooth="yes"/>
      <point x="239" y="13"/>
      <point x="303" y="25"/>
      <point x="303" y="25" type="curve"/>
      <point x="474" y="531" type="line"/>
      <point x="499" y="531" type="line"/>
      <point x="266" y="-168" type="line"/>
      <point x="220" y="-270" type="line"/>
      <point x="208" y="-270" type="line"/>
      <point x="295" y="0" type="line"/>
      <point x="274" y="1"/>
      <point x="209" y="9"/>
      <point x="178" y="110" type="curve"/>
    </contour>
  </outline>
</glyph>
<glyph name="z" format="1">
  <advance width="475"/>
  <unicode hex="007A"/>
  <outline>
    <contour>
      <point x="40" y="507" type="line"/>
      <point x="40" y="531" type="line"/>
      <point x="436" y="531" type="line"/>
      <point x="436" y="507" type="line"/>
      <point x="86" y="25" type="line"/>
      <point x="436" y="25" type="line"/>
      <point x="437" y="24"/>
      <point x="436" y="1"/>
      <point x="436" y="1" type="curve"/>
      <point x="56" y="1" type="line"/>
      <point x="56" y="25" type="line"/>
      <point x="404" y="507" type="line"/>
    </contour>
  </outline>
</glyph>
<glyph name="braceleft" format="1">
  <advance width="304"/>
  <unicode hex="007B"/>
  <note>
    GF Latin Plus glyph
  </note>
  <outline>
    <contour>
      <point x="27" y="320" type="line"/>
      <point x="67" y="323"/>
      <point x="116" y="295"/>
      <point x="116" y="247" type="curve" smooth="yes"/>
      <point x="116" y="-38" type="line" smooth="yes"/>
      <point x="116" y="-116"/>
      <point x="128" y="-210"/>
      <point x="277" y="-210" type="curve"/>
      <point x="277" y="-188" type="line"/>
      <point x="186.0" y="-188.0"/>
      <point x="140" y="-153.54054054054055"/>
      <point x="140" y="-38" type="curve" smooth="yes"/>
      <point x="140" y="251" type="line" smooth="yes"/>
      <point x="140" y="293"/>
      <point x="104" y="328"/>
      <point x="61" y="334" type="curve"/>
      <point x="104" y="340"/>
      <point x="141" y="372"/>
      <point x="141" y="420" type="curve" smooth="yes"/>
      <point x="141" y="656" type="line" smooth="yes"/>
      <point x="141" y="779.5061728395062"/>
      <point x="189.0" y="820.0"/>
      <point x="277" y="820" type="curve"/>
      <point x="277" y="842" type="line"/>
      <point x="144" y="842"/>
      <point x="117" y="752"/>
      <point x="117" y="656" type="curve" smooth="yes"/>
      <point x="117" y="420" type="line" smooth="yes"/>
      <point x="117" y="362"/>
      <point x="60" y="350"/>
      <point x="27" y="347" type="curve"/>
    </contour>
  </outline>
</glyph>
<glyph name="bar" format="1">
  <advance width="254"/>
  <unicode hex="007C"/>
  <outline>
    <contour>
      <point x="116" y="-72" type="line"/>
      <point x="116" y="770" type="line"/>
      <point x="140" y="770" type="line"/>
      <point x="140" y="-72" type="line"/>
    </contour>
  </outline>
</glyph>
<glyph name="braceright" format="1">
  <advance width="304"/>
  <unicode hex="007D"/>
  <outline>
    <contour>
      <point x="27" y="-186" type="line"/>
      <point x="118" y="-186"/>
      <point x="164" y="-152"/>
      <point x="164" y="-38" type="curve" smooth="yes"/>
      <point x="164" y="251" type="line" smooth="yes"/>
      <point x="164" y="293"/>
      <point x="200" y="328"/>
      <point x="243" y="334" type="curve"/>
      <point x="200" y="340"/>
      <point x="163" y="372"/>
      <point x="163" y="420" type="curve" smooth="yes"/>
      <point x="163" y="656" type="line" smooth="yes"/>
      <point x="163" y="778"/>
      <point x="115" y="818"/>
      <point x="27" y="818" type="curve"/>
      <point x="27" y="842" type="line"/>
      <point x="160" y="842"/>
      <point x="187" y="752"/>
      <point x="187" y="656" type="curve" smooth="yes"/>
      <point x="187" y="420" type="line" smooth="yes"/>
      <point x="187" y="362"/>
      <point x="244" y="350"/>
      <point x="277" y="347" type="curve"/>
      <point x="277" y="320" type="line"/>
      <point x="237" y="323"/>
      <point x="188" y="295"/>
      <point x="188" y="247" type="curve" smooth="yes"/>
      <point x="188" y="-38" type="line" smooth="yes"/>
      <point x="188" y="-116"/>
      <point x="176" y="-210"/>
      <point x="27" y="-210" type="curve"/>
    </contour>
  </outline>
</glyph>
<glyph name="asciitilde" format="1">
  <advance width="473"/>
  <unicode hex="007E"/>
  <outline>
    <contour>
      <point x="68" y="572" type="line"/>
      <point x="102" y="602"/>
      <point x="135" y="630"/>
      <point x="174" y="630" type="curve" smooth="yes"/>
      <point x="213" y="630"/>
      <point x="268" y="557"/>
      <point x="300" y="557" type="curve" smooth="yes"/>
      <point x="339" y="557"/>
      <point x="377" y="591"/>
      <point x="400" y="610" type="curve"/>
      <point x="406" y="603" type="line"/>
      <point x="373" y="570"/>
      <point x="342" y="541"/>
      <point x="300" y="541" type="curve" smooth="yes"/>
      <point x="258" y="541"/>
      <point x="207" y="614"/>
      <point x="174" y="614" type="curve" smooth="yes"/>
      <point x="136" y="614"/>
      <point x="108" y="590"/>
      <point x="72" y="564" type="curve"/>
    </contour>
  </outline>
</glyph>
<glyph name="exclamdown" format="1">
  <advance width="267"/>
  <unicode hex="00A1"/>
  <outline>
    <contour>
      <point x="119" y="-270" type="line"/>
      <point x="124" y="266" type="line"/>
      <point x="136" y="266" type="line"/>
      <point x="141" y="-270" type="line"/>
    </contour>
    <contour>
      <point x="112" y="387" type="curve" smooth="yes"/>
      <point x="112" y="450" type="line" smooth="yes"/>
      <point x="112" y="458"/>
      <point x="117" y="460"/>
      <point x="124" y="460" type="curve" smooth="yes"/>
      <point x="135" y="460" type="line" smooth="yes"/>
      <point x="142" y="460"/>
      <point x="147" y="457"/>
      <point x="147" y="450" type="curve" smooth="yes"/>
      <point x="147" y="387" type="line" smooth="yes"/>
      <point x="147" y="379"/>
      <point x="143" y="374"/>
      <point x="135" y="374" type="curve" smooth="yes"/>
      <point x="124" y="374" type="line" smooth="yes"/>
      <point x="116" y="374"/>
      <point x="112" y="380"/>
    </contour>
  </outline>
</glyph>
<glyph name="cent" format="1">
  <advance width="488"/>
  <unicode hex="00A2"/>
  <outline>
    <contour>
      <point x="54" y="266" type="curve" smooth="yes"/>
      <point x="54" y="506"/>
      <point x="131" y="536"/>
      <point x="246" y="536" type="curve"/>
      <point x="246" y="618" type="line"/>
      <point x="264" y="618" type="line"/>
      <point x="264" y="535" type="line"/>
      <point x="314" y="532"/>
      <point x="378" y="522"/>
      <point x="427" y="510" type="curve"/>
      <point x="427" y="496" type="line"/>
      <point x="427" y="496"/>
      <point x="318" y="512"/>
      <point x="229" y="512" type="curve" smooth="yes"/>
      <point x="138" y="512"/>
      <point x="78" y="478"/>
      <point x="78" y="262" type="curve" smooth="yes"/>
      <point x="78" y="56"/>
      <point x="143" y="19"/>
      <point x="229" y="19" type="curve" smooth="yes"/>
      <point x="321" y="19"/>
      <point x="434" y="40"/>
      <point x="434" y="40" type="curve"/>
      <point x="434" y="24" type="line"/>
      <point x="365" y="4"/>
      <point x="325" y="-2"/>
      <point x="264" y="-4" type="curve"/>
      <point x="264" y="-82" type="line"/>
      <point x="246" y="-82" type="line"/>
      <point x="246" y="-5" type="line"/>
      <point x="131.177" y="-5"/>
      <point x="54" y="22.191"/>
    </contour>
  </outline>
</glyph>
<glyph name="sterling" format="1">
  <advance width="601"/>
  <unicode hex="00A3"/>
  <outline>
    <contour>
      <point x="68" y="0" type="line"/>
      <point x="68" y="14" type="line"/>
      <point x="140" y="24" type="line"/>
      <point x="140" y="350" type="line"/>
      <point x="68" y="350" type="line"/>
      <point x="68" y="364" type="line"/>
      <point x="140" y="372" type="line"/>
      <point x="140" y="505" type="line" smooth="yes"/>
      <point x="140" y="719"/>
      <point x="237" y="732"/>
      <point x="368" y="732" type="curve" smooth="yes"/>
      <point x="425" y="732"/>
      <point x="534" y="723"/>
      <point x="534" y="723" type="curve"/>
      <point x="534" y="709" type="line"/>
      <point x="370" y="709" type="line" smooth="yes"/>
      <point x="236" y="709"/>
      <point x="164" y="689"/>
      <point x="164" y="505" type="curve" smooth="yes"/>
      <point x="164" y="372" type="line"/>
      <point x="454" y="364" type="line"/>
      <point x="454" y="350" type="line"/>
      <point x="164" y="350" type="line"/>
      <point x="164" y="24" type="line"/>
      <point x="532" y="24" type="line"/>
      <point x="532" y="0" type="line"/>
    </contour>
  </outline>
</glyph>
<glyph name="currency" format="1">
  <advance width="466"/>
  <unicode hex="00A4"/>
  <outline>
    <contour>
      <point x="86" y="314" type="curve" smooth="yes"/>
      <point x="86" y="230"/>
      <point x="150" y="158"/>
      <point x="234" y="158" type="curve" smooth="yes"/>
      <point x="318" y="158"/>
      <point x="383" y="230"/>
      <point x="383" y="314" type="curve" smooth="yes"/>
      <point x="383" y="397"/>
      <point x="317" y="462"/>
      <point x="234" y="462" type="curve" smooth="yes"/>
      <point x="153" y="462"/>
      <point x="86" y="395"/>
    </contour>
    <contour>
      <point x="69" y="472" type="line"/>
      <point x="78" y="481" type="line"/>
      <point x="124" y="434" type="line"/>
      <point x="153" y="461"/>
      <point x="192" y="477"/>
      <point x="234" y="477" type="curve" smooth="yes"/>
      <point x="276" y="477"/>
      <point x="313" y="463"/>
      <point x="342" y="438" type="curve"/>
      <point x="387" y="482" type="line"/>
      <point x="396" y="472" type="line"/>
      <point x="352" y="429" type="line"/>
      <point x="381" y="400"/>
      <point x="398" y="360"/>
      <point x="398" y="315" type="curve" smooth="yes"/>
      <point x="398" y="272"/>
      <point x="383" y="232"/>
      <point x="357" y="201" type="curve"/>
      <point x="395" y="163" type="line"/>
      <point x="385" y="154" type="line"/>
      <point x="349" y="192" type="line"/>
      <point x="320" y="162"/>
      <point x="279" y="143"/>
      <point x="234" y="143" type="curve" smooth="yes"/>
      <point x="187" y="143"/>
      <point x="146" y="163"/>
      <point x="117" y="195" type="curve"/>
      <point x="78" y="156" type="line"/>
      <point x="70" y="164" type="line"/>
      <point x="109" y="204" type="line"/>
      <point x="85" y="234"/>
      <point x="71" y="273"/>
      <point x="71" y="315" type="curve" smooth="yes"/>
      <point x="71" y="358"/>
      <point x="88" y="397"/>
      <point x="116" y="426" type="curve"/>
    </contour>
  </outline>
</glyph>
<glyph name="yen" format="1">
  <advance width="584"/>
  <unicode hex="00A5"/>
  <outline>
    <contour>
      <point x="27" y="732" type="line"/>
      <point x="56" y="732" type="line"/>
      <point x="282" y="346" type="line"/>
      <point x="527" y="732" type="line"/>
      <point x="557" y="732" type="line"/>
      <point x="295" y="321" type="line"/>
      <point x="501" y="321" type="line"/>
      <point x="501" y="307" type="line"/>
      <point x="294" y="307" type="line"/>
      <point x="294" y="212" type="line"/>
      <point x="501" y="212" type="line"/>
      <point x="501" y="198" type="line"/>
      <point x="294" y="198" type="line"/>
      <point x="294" y="0" type="line"/>
      <point x="270" y="0" type="line"/>
      <point x="270" y="198" type="line"/>
      <point x="74" y="198" type="line"/>
      <point x="74" y="212" type="line"/>
      <point x="270" y="212" type="line"/>
      <point x="270" y="307" type="line"/>
      <point x="74" y="307" type="line"/>
      <point x="74" y="321" type="line"/>
      <point x="269" y="321" type="line"/>
    </contour>
  </outline>
</glyph>
<glyph name="brokenbar" format="1">
  <advance width="256"/>
  <unicode hex="00A6"/>
  <outline>
    <contour>
      <point x="116" y="429" type="line"/>
      <point x="116" y="770" type="line"/>
      <point x="140" y="770" type="line"/>
      <point x="140" y="429" type="line"/>
    </contour>
    <contour>
      <point x="116" y="-72" type="line"/>
      <point x="116" y="256" type="line"/>
      <point x="140" y="256" type="line"/>
      <point x="140" y="-72" type="line"/>
    </contour>
  </outline>
</glyph>
<glyph name="section" format="1">
  <advance width="559"/>
  <unicode hex="00A7"/>
  <outline>
    <contour>
      <point x="98" y="353" type="line" smooth="yes"/>
      <point x="98" y="277"/>
      <point x="125" y="279"/>
      <point x="204" y="279" type="curve" smooth="yes"/>
      <point x="353" y="279" type="line" smooth="yes"/>
      <point x="451" y="279"/>
      <point x="461" y="284"/>
      <point x="461" y="354" type="curve"/>
      <point x="462" y="355"/>
      <point x="461" y="416"/>
      <point x="461" y="416" type="curve" smooth="yes"/>
      <point x="461" y="481"/>
      <point x="443" y="495"/>
      <point x="353" y="495" type="curve" smooth="yes"/>
      <point x="204" y="495" type="line" smooth="yes"/>
      <point x="130" y="495"/>
      <point x="98" y="495"/>
      <point x="98" y="414" type="curve" smooth="yes"/>
    </contour>
    <contour>
      <point x="74" y="353" type="curve" smooth="yes"/>
      <point x="74" y="415" type="line" smooth="yes"/>
      <point x="74" y="462"/>
      <point x="85" y="500"/>
      <point x="129" y="508" type="curve"/>
      <point x="87" y="516"/>
      <point x="74" y="555"/>
      <point x="74" y="590" type="curve" smooth="yes"/>
      <point x="74" y="660" type="line" smooth="yes"/>
      <point x="74" y="758"/>
      <point x="140" y="784"/>
      <point x="204" y="784" type="curve" smooth="yes"/>
      <point x="253" y="784"/>
      <point x="410" y="778"/>
      <point x="448" y="774" type="curve"/>
      <point x="448" y="760" type="line"/>
      <point x="204" y="760" type="line" smooth="yes"/>
      <point x="122" y="760"/>
      <point x="98" y="717"/>
      <point x="98" y="660" type="curve" smooth="yes"/>
      <point x="98" y="590" type="line" smooth="yes"/>
      <point x="98" y="527"/>
      <point x="134" y="518"/>
      <point x="204" y="518" type="curve" smooth="yes"/>
      <point x="353" y="518" type="line" smooth="yes"/>
      <point x="466" y="518"/>
      <point x="487" y="490"/>
      <point x="486" y="416" type="curve"/>
      <point x="486" y="354" type="line" smooth="yes"/>
      <point x="486" y="314"/>
      <point x="482" y="269"/>
      <point x="434" y="265" type="curve"/>
      <point x="483" y="255"/>
      <point x="485" y="216"/>
      <point x="485" y="183" type="curve" smooth="yes"/>
      <point x="485" y="110" type="line" smooth="yes"/>
      <point x="485" y="1"/>
      <point x="411" y="-8"/>
      <point x="347" y="-8" type="curve" smooth="yes"/>
      <point x="298" y="-8"/>
      <point x="149" y="-2"/>
      <point x="111" y="2" type="curve"/>
      <point x="111" y="16" type="line"/>
      <point x="347" y="16" type="line" smooth="yes"/>
      <point x="419" y="16"/>
      <point x="461" y="36"/>
      <point x="461" y="110" type="curve" smooth="yes"/>
      <point x="461" y="183" type="line" smooth="yes"/>
      <point x="461" y="241"/>
      <point x="451" y="255"/>
      <point x="353" y="255" type="curve" smooth="yes"/>
      <point x="204" y="255" type="line" smooth="yes"/>
      <point x="124" y="255"/>
      <point x="74" y="251"/>
    </contour>
  </outline>
</glyph>
<glyph name="dieresis" format="1">
  <advance width="424"/>
  <unicode hex="00A8"/>
  <note>
    GF Latin Plus glyph
  </note>
  <outline>
    <contour>
      <point x="68" y="678" type="line" smooth="yes"/>
      <point x="68" y="671"/>
      <point x="73" y="666"/>
      <point x="80" y="666" type="curve" smooth="yes"/>
      <point x="91" y="666" type="line" smooth="yes"/>
      <point x="98" y="666"/>
      <point x="103" y="670"/>
      <point x="103" y="678" type="curve" smooth="yes"/>
      <point x="103" y="740" type="line" smooth="yes"/>
      <point x="103" y="747"/>
      <point x="99" y="752"/>
      <point x="91" y="752" type="curve" smooth="yes"/>
      <point x="80" y="752" type="line" smooth="yes"/>
      <point x="72" y="752"/>
      <point x="68" y="748"/>
      <point x="68" y="740" type="curve" smooth="yes"/>
    </contour>
    <contour>
      <point x="322" y="678" type="line" smooth="yes"/>
      <point x="322" y="671"/>
      <point x="327" y="666"/>
      <point x="334" y="666" type="curve" smooth="yes"/>
      <point x="345" y="666" type="line" smooth="yes"/>
      <point x="352" y="666"/>
      <point x="357" y="670"/>
      <point x="357" y="678" type="curve" smooth="yes"/>
      <point x="357" y="740" type="line" smooth="yes"/>
      <point x="357" y="747"/>
      <point x="353" y="752"/>
      <point x="345" y="752" type="curve" smooth="yes"/>
      <point x="334" y="752" type="line" smooth="yes"/>
      <point x="326" y="752"/>
      <point x="322" y="748"/>
      <point x="322" y="740" type="curve" smooth="yes"/>
    </contour>
  </outline>
</glyph>
<glyph name="copyright" format="1">
  <advance width="864"/>
  <unicode hex="00A9"/>
  <outline>
    <contour>
      <point x="250" y="365" type="curve" smooth="yes"/>
      <point x="250" y="526"/>
      <point x="313" y="583"/>
      <point x="394" y="583" type="curve" smooth="yes"/>
      <point x="435" y="583"/>
      <point x="516" y="576"/>
      <point x="572" y="566" type="curve"/>
      <point x="572" y="557" type="line"/>
      <point x="509" y="566"/>
      <point x="427" y="569"/>
      <point x="394" y="569" type="curve" smooth="yes"/>
      <point x="316" y="569"/>
      <point x="264" y="511"/>
      <point x="264" y="362" type="curve" smooth="yes"/>
      <point x="264" y="235"/>
      <point x="299" y="161"/>
      <point x="394" y="161" type="curve" smooth="yes"/>
      <point x="466" y="161"/>
      <point x="531" y="166"/>
      <point x="578" y="177" type="curve"/>
      <point x="578" y="168" type="line"/>
      <point x="514" y="150"/>
      <point x="461" y="147"/>
      <point x="394" y="147" type="curve" smooth="yes"/>
      <point x="315" y="147"/>
      <point x="250" y="188"/>
    </contour>
    <contour>
      <point x="88" y="368" type="curve" smooth="yes"/>
      <point x="86" y="211"/>
      <point x="159" y="14"/>
      <point x="315" y="14" type="curve" smooth="yes"/>
      <point x="571" y="14" type="line" smooth="yes"/>
      <point x="684" y="14"/>
      <point x="776" y="137"/>
      <point x="776" y="368" type="curve" smooth="yes"/>
      <point x="776" y="559"/>
      <point x="722" y="718"/>
      <point x="571" y="718" type="curve" smooth="yes"/>
      <point x="315" y="718" type="line" smooth="yes"/>
      <point x="204" y="718"/>
      <point x="91" y="639"/>
    </contour>
    <contour>
      <point x="74" y="368" type="curve" smooth="yes"/>
      <point x="74" y="531"/>
      <point x="123" y="732"/>
      <point x="315" y="732" type="curve" smooth="yes"/>
      <point x="571" y="732" type="line" smooth="yes"/>
      <point x="767" y="732"/>
      <point x="790" y="492"/>
      <point x="790" y="368" type="curve" smooth="yes"/>
      <point x="790" y="175"/>
      <point x="722" y="0"/>
      <point x="571" y="0" type="curve" smooth="yes"/>
      <point x="315" y="0" type="line" smooth="yes"/>
      <point x="131" y="0"/>
      <point x="74" y="234"/>
    </contour>
  </outline>
</glyph>
<glyph name="ordfeminine" format="1">
  <advance width="360"/>
  <unicode hex="00AA"/>
  <outline>
    <contour>
      <point x="57" y="466" type="line" smooth="yes"/>
      <point x="57" y="411"/>
      <point x="96" y="390"/>
      <point x="146" y="390" type="curve" smooth="yes"/>
      <point x="206" y="390"/>
      <point x="302" y="438"/>
      <point x="302" y="438" type="curve"/>
      <point x="302" y="589" type="line"/>
      <point x="146" y="585" type="line" smooth="yes"/>
      <point x="108" y="585"/>
      <point x="57" y="573"/>
      <point x="57" y="503" type="curve" smooth="yes"/>
    </contour>
    <contour>
      <point x="40" y="463" type="curve" smooth="yes"/>
      <point x="40" y="509" type="line" smooth="yes"/>
      <point x="40" y="563"/>
      <point x="78" y="599"/>
      <point x="140" y="599" type="curve" smooth="yes"/>
      <point x="140" y="599"/>
      <point x="302" y="598"/>
      <point x="302" y="599" type="curve" smooth="yes"/>
      <point x="302" y="599"/>
      <point x="303" y="630"/>
      <point x="302" y="631" type="curve"/>
      <point x="302" y="692"/>
      <point x="269" y="723"/>
      <point x="194" y="723" type="curve" smooth="yes"/>
      <point x="140" y="723"/>
      <point x="109" y="719"/>
      <point x="52" y="707" type="curve"/>
      <point x="52" y="717" type="line"/>
      <point x="90" y="729"/>
      <point x="127" y="738"/>
      <point x="202" y="739" type="curve" smooth="yes"/>
      <point x="266" y="740"/>
      <point x="318" y="709"/>
      <point x="318" y="636" type="curve" smooth="yes"/>
      <point x="318" y="378" type="line"/>
      <point x="308" y="378" type="line"/>
      <point x="302" y="427" type="line"/>
      <point x="300" y="427"/>
      <point x="206" y="374"/>
      <point x="140" y="374" type="curve" smooth="yes"/>
      <point x="88" y="374"/>
      <point x="40" y="405"/>
    </contour>
    <contour>
      <point x="40" y="291" type="line"/>
      <point x="40" y="304" type="line"/>
      <point x="320" y="304" type="line"/>
      <point x="320" y="291" type="line"/>
    </contour>
  </outline>
</glyph>
<glyph name="guillemotleft" format="1">
  <advance width="548"/>
  <unicode hex="00AB"/>
  <outline>
    <contour>
      <point x="252" y="354" type="line"/>
      <point x="458" y="558" type="line"/>
      <point x="474" y="541" type="line"/>
      <point x="286" y="354" type="line"/>
      <point x="480" y="163" type="line"/>
      <point x="462" y="145" type="line"/>
    </contour>
    <contour>
      <point x="68" y="354" type="line"/>
      <point x="272" y="558" type="line"/>
      <point x="290" y="541" type="line"/>
      <point x="102" y="354" type="line"/>
      <point x="296" y="163" type="line"/>
      <point x="278" y="145" type="line"/>
    </contour>
  </outline>
</glyph>
<glyph name="logicalnot" format="1">
  <advance width="532"/>
  <unicode hex="00AC"/>
  <outline>
    <contour>
      <point x="68" y="281" type="line"/>
      <point x="68" y="305" type="line"/>
      <point x="464" y="305" type="line"/>
      <point x="464" y="248"/>
      <point x="464" y="216"/>
      <point x="464" y="159" type="curve"/>
      <point x="440" y="159" type="line"/>
      <point x="440" y="281" type="line"/>
    </contour>
  </outline>
</glyph>
<glyph name="uni00AD" format="1">
  <advance width="368"/>
  <unicode hex="00AD"/>
  <note>
  </note>
  <outline>
    <contour>
      <point x="27" y="278" type="line"/>
      <point x="27" y="302" type="line"/>
      <point x="341" y="302" type="line"/>
      <point x="341" y="278" type="line"/>
    </contour>
  </outline>
</glyph>
<glyph name="registered" format="1">
  <advance width="864"/>
  <unicode hex="00AE"/>
  <outline>
    <contour>
      <point x="299" y="359" type="line"/>
      <point x="468" y="359" type="line" smooth="yes"/>
      <point x="536" y="359"/>
      <point x="572" y="373"/>
      <point x="572" y="453" type="curve" smooth="yes"/>
      <point x="572" y="539"/>
      <point x="532" y="566"/>
      <point x="468" y="566" type="curve" smooth="yes"/>
      <point x="299" y="566" type="line"/>
    </contour>
    <contour>
      <point x="285" y="153" type="line"/>
      <point x="285" y="580" type="line"/>
      <point x="462" y="580" type="line" smooth="yes"/>
      <point x="528" y="580"/>
      <point x="586" y="560"/>
      <point x="586" y="454" type="curve" smooth="yes"/>
      <point x="586" y="339"/>
      <point x="508" y="349"/>
      <point x="475" y="346" type="curve"/>
      <point x="586" y="153" type="line"/>
      <point x="569" y="153" type="line"/>
      <point x="458" y="345" type="line"/>
      <point x="299" y="350" type="line"/>
      <point x="299" y="153" type="line"/>
    </contour>
    <contour>
      <point x="88" y="368" type="curve" smooth="yes"/>
      <point x="86" y="211"/>
      <point x="159" y="14"/>
      <point x="315" y="14" type="curve" smooth="yes"/>
      <point x="571" y="14" type="line" smooth="yes"/>
      <point x="684" y="14"/>
      <point x="776" y="137"/>
      <point x="776" y="368" type="curve" smooth="yes"/>
      <point x="776" y="559"/>
      <point x="722" y="718"/>
      <point x="571" y="718" type="curve" smooth="yes"/>
      <point x="315" y="718" type="line" smooth="yes"/>
      <point x="204" y="718"/>
      <point x="91" y="639"/>
    </contour>
    <contour>
      <point x="74" y="368" type="curve" smooth="yes"/>
      <point x="74" y="531"/>
      <point x="123" y="732"/>
      <point x="315" y="732" type="curve" smooth="yes"/>
      <point x="571" y="732" type="line" smooth="yes"/>
      <point x="767" y="732"/>
      <point x="790" y="492"/>
      <point x="790" y="368" type="curve" smooth="yes"/>
      <point x="790" y="175"/>
      <point x="722" y="0"/>
      <point x="571" y="0" type="curve" smooth="yes"/>
      <point x="315" y="0" type="line" smooth="yes"/>
      <point x="131" y="0"/>
      <point x="74" y="234"/>
    </contour>
  </outline>
</glyph>
<glyph name="macron" format="1">
  <advance width="387"/>
  <unicode hex="00AF"/>
  <outline>
    <contour>
      <point x="68" y="531" type="line"/>
      <point x="68" y="546" type="line"/>
      <point x="320" y="546" type="line"/>
      <point x="320" y="531" type="line"/>
    </contour>
  </outline>
</glyph>
<glyph name="plusminus" format="1">
  <advance width="535"/>
  <unicode hex="00B1"/>
  <outline>
    <contour>
      <point x="76" y="411" type="line"/>
      <point x="76" y="435" type="line"/>
      <point x="257" y="435" type="line"/>
      <point x="257" y="616" type="line"/>
      <point x="281" y="616" type="line"/>
      <point x="281" y="435" type="line"/>
      <point x="462" y="435" type="line"/>
      <point x="462" y="411" type="line"/>
      <point x="281" y="411" type="line"/>
      <point x="281" y="230" type="line"/>
      <point x="257" y="230" type="line"/>
      <point x="257" y="411" type="line"/>
    </contour>
    <contour>
      <point x="76" y="137" type="line"/>
      <point x="76" y="161" type="line"/>
      <point x="462" y="161" type="line"/>
      <point x="462" y="137" type="line"/>
    </contour>
  </outline>
</glyph>
<glyph name="twosuperior" format="1">
  <advance width="411"/>
  <unicode hex="00B2"/>
  <outline>
    <contour>
      <point x="42" y="820" type="line" smooth="yes"/>
      <point x="40" y="820"/>
      <point x="41" y="832"/>
      <point x="42" y="831" type="curve"/>
      <point x="108" y="839"/>
      <point x="153" y="838"/>
      <point x="225" y="838" type="curve" smooth="yes"/>
      <point x="323" y="838"/>
      <point x="355" y="780"/>
      <point x="355" y="702" type="curve" smooth="yes"/>
      <point x="355" y="580"/>
      <point x="117" y="404"/>
      <point x="79" y="374" type="curve"/>
      <point x="354" y="374" type="line"/>
      <point x="354" y="356" type="line"/>
      <point x="45" y="356" type="line"/>
      <point x="45" y="370" type="line"/>
      <point x="112" y="424"/>
      <point x="336" y="593"/>
      <point x="336" y="699" type="curve" smooth="yes"/>
      <point x="336" y="768"/>
      <point x="315" y="820"/>
      <point x="219" y="820" type="curve" smooth="yes"/>
    </contour>
  </outline>
</glyph>
<glyph name="threesuperior" format="1">
  <advance width="437"/>
  <unicode hex="00B3"/>
  <outline>
    <contour>
      <point x="40" y="815" type="line"/>
      <point x="40" y="825" type="line"/>
      <point x="86" y="834"/>
      <point x="160" y="833"/>
      <point x="236" y="833" type="curve" smooth="yes"/>
      <point x="323" y="833"/>
      <point x="357" y="783"/>
      <point x="357" y="723" type="curve" smooth="yes"/>
      <point x="357" y="688" type="line" smooth="yes"/>
      <point x="357" y="631"/>
      <point x="297" y="599"/>
      <point x="274" y="597" type="curve"/>
      <point x="295" y="593"/>
      <point x="357" y="562"/>
      <point x="357" y="499" type="curve" smooth="yes"/>
      <point x="357" y="471" type="line" smooth="yes"/>
      <point x="357" y="400"/>
      <point x="329" y="352"/>
      <point x="230" y="352" type="curve" smooth="yes"/>
      <point x="156" y="352"/>
      <point x="86" y="354"/>
      <point x="44" y="363" type="curve"/>
      <point x="44" y="370" type="line"/>
      <point x="222" y="370" type="line" smooth="yes"/>
      <point x="304" y="370"/>
      <point x="338" y="393"/>
      <point x="338" y="475" type="curve" smooth="yes"/>
      <point x="338" y="498" type="line" smooth="yes"/>
      <point x="338" y="558"/>
      <point x="278" y="587"/>
      <point x="226" y="588" type="curve" smooth="yes"/>
      <point x="84" y="592" type="line"/>
      <point x="84" y="602" type="line"/>
      <point x="226" y="606" type="line" smooth="yes"/>
      <point x="288" y="608"/>
      <point x="340" y="639"/>
      <point x="340" y="689" type="curve" smooth="yes"/>
      <point x="340" y="724" type="line" smooth="yes"/>
      <point x="340" y="799"/>
      <point x="284" y="815"/>
      <point x="234" y="815" type="curve" smooth="yes"/>
    </contour>
  </outline>
</glyph>
<glyph name="acute" format="1">
  <advance width="201"/>
  <unicode hex="00B4"/>
  <outline>
    <contour>
      <point x="27" y="531" type="line"/>
      <point x="148" y="664" type="line"/>
      <point x="174" y="664" type="line"/>
      <point x="41" y="531" type="line"/>
    </contour>
  </outline>
</glyph>
<glyph name="uni00B5" format="1">
  <advance width="620"/>
  <unicode hex="00B5"/>
  <outline>
    <contour>
      <point x="122" y="162" type="line"/>
      <point x="122" y="532" type="line"/>
      <point x="146" y="532" type="line"/>
      <point x="146" y="162" type="line" smooth="yes"/>
      <point x="146" y="83"/>
      <point x="197" y="16"/>
      <point x="286" y="16" type="curve" smooth="yes"/>
      <point x="374" y="16"/>
      <point x="428" y="37"/>
      <point x="502" y="77" type="curve"/>
      <point x="502" y="532" type="line"/>
      <point x="526" y="532" type="line"/>
      <point x="526" y="1" type="line"/>
      <point x="512" y="1" type="line"/>
      <point x="502" y="63" type="line"/>
      <point x="444" y="25"/>
      <point x="367" y="-8"/>
      <point x="286" y="-8" type="curve" smooth="yes"/>
      <point x="220" y="-8"/>
      <point x="172" y="24"/>
      <point x="146" y="69" type="curve"/>
      <point x="146" y="-270" type="line"/>
      <point x="122" y="-270" type="line"/>
    </contour>
  </outline>
</glyph>
<glyph name="paragraph" format="1">
  <advance width="572"/>
  <unicode hex="00B6"/>
  <outline>
    <contour>
      <point x="78" y="501" type="line" smooth="yes"/>
      <point x="78" y="392"/>
      <point x="182" y="379"/>
      <point x="210" y="379" type="curve" smooth="yes"/>
      <point x="264" y="379" type="line"/>
      <point x="264" y="708" type="line"/>
      <point x="210" y="708" type="line" smooth="yes"/>
      <point x="125" y="708"/>
      <point x="78" y="656"/>
      <point x="78" y="590" type="curve" smooth="yes"/>
    </contour>
    <contour>
      <point x="54" y="499" type="curve" smooth="yes"/>
      <point x="54" y="592" type="line" smooth="yes"/>
      <point x="54" y="687"/>
      <point x="133" y="732"/>
      <point x="210" y="732" type="curve" smooth="yes"/>
      <point x="545" y="732" type="line"/>
      <point x="545" y="706" type="line"/>
      <point x="476" y="706" type="line"/>
      <point x="476" y="0" type="line"/>
      <point x="452" y="0" type="line"/>
      <point x="452" y="708" type="line"/>
      <point x="288" y="708" type="line"/>
      <point x="288" y="-270" type="line"/>
      <point x="264" y="-270" type="line"/>
      <point x="264" y="365" type="line"/>
      <point x="257" y="360"/>
      <point x="239" y="354"/>
      <point x="210" y="355" type="curve"/>
      <point x="107" y="355"/>
      <point x="54" y="421"/>
    </contour>
  </outline>
</glyph>
<glyph name="periodcentered" format="1">
  <advance width="264"/>
  <unicode hex="00B7"/>
  <outline>
    <contour>
      <point x="115" y="376" type="curve" smooth="yes"/>
      <point x="115" y="388" type="line" smooth="yes"/>
      <point x="115" y="396"/>
      <point x="119" y="400"/>
      <point x="127" y="400" type="curve" smooth="yes"/>
      <point x="138" y="400" type="line" smooth="yes"/>
      <point x="146" y="400"/>
      <point x="150" y="395"/>
      <point x="150" y="388" type="curve" smooth="yes"/>
      <point x="150" y="376" type="line" smooth="yes"/>
      <point x="150" y="368"/>
      <point x="145" y="364"/>
      <point x="138" y="364" type="curve" smooth="yes"/>
      <point x="127" y="364" type="line" smooth="yes"/>
      <point x="120" y="364"/>
      <point x="115" y="369"/>
    </contour>
  </outline>
</glyph>
<glyph name="cedilla" format="1">
  <advance width="267"/>
  <unicode hex="00B8"/>
  <outline>
    <contour>
      <point x="68" y="-166" type="line"/>
      <point x="100" y="-161" type="line" smooth="yes"/>
      <point x="153" y="-153"/>
      <point x="184" y="-145"/>
      <point x="182" y="-37" type="curve"/>
      <point x="199" y="-37" type="line"/>
      <point x="199" y="-137"/>
      <point x="181" y="-173"/>
      <point x="98" y="-173" type="curve" smooth="yes"/>
      <point x="68" y="-173" type="line"/>
    </contour>
  </outline>
</glyph>
<glyph name="onesuperior" format="1">
  <advance width="255"/>
  <unicode hex="00B9"/>
  <outline>
    <contour>
      <point x="22" y="768" type="line"/>
      <point x="22" y="777" type="line"/>
      <point x="150" y="832" type="line"/>
      <point x="168" y="832" type="line"/>
      <point x="168" y="356" type="line"/>
      <point x="150" y="356" type="line"/>
      <point x="150" y="814" type="line"/>
    </contour>
  </outline>
</glyph>
<glyph name="ordmasculine" format="1">
  <advance width="381"/>
  <unicode hex="00BA"/>
  <outline>
    <contour>
      <point x="56" y="550" type="curve" smooth="yes"/>
      <point x="56" y="423"/>
      <point x="83" y="389"/>
      <point x="192" y="389" type="curve" smooth="yes"/>
      <point x="294" y="389"/>
      <point x="324" y="414"/>
      <point x="324" y="550" type="curve" smooth="yes"/>
      <point x="324" y="686"/>
      <point x="304" y="721"/>
      <point x="192" y="721" type="curve" smooth="yes"/>
      <point x="87" y="721"/>
      <point x="56" y="697"/>
    </contour>
    <contour>
      <point x="52" y="291" type="line"/>
      <point x="52" y="304" type="line"/>
      <point x="332" y="304" type="line"/>
      <point x="332" y="291" type="line"/>
    </contour>
    <contour>
      <point x="40" y="550" type="curve" smooth="yes"/>
      <point x="40" y="692"/>
      <point x="65" y="737"/>
      <point x="192" y="737" type="curve" smooth="yes"/>
      <point x="319" y="737"/>
      <point x="340" y="692"/>
      <point x="340" y="550" type="curve" smooth="yes"/>
      <point x="340" y="422"/>
      <point x="319" y="373"/>
      <point x="192" y="373" type="curve" smooth="yes"/>
      <point x="65" y="373"/>
      <point x="40" y="422"/>
    </contour>
  </outline>
</glyph>
<glyph name="guillemotright" format="1">
  <advance width="548"/>
  <unicode hex="00BB"/>
  <outline>
    <contour>
      <point x="252" y="163" type="line"/>
      <point x="446" y="354" type="line"/>
      <point x="258" y="541" type="line"/>
      <point x="276" y="558" type="line"/>
      <point x="480" y="354" type="line"/>
      <point x="270" y="145" type="line"/>
    </contour>
    <contour>
      <point x="68" y="163" type="line"/>
      <point x="262" y="354" type="line"/>
      <point x="74" y="541" type="line"/>
      <point x="90" y="558" type="line"/>
      <point x="296" y="354" type="line"/>
      <point x="86" y="145" type="line"/>
    </contour>
  </outline>
</glyph>
<glyph name="onequarter" format="1">
  <advance width="876"/>
  <unicode hex="00BC"/>
  <outline>
    <contour>
      <point x="481" y="177" type="line"/>
      <point x="671" y="475" type="line"/>
      <point x="691" y="475" type="line"/>
      <point x="507" y="186" type="line"/>
      <point x="772" y="186" type="line"/>
      <point x="772" y="307" type="line"/>
      <point x="781" y="355" type="line"/>
      <point x="790" y="355" type="line"/>
      <point x="790" y="186" type="line"/>
      <point x="849" y="186" type="line"/>
      <point x="849" y="178" type="line"/>
      <point x="790" y="167" type="line"/>
      <point x="790" y="1" type="line"/>
      <point x="772" y="1" type="line"/>
      <point x="772" y="167" type="line"/>
      <point x="485" y="167" type="line"/>
    </contour>
    <contour>
      <point x="212" y="0" type="line"/>
      <point x="598" y="770" type="line"/>
      <point x="616" y="770" type="line"/>
      <point x="230" y="0" type="line"/>
    </contour>
    <contour>
      <point x="22" y="668" type="line"/>
      <point x="22" y="677" type="line"/>
      <point x="150" y="732" type="line"/>
      <point x="168" y="732" type="line"/>
      <point x="168" y="256" type="line"/>
      <point x="150" y="256" type="line"/>
      <point x="150" y="714" type="line"/>
    </contour>
  </outline>
</glyph>
<glyph name="onehalf" format="1">
  <advance width="944"/>
  <unicode hex="00BD"/>
  <outline>
    <contour>
      <point x="577" y="465" type="line" smooth="yes"/>
      <point x="575" y="465"/>
      <point x="576" y="477"/>
      <point x="577" y="476" type="curve"/>
      <point x="643" y="484"/>
      <point x="688" y="483"/>
      <point x="760" y="483" type="curve" smooth="yes"/>
      <point x="858" y="483"/>
      <point x="890" y="425"/>
      <point x="890" y="347" type="curve" smooth="yes"/>
      <point x="890" y="225"/>
      <point x="652" y="49"/>
      <point x="614" y="19" type="curve"/>
      <point x="889" y="19" type="line"/>
      <point x="889" y="1" type="line"/>
      <point x="580" y="1" type="line"/>
      <point x="580" y="15" type="line"/>
      <point x="647" y="69"/>
      <point x="871" y="238"/>
      <point x="871" y="344" type="curve" smooth="yes"/>
      <point x="871" y="413"/>
      <point x="850" y="465"/>
      <point x="754" y="465" type="curve" smooth="yes"/>
    </contour>
    <contour>
      <point x="199" y="0" type="line"/>
      <point x="585" y="770" type="line"/>
      <point x="603" y="770" type="line"/>
      <point x="217" y="0" type="line"/>
    </contour>
    <contour>
      <point x="22" y="668" type="line"/>
      <point x="22" y="677" type="line"/>
      <point x="150" y="732" type="line"/>
      <point x="168" y="732" type="line"/>
      <point x="168" y="256" type="line"/>
      <point x="150" y="256" type="line"/>
      <point x="150" y="714" type="line"/>
    </contour>
  </outline>
</glyph>
<glyph name="threequarters" format="1">
  <advance width="1001"/>
  <unicode hex="00BE"/>
  <outline>
    <contour>
      <point x="564" y="177" type="line"/>
      <point x="754" y="475" type="line"/>
      <point x="774" y="475" type="line"/>
      <point x="590" y="186" type="line"/>
      <point x="854" y="186" type="line"/>
      <point x="854" y="307" type="line"/>
      <point x="864" y="355" type="line"/>
      <point x="872" y="355" type="line"/>
      <point x="872" y="186" type="line"/>
      <point x="932" y="186" type="line"/>
      <point x="932" y="178" type="line"/>
      <point x="872" y="167" type="line"/>
      <point x="872" y="1" type="line"/>
      <point x="854" y="1" type="line"/>
      <point x="854" y="167" type="line"/>
      <point x="568" y="167" type="line"/>
    </contour>
    <contour>
      <point x="330" y="0" type="line"/>
      <point x="716" y="770" type="line"/>
      <point x="734" y="770" type="line"/>
      <point x="348" y="0" type="line"/>
    </contour>
    <contour>
      <point x="40" y="715" type="line"/>
      <point x="40" y="725" type="line"/>
      <point x="86" y="734"/>
      <point x="160" y="733"/>
      <point x="236" y="733" type="curve" smooth="yes"/>
      <point x="323" y="733"/>
      <point x="357" y="683"/>
      <point x="357" y="623" type="curve" smooth="yes"/>
      <point x="357" y="588" type="line" smooth="yes"/>
      <point x="357" y="531"/>
      <point x="297" y="499"/>
      <point x="274" y="497" type="curve"/>
      <point x="295" y="493"/>
      <point x="357" y="462"/>
      <point x="357" y="399" type="curve" smooth="yes"/>
      <point x="357" y="371" type="line" smooth="yes"/>
      <point x="357" y="300"/>
      <point x="329" y="252"/>
      <point x="230" y="252" type="curve" smooth="yes"/>
      <point x="156" y="252"/>
      <point x="86" y="254"/>
      <point x="44" y="263" type="curve"/>
      <point x="44" y="270" type="line"/>
      <point x="222" y="270" type="line" smooth="yes"/>
      <point x="304" y="270"/>
      <point x="338" y="293"/>
      <point x="338" y="375" type="curve" smooth="yes"/>
      <point x="338" y="398" type="line" smooth="yes"/>
      <point x="338" y="458"/>
      <point x="278" y="487"/>
      <point x="226" y="488" type="curve" smooth="yes"/>
      <point x="84" y="492" type="line"/>
      <point x="84" y="502" type="line"/>
      <point x="226" y="506" type="line" smooth="yes"/>
      <point x="288" y="508"/>
      <point x="340" y="539"/>
      <point x="340" y="589" type="curve" smooth="yes"/>
      <point x="340" y="624" type="line" smooth="yes"/>
      <point x="340" y="699"/>
      <point x="284" y="715"/>
      <point x="234" y="715" type="curve" smooth="yes"/>
    </contour>
  </outline>
</glyph>
<glyph name="questiondown" format="1">
  <advance width="530"/>
  <unicode hex="00BF"/>
  <outline>
    <contour>
      <point x="316" y="396" type="curve" smooth="yes"/>
      <point x="316" y="458" type="line" smooth="yes"/>
      <point x="316" y="466"/>
      <point x="320" y="470"/>
      <point x="327" y="470" type="curve" smooth="yes"/>
      <point x="339" y="470" type="line" smooth="yes"/>
      <point x="346" y="470"/>
      <point x="351" y="465"/>
      <point x="351" y="458" type="curve" smooth="yes"/>
      <point x="351" y="396" type="line" smooth="yes"/>
      <point x="351" y="388"/>
      <point x="347" y="384"/>
      <point x="339" y="384" type="curve" smooth="yes"/>
      <point x="327" y="384" type="line" smooth="yes"/>
      <point x="319" y="384"/>
      <point x="316" y="389"/>
    </contour>
    <contour>
      <point x="53" y="18" type="line" smooth="yes"/>
      <point x="53" y="153"/>
      <point x="132" y="193"/>
      <point x="320" y="174" type="curve"/>
      <point x="320" y="276" type="line"/>
      <point x="346" y="276" type="line"/>
      <point x="346" y="154" type="line"/>
      <point x="240" y="154" type="line" smooth="yes"/>
      <point x="136" y="154"/>
      <point x="77" y="119"/>
      <point x="77" y="18" type="curve" smooth="yes"/>
      <point x="77" y="-84" type="line" smooth="yes"/>
      <point x="77" y="-204"/>
      <point x="128" y="-244"/>
      <point x="253" y="-244" type="curve" smooth="yes"/>
      <point x="504" y="-244" type="line"/>
      <point x="504" y="-258" type="line"/>
      <point x="426" y="-267"/>
      <point x="335" y="-268"/>
      <point x="252" y="-268" type="curve"/>
      <point x="95" y="-271"/>
      <point x="53" y="-202"/>
      <point x="53" y="-84" type="curve" smooth="yes"/>
    </contour>
  </outline>
</glyph>
<glyph name="Aacute" format="1">
  <advance width="659"/>
  <unicode hex="00C1"/>
  <outline>
    <contour>
      <point x="345" y="797" type="line"/>
      <point x="466" y="930" type="line"/>
      <point x="492" y="930" type="line"/>
      <point x="359" y="797" type="line"/>
    </contour>
    <contour>
      <point x="190" y="277" type="line"/>
      <point x="505" y="277" type="line"/>
      <point x="352" y="708" type="line"/>
    </contour>
    <contour>
      <point x="61" y="0" type="line"/>
      <point x="335" y="732" type="line"/>
      <point x="369" y="732" type="line"/>
      <point x="631" y="0" type="line"/>
      <point x="605" y="0" type="line"/>
      <point x="514" y="253" type="line"/>
      <point x="181" y="253" type="line"/>
      <point x="87" y="0" type="line"/>
    </contour>
  </outline>
</glyph>
<glyph name="Atilde" format="1">
  <advance width="659"/>
  <unicode hex="00C3"/>
  <outline>
    <contour>
      <point x="183" y="828" type="line"/>
      <point x="217" y="858"/>
      <point x="250" y="886"/>
      <point x="289" y="886" type="curve" smooth="yes"/>
      <point x="328" y="886"/>
      <point x="383" y="813"/>
      <point x="415" y="813" type="curve" smooth="yes"/>
      <point x="454" y="813"/>
      <point x="492" y="847"/>
      <point x="515" y="866" type="curve"/>
      <point x="521" y="859" type="line"/>
      <point x="488" y="826"/>
      <point x="457" y="797"/>
      <point x="415" y="797" type="curve" smooth="yes"/>
      <point x="373" y="797"/>
      <point x="322" y="870"/>
      <point x="289" y="870" type="curve" smooth="yes"/>
      <point x="251" y="870"/>
      <point x="223" y="846"/>
      <point x="187" y="820" type="curve"/>
    </contour>
    <contour>
      <point x="190" y="277" type="line"/>
      <point x="505" y="277" type="line"/>
      <point x="352" y="708" type="line"/>
    </contour>
    <contour>
      <point x="61" y="0" type="line"/>
      <point x="335" y="732" type="line"/>
      <point x="369" y="732" type="line"/>
      <point x="631" y="0" type="line"/>
      <point x="605" y="0" type="line"/>
      <point x="514" y="253" type="line"/>
      <point x="181" y="253" type="line"/>
      <point x="87" y="0" type="line"/>
    </contour>
  </outline>
</glyph>
<glyph name="Adieresis" format="1">
  <advance width="659"/>
  <unicode hex="00C4"/>
  <outline>
    <contour>
      <point x="461.5" y="815" type="curve" smooth="yes"/>
      <point x="461.5" y="825"/>
      <point x="469.5" y="832"/>
      <point x="479.5" y="832" type="curve" smooth="yes"/>
      <point x="489.5" y="832"/>
      <point x="496.5" y="825"/>
      <point x="496.5" y="815" type="curve" smooth="yes"/>
      <point x="496.5" y="805"/>
      <point x="489.5" y="797"/>
      <point x="479.5" y="797" type="curve" smooth="yes"/>
      <point x="469.5" y="797"/>
      <point x="461.5" y="805"/>
    </contour>
    <contour>
      <point x="207.5" y="815" type="curve" smooth="yes"/>
      <point x="207.5" y="825"/>
      <point x="214.5" y="832"/>
      <point x="224.5" y="832" type="curve" smooth="yes"/>
      <point x="234.5" y="832"/>
      <point x="241.5" y="825"/>
      <point x="241.5" y="815" type="curve" smooth="yes"/>
      <point x="241.5" y="805"/>
      <point x="234.5" y="797"/>
      <point x="224.5" y="797" type="curve" smooth="yes"/>
      <point x="214.5" y="797"/>
      <point x="207.5" y="805"/>
    </contour>
    <contour>
      <point x="190" y="277" type="line"/>
      <point x="505" y="277" type="line"/>
      <point x="352" y="708" type="line"/>
    </contour>
    <contour>
      <point x="61" y="0" type="line"/>
      <point x="335" y="732" type="line"/>
      <point x="369" y="732" type="line"/>
      <point x="631" y="0" type="line"/>
      <point x="605" y="0" type="line"/>
      <point x="514" y="253" type="line"/>
      <point x="181" y="253" type="line"/>
      <point x="87" y="0" type="line"/>
    </contour>
  </outline>
</glyph>
<glyph name="Aring" format="1">
  <advance width="659"/>
  <unicode hex="00C5"/>
  <outline>
    <contour>
      <point x="265" y="832.167" type="curve" smooth="yes"/>
      <point x="265" y="784.167"/>
      <point x="305" y="745.167"/>
      <point x="353" y="745.167" type="curve" smooth="yes"/>
      <point x="401" y="745.167"/>
      <point x="439" y="784.167"/>
      <point x="439" y="832.167" type="curve" smooth="yes"/>
      <point x="439" y="880.167"/>
      <point x="401" y="920.167"/>
      <point x="353" y="920.167" type="curve" smooth="yes"/>
      <point x="305" y="920.167"/>
      <point x="265" y="880.167"/>
    </contour>
    <contour>
      <point x="251" y="832.167" type="curve" smooth="yes"/>
      <point x="251" y="889.167"/>
      <point x="297" y="935.167"/>
      <point x="353" y="935.167" type="curve" smooth="yes"/>
      <point x="409" y="935.167"/>
      <point x="453" y="889.167"/>
      <point x="453" y="832.167" type="curve" smooth="yes"/>
      <point x="453" y="780.792"/>
      <point x="417.255" y="739.165"/>
      <point x="369.197" y="731.45" type="curve"/>
      <point x="631" y="0" type="line"/>
      <point x="605" y="0" type="line"/>
      <point x="514" y="253" type="line"/>
      <point x="181" y="253" type="line"/>
      <point x="87" y="0" type="line"/>
      <point x="61" y="0" type="line"/>
      <point x="334.91" y="731.76" type="line"/>
      <point x="287.426" y="740.224"/>
      <point x="251" y="781.444"/>
    </contour>
    <contour>
      <point x="190" y="277" type="line"/>
      <point x="505" y="277" type="line"/>
      <point x="352" y="708" type="line"/>
    </contour>
  </outline>
</glyph>
<glyph name="AE" format="1">
  <advance width="933"/>
  <unicode hex="00C6"/>
  <outline>
    <contour>
      <point x="246" y="276" type="line"/>
      <point x="488" y="276" type="line"/>
      <point x="488" y="657" type="line"/>
    </contour>
    <contour>
      <point x="40" y="0" type="line"/>
      <point x="416" y="590" type="line" smooth="yes"/>
      <point x="479" y="689"/>
      <point x="504" y="737"/>
      <point x="614" y="732" type="curve" smooth="yes"/>
      <point x="882" y="722" type="line"/>
      <point x="882" y="708" type="line"/>
      <point x="614" y="708" type="line" smooth="yes"/>
      <point x="498" y="708"/>
      <point x="512" y="667"/>
      <point x="512" y="592" type="curve" smooth="yes"/>
      <point x="512" y="375" type="line"/>
      <point x="842" y="370" type="line"/>
      <point x="842" y="356" type="line"/>
      <point x="512" y="351" type="line"/>
      <point x="512" y="123" type="line" smooth="yes"/>
      <point x="512" y="31"/>
      <point x="569" y="21"/>
      <point x="624" y="21" type="curve" smooth="yes"/>
      <point x="882" y="21" type="line"/>
      <point x="882" y="7" type="line"/>
      <point x="624" y="-3" type="line" smooth="yes"/>
      <point x="560" y="-5"/>
      <point x="488" y="8"/>
      <point x="488" y="121" type="curve" smooth="yes"/>
      <point x="488" y="252" type="line"/>
      <point x="230" y="252" type="line"/>
      <point x="70" y="0" type="line"/>
    </contour>
  </outline>
</glyph>
<glyph name="Edieresis" format="1">
  <advance width="582"/>
  <unicode hex="00CB"/>
  <outline>
    <contour>
      <point x="433" y="843" type="curve" smooth="yes"/>
      <point x="433" y="853"/>
      <point x="441" y="860"/>
      <point x="451" y="860" type="curve" smooth="yes"/>
      <point x="461" y="860"/>
      <point x="468" y="853"/>
      <point x="468" y="843" type="curve" smooth="yes"/>
      <point x="468" y="833"/>
      <point x="461" y="825"/>
      <point x="451" y="825" type="curve" smooth="yes"/>
      <point x="441" y="825"/>
      <point x="433" y="833"/>
    </contour>
    <contour>
      <point x="179" y="843" type="curve" smooth="yes"/>
      <point x="179" y="853"/>
      <point x="186" y="860"/>
      <point x="196" y="860" type="curve" smooth="yes"/>
      <point x="206" y="860"/>
      <point x="213" y="853"/>
      <point x="213" y="843" type="curve" smooth="yes"/>
      <point x="213" y="833"/>
      <point x="206" y="825"/>
      <point x="196" y="825" type="curve" smooth="yes"/>
      <point x="186" y="825"/>
      <point x="179" y="833"/>
    </contour>
    <contour>
      <point x="108" y="123" type="curve" smooth="yes"/>
      <point x="108" y="602" type="line" smooth="yes"/>
      <point x="108" y="700"/>
      <point x="170.005" y="734.154"/>
      <point x="234" y="732" type="curve" smooth="yes"/>
      <point x="531" y="722" type="line"/>
      <point x="531" y="708" type="line"/>
      <point x="234" y="708" type="line" smooth="yes"/>
      <point x="172" y="708"/>
      <point x="132" y="677"/>
      <point x="132" y="602" type="curve" smooth="yes"/>
      <point x="132" y="375" type="line"/>
      <point x="491" y="370" type="line"/>
      <point x="491" y="356" type="line"/>
      <point x="132" y="351" type="line"/>
      <point x="132" y="123" type="line" smooth="yes"/>
      <point x="132" y="31"/>
      <point x="189" y="21"/>
      <point x="244" y="21" type="curve" smooth="yes"/>
      <point x="531" y="21" type="line"/>
      <point x="531" y="7" type="line"/>
      <point x="245" y="-3" type="line" smooth="yes"/>
      <point x="178.973" y="-5.30078"/>
      <point x="108" y="10"/>
    </contour>
  </outline>
</glyph>
<glyph name="Iacute" format="1">
  <advance width="200"/>
  <unicode hex="00CD"/>
  <outline>
    <contour>
      <point x="113" y="797" type="line"/>
      <point x="234" y="930" type="line"/>
      <point x="260" y="930" type="line"/>
      <point x="127" y="797" type="line"/>
    </contour>
    <contour>
      <point x="108" y="0" type="line"/>
      <point x="108" y="732" type="line"/>
      <point x="132" y="732" type="line"/>
      <point x="132" y="0" type="line"/>
    </contour>
  </outline>
</glyph>
<glyph name="Icircumflex" format="1">
  <advance width="200"/>
  <unicode hex="00CE"/>
  <outline>
    <contour>
      <point x="-16" y="797" type="line"/>
      <point x="116" y="927" type="line"/>
      <point x="136" y="927" type="line"/>
      <point x="256" y="797" type="line"/>
      <point x="238" y="797" type="line"/>
      <point x="126" y="912" type="line"/>
      <point x="2" y="797" type="line"/>
    </contour>
    <contour>
      <point x="108" y="0" type="line"/>
      <point x="108" y="732" type="line"/>
      <point x="132" y="732" type="line"/>
      <point x="132" y="0" type="line"/>
    </contour>
  </outline>
</glyph>
<glyph name="Idieresis" format="1">
  <advance width="200"/>
  <unicode hex="00CF"/>
  <outline>
    <contour>
      <point x="229.5" y="815" type="curve" smooth="yes"/>
      <point x="229.5" y="825"/>
      <point x="237.5" y="832"/>
      <point x="247.5" y="832" type="curve" smooth="yes"/>
      <point x="257.5" y="832"/>
      <point x="264.5" y="825"/>
      <point x="264.5" y="815" type="curve" smooth="yes"/>
      <point x="264.5" y="805"/>
      <point x="257.5" y="797"/>
      <point x="247.5" y="797" type="curve" smooth="yes"/>
      <point x="237.5" y="797"/>
      <point x="229.5" y="805"/>
    </contour>
    <contour>
      <point x="-24.5" y="815" type="curve" smooth="yes"/>
      <point x="-24.5" y="825"/>
      <point x="-17.5" y="832"/>
      <point x="-7.5" y="832" type="curve" smooth="yes"/>
      <point x="2.5" y="832"/>
      <point x="9.5" y="825"/>
      <point x="9.5" y="815" type="curve" smooth="yes"/>
      <point x="9.5" y="805"/>
      <point x="2.5" y="797"/>
      <point x="-7.5" y="797" type="curve" smooth="yes"/>
      <point x="-17.5" y="797"/>
      <point x="-24.5" y="805"/>
    </contour>
    <contour>
      <point x="108" y="0" type="line"/>
      <point x="108" y="732" type="line"/>
      <point x="132" y="732" type="line"/>
      <point x="132" y="0" type="line"/>
    </contour>
  </outline>
</glyph>
<glyph name="Eth" format="1">
  <advance width="671"/>
  <unicode hex="00D0"/>
  <outline>
    <contour>
      <point x="132" y="24" type="line"/>
      <point x="351" y="24" type="line" smooth="yes"/>
      <point x="518" y="24"/>
      <point x="586" y="216"/>
      <point x="586" y="364" type="curve" smooth="yes"/>
      <point x="586" y="600"/>
      <point x="499" y="708"/>
      <point x="351" y="708" type="curve" smooth="yes"/>
      <point x="132" y="708" type="line"/>
      <point x="132" y="380" type="line"/>
      <point x="291" y="380" type="line"/>
      <point x="291" y="366" type="line"/>
      <point x="132" y="366" type="line"/>
    </contour>
    <contour>
      <point x="43" y="366" type="line"/>
      <point x="43" y="380" type="line"/>
      <point x="108" y="380" type="line"/>
      <point x="108" y="732" type="line"/>
      <point x="351" y="732" type="line" smooth="yes"/>
      <point x="577" y="732"/>
      <point x="610" y="513"/>
      <point x="610" y="363" type="curve" smooth="yes"/>
      <point x="610" y="197"/>
      <point x="536" y="0"/>
      <point x="351" y="0" type="curve" smooth="yes"/>
      <point x="108" y="0" type="line"/>
      <point x="108" y="366" type="line"/>
    </contour>
  </outline>
</glyph>
<glyph name="Ntilde" format="1">
  <advance width="665"/>
  <unicode hex="00D1"/>
  <outline>
    <contour>
      <point x="183.5" y="828" type="line"/>
      <point x="217.5" y="858"/>
      <point x="250.5" y="886"/>
      <point x="289.5" y="886" type="curve" smooth="yes"/>
      <point x="328.5" y="886"/>
      <point x="383.5" y="813"/>
      <point x="415.5" y="813" type="curve" smooth="yes"/>
      <point x="454.5" y="813"/>
      <point x="492.5" y="847"/>
      <point x="515.5" y="866" type="curve"/>
      <point x="521.5" y="859" type="line"/>
      <point x="488.5" y="826"/>
      <point x="457.5" y="797"/>
      <point x="415.5" y="797" type="curve" smooth="yes"/>
      <point x="373.5" y="797"/>
      <point x="322.5" y="870"/>
      <point x="289.5" y="870" type="curve" smooth="yes"/>
      <point x="251.5" y="870"/>
      <point x="223.5" y="846"/>
      <point x="187.5" y="820" type="curve"/>
    </contour>
    <contour>
      <point x="108" y="0" type="line"/>
      <point x="108" y="732" type="line"/>
      <point x="133" y="732" type="line"/>
      <point x="573" y="46" type="line"/>
      <point x="573" y="732" type="line"/>
      <point x="597" y="732" type="line"/>
      <point x="597" y="0" type="line"/>
      <point x="573" y="0" type="line"/>
      <point x="132" y="686" type="line"/>
      <point x="132" y="0" type="line"/>
    </contour>
  </outline>
</glyph>
<glyph name="Ograve" format="1">
  <advance width="675"/>
  <unicode hex="00D2"/>
  <outline>
    <contour>
      <point x="216" y="930" type="line"/>
      <point x="242" y="930" type="line"/>
      <point x="363" y="797" type="line"/>
      <point x="349" y="797" type="line"/>
    </contour>
    <contour>
      <point x="112" y="361" type="curve" smooth="yes"/>
      <point x="112" y="63"/>
      <point x="177" y="20"/>
      <point x="356" y="20" type="curve" smooth="yes"/>
      <point x="527" y="20"/>
      <point x="600" y="65"/>
      <point x="600" y="361" type="curve" smooth="yes"/>
      <point x="600" y="685"/>
      <point x="516" y="713"/>
      <point x="356" y="713" type="curve" smooth="yes"/>
      <point x="208" y="713"/>
      <point x="112" y="698"/>
    </contour>
    <contour>
      <point x="88" y="361" type="curve" smooth="yes"/>
      <point x="88" y="704"/>
      <point x="184" y="737"/>
      <point x="356" y="737" type="curve" smooth="yes"/>
      <point x="529" y="737"/>
      <point x="624" y="704"/>
      <point x="624" y="361" type="curve" smooth="yes"/>
      <point x="624" y="38"/>
      <point x="536" y="-4"/>
      <point x="356" y="-4" type="curve" smooth="yes"/>
      <point x="176" y="-4"/>
      <point x="88" y="28"/>
    </contour>
  </outline>
</glyph>
<glyph name="Otilde" format="1">
  <advance width="675"/>
  <unicode hex="00D5"/>
  <outline>
    <contour>
      <point x="187" y="828" type="line"/>
      <point x="221" y="858"/>
      <point x="254" y="886"/>
      <point x="293" y="886" type="curve" smooth="yes"/>
      <point x="332" y="886"/>
      <point x="387" y="813"/>
      <point x="419" y="813" type="curve" smooth="yes"/>
      <point x="458" y="813"/>
      <point x="496" y="847"/>
      <point x="519" y="866" type="curve"/>
      <point x="525" y="859" type="line"/>
      <point x="492" y="826"/>
      <point x="461" y="797"/>
      <point x="419" y="797" type="curve" smooth="yes"/>
      <point x="377" y="797"/>
      <point x="326" y="870"/>
      <point x="293" y="870" type="curve" smooth="yes"/>
      <point x="255" y="870"/>
      <point x="227" y="846"/>
      <point x="191" y="820" type="curve"/>
    </contour>
    <contour>
      <point x="112" y="361" type="curve" smooth="yes"/>
      <point x="112" y="63"/>
      <point x="177" y="20"/>
      <point x="356" y="20" type="curve" smooth="yes"/>
      <point x="527" y="20"/>
      <point x="600" y="65"/>
      <point x="600" y="361" type="curve" smooth="yes"/>
      <point x="600" y="685"/>
      <point x="516" y="713"/>
      <point x="356" y="713" type="curve" smooth="yes"/>
      <point x="208" y="713"/>
      <point x="112" y="698"/>
    </contour>
    <contour>
      <point x="88" y="361" type="curve" smooth="yes"/>
      <point x="88" y="704"/>
      <point x="184" y="737"/>
      <point x="356" y="737" type="curve" smooth="yes"/>
      <point x="529" y="737"/>
      <point x="624" y="704"/>
      <point x="624" y="361" type="curve" smooth="yes"/>
      <point x="624" y="38"/>
      <point x="536" y="-4"/>
      <point x="356" y="-4" type="curve" smooth="yes"/>
      <point x="176" y="-4"/>
      <point x="88" y="28"/>
    </contour>
  </outline>
</glyph>
<glyph name="Odieresis" format="1">
  <advance width="675"/>
  <unicode hex="00D6"/>
  <outline>
    <contour>
      <point x="465.5" y="815" type="curve" smooth="yes"/>
      <point x="465.5" y="825"/>
      <point x="473.5" y="832"/>
      <point x="483.5" y="832" type="curve" smooth="yes"/>
      <point x="493.5" y="832"/>
      <point x="500.5" y="825"/>
      <point x="500.5" y="815" type="curve" smooth="yes"/>
      <point x="500.5" y="805"/>
      <point x="493.5" y="797"/>
      <point x="483.5" y="797" type="curve" smooth="yes"/>
      <point x="473.5" y="797"/>
      <point x="465.5" y="805"/>
    </contour>
    <contour>
      <point x="211.5" y="815" type="curve" smooth="yes"/>
      <point x="211.5" y="825"/>
      <point x="218.5" y="832"/>
      <point x="228.5" y="832" type="curve" smooth="yes"/>
      <point x="238.5" y="832"/>
      <point x="245.5" y="825"/>
      <point x="245.5" y="815" type="curve" smooth="yes"/>
      <point x="245.5" y="805"/>
      <point x="238.5" y="797"/>
      <point x="228.5" y="797" type="curve" smooth="yes"/>
      <point x="218.5" y="797"/>
      <point x="211.5" y="805"/>
    </contour>
    <contour>
      <point x="112" y="361" type="curve" smooth="yes"/>
      <point x="112" y="63"/>
      <point x="177" y="20"/>
      <point x="356" y="20" type="curve" smooth="yes"/>
      <point x="527" y="20"/>
      <point x="600" y="65"/>
      <point x="600" y="361" type="curve" smooth="yes"/>
      <point x="600" y="685"/>
      <point x="516" y="713"/>
      <point x="356" y="713" type="curve" smooth="yes"/>
      <point x="208" y="713"/>
      <point x="112" y="698"/>
    </contour>
    <contour>
      <point x="88" y="361" type="curve" smooth="yes"/>
      <point x="88" y="704"/>
      <point x="184" y="737"/>
      <point x="356" y="737" type="curve" smooth="yes"/>
      <point x="529" y="737"/>
      <point x="624" y="704"/>
      <point x="624" y="361" type="curve" smooth="yes"/>
      <point x="624" y="38"/>
      <point x="536" y="-4"/>
      <point x="356" y="-4" type="curve" smooth="yes"/>
      <point x="176" y="-4"/>
      <point x="88" y="28"/>
    </contour>
  </outline>
</glyph>
<glyph name="multiply" format="1">
  <advance width="438"/>
  <unicode hex="00D7"/>
  <outline>
    <contour>
      <point x="76" y="228" type="line"/>
      <point x="204" y="356" type="line"/>
      <point x="76" y="484" type="line"/>
      <point x="93" y="501" type="line"/>
      <point x="221" y="373" type="line"/>
      <point x="349" y="501" type="line"/>
      <point x="366" y="484" type="line"/>
      <point x="238" y="356" type="line"/>
      <point x="366" y="228" type="line"/>
      <point x="349" y="211" type="line"/>
      <point x="221" y="339" type="line"/>
      <point x="93" y="211" type="line"/>
    </contour>
  </outline>
</glyph>
<glyph name="Oslash" format="1">
  <advance width="675"/>
  <unicode hex="00D8"/>
  <outline>
    <contour>
      <point x="175" y="70" type="line"/>
      <point x="214" y="30"/>
      <point x="272" y="20"/>
      <point x="356" y="20" type="curve" smooth="yes"/>
      <point x="527" y="20"/>
      <point x="600" y="65"/>
      <point x="600" y="361" type="curve" smooth="yes"/>
      <point x="600" y="511"/>
      <point x="582" y="597"/>
      <point x="547" y="647" type="curve"/>
    </contour>
    <contour>
      <point x="112" y="361" type="curve" smooth="yes"/>
      <point x="112" y="215"/>
      <point x="128" y="131"/>
      <point x="165" y="82" type="curve"/>
      <point x="537" y="660" type="line"/>
      <point x="496" y="706"/>
      <point x="435" y="713"/>
      <point x="356" y="713" type="curve" smooth="yes"/>
      <point x="208" y="713"/>
      <point x="112" y="698"/>
    </contour>
    <contour>
      <point x="88" y="361" type="curve" smooth="yes"/>
      <point x="88" y="704"/>
      <point x="184" y="737"/>
      <point x="356" y="737" type="curve" smooth="yes"/>
      <point x="440" y="737"/>
      <point x="506" y="729"/>
      <point x="551" y="682" type="curve"/>
      <point x="583" y="732" type="line"/>
      <point x="601" y="732" type="line"/>
      <point x="561" y="670" type="line"/>
      <point x="602" y="617"/>
      <point x="624" y="524"/>
      <point x="624" y="361" type="curve" smooth="yes"/>
      <point x="624" y="38"/>
      <point x="536" y="-4"/>
      <point x="356" y="-4" type="curve" smooth="yes"/>
      <point x="270" y="-4"/>
      <point x="205" y="3"/>
      <point x="161" y="47" type="curve"/>
      <point x="130" y="0" type="line"/>
      <point x="112" y="0" type="line"/>
      <point x="150" y="59" type="line"/>
      <point x="109" y="110"/>
      <point x="88" y="200"/>
    </contour>
  </outline>
</glyph>
<glyph name="Ucircumflex" format="1">
  <advance width="683"/>
  <unicode hex="00DB"/>
  <outline>
    <contour>
      <point x="225.5" y="797" type="line"/>
      <point x="357.5" y="927" type="line"/>
      <point x="377.5" y="927" type="line"/>
      <point x="497.5" y="797" type="line"/>
      <point x="479.5" y="797" type="line"/>
      <point x="367.5" y="912" type="line"/>
      <point x="243.5" y="797" type="line"/>
    </contour>
    <contour>
      <point x="108" y="320" type="curve" smooth="yes"/>
      <point x="108" y="732" type="line"/>
      <point x="132" y="732" type="line"/>
      <point x="132" y="320" type="line" smooth="yes"/>
      <point x="132" y="21"/>
      <point x="228" y="19"/>
      <point x="364" y="19" type="curve" smooth="yes"/>
      <point x="489" y="19"/>
      <point x="591" y="35"/>
      <point x="591" y="320" type="curve" smooth="yes"/>
      <point x="591" y="732" type="line"/>
      <point x="615" y="732" type="line"/>
      <point x="615" y="320" type="line" smooth="yes"/>
      <point x="615" y="-3"/>
      <point x="485" y="-5"/>
      <point x="364" y="-5" type="curve" smooth="yes"/>
      <point x="228" y="-5"/>
      <point x="108" y="-9"/>
    </contour>
  </outline>
</glyph>
<glyph name="Udieresis" format="1">
  <advance width="683"/>
  <unicode hex="00DC"/>
  <outline>
    <contour>
      <point x="471" y="815" type="curve" smooth="yes"/>
      <point x="471" y="825"/>
      <point x="479" y="832"/>
      <point x="489" y="832" type="curve" smooth="yes"/>
      <point x="499" y="832"/>
      <point x="506" y="825"/>
      <point x="506" y="815" type="curve" smooth="yes"/>
      <point x="506" y="805"/>
      <point x="499" y="797"/>
      <point x="489" y="797" type="curve" smooth="yes"/>
      <point x="479" y="797"/>
      <point x="471" y="805"/>
    </contour>
    <contour>
      <point x="217" y="815" type="curve" smooth="yes"/>
      <point x="217" y="825"/>
      <point x="224" y="832"/>
      <point x="234" y="832" type="curve" smooth="yes"/>
      <point x="244" y="832"/>
      <point x="251" y="825"/>
      <point x="251" y="815" type="curve" smooth="yes"/>
      <point x="251" y="805"/>
      <point x="244" y="797"/>
      <point x="234" y="797" type="curve" smooth="yes"/>
      <point x="224" y="797"/>
      <point x="217" y="805"/>
    </contour>
    <contour>
      <point x="108" y="320" type="curve" smooth="yes"/>
      <point x="108" y="732" type="line"/>
      <point x="132" y="732" type="line"/>
      <point x="132" y="320" type="line" smooth="yes"/>
      <point x="132" y="21"/>
      <point x="228" y="19"/>
      <point x="364" y="19" type="curve" smooth="yes"/>
      <point x="489" y="19"/>
      <point x="591" y="35"/>
      <point x="591" y="320" type="curve" smooth="yes"/>
      <point x="591" y="732" type="line"/>
      <point x="615" y="732" type="line"/>
      <point x="615" y="320" type="line" smooth="yes"/>
      <point x="615" y="-3"/>
      <point x="485" y="-5"/>
      <point x="364" y="-5" type="curve" smooth="yes"/>
      <point x="228" y="-5"/>
      <point x="108" y="-9"/>
    </contour>
  </outline>
</glyph>
<glyph name="Thorn" format="1">
  <advance width="554"/>
  <unicode hex="00DE"/>
  <outline>
    <contour>
      <point x="105" y="173" type="line"/>
      <point x="322" y="173" type="line" smooth="yes"/>
      <point x="416" y="173"/>
      <point x="474" y="220"/>
      <point x="474" y="377" type="curve" smooth="yes"/>
      <point x="474" y="540"/>
      <point x="388" y="563"/>
      <point x="322" y="564" type="curve"/>
      <point x="105" y="564" type="line"/>
    </contour>
    <contour>
      <point x="81" y="0" type="line"/>
      <point x="81" y="243"/>
      <point x="81" y="486"/>
      <point x="81" y="729" type="curve"/>
      <point x="105" y="729" type="line"/>
      <point x="105" y="588" type="line"/>
      <point x="322" y="588" type="line" smooth="yes"/>
      <point x="401" y="588"/>
      <point x="498" y="554"/>
      <point x="498" y="375" type="curve" smooth="yes"/>
      <point x="498" y="171"/>
      <point x="396" y="149"/>
      <point x="322" y="149" type="curve"/>
      <point x="282" y="150"/>
      <point x="140" y="154"/>
      <point x="105" y="159" type="curve"/>
      <point x="105" y="0" type="line"/>
    </contour>
  </outline>
</glyph>
<glyph name="germandbls" format="1">
  <advance width="566"/>
  <unicode hex="00DF"/>
  <outline>
    <contour>
      <point x="81" y="0" type="line"/>
      <point x="81" y="566" type="line" smooth="yes"/>
      <point x="81" y="682"/>
      <point x="147" y="777"/>
      <point x="289" y="777" type="curve" smooth="yes"/>
      <point x="584" y="777"/>
      <point x="513" y="547"/>
      <point x="404" y="471" type="curve"/>
      <point x="331" y="415"/>
      <point x="282" y="400"/>
      <point x="282" y="348" type="curve" smooth="yes"/>
      <point x="282" y="234"/>
      <point x="540" y="327"/>
      <point x="541" y="179" type="curve"/>
      <point x="541" y="132" type="line" smooth="yes"/>
      <point x="541" y="41"/>
      <point x="478" y="-8"/>
      <point x="383" y="-8" type="curve" smooth="yes"/>
      <point x="315" y="-8"/>
      <point x="245" y="0"/>
      <point x="210" y="7" type="curve"/>
      <point x="210" y="21" type="line"/>
      <point x="248" y="19"/>
      <point x="314" y="16"/>
      <point x="383" y="16" type="curve" smooth="yes"/>
      <point x="497" y="16"/>
      <point x="517" y="89"/>
      <point x="517" y="132" type="curve" smooth="yes"/>
      <point x="517" y="179" type="line"/>
      <point x="519" y="304"/>
      <point x="258" y="203"/>
      <point x="258" y="348" type="curve" smooth="yes"/>
      <point x="258" y="403"/>
      <point x="291" y="420"/>
      <point x="391" y="490" type="curve" smooth="yes"/>
      <point x="424" y="513"/>
      <point x="461" y="562"/>
      <point x="471" y="606" type="curve" smooth="yes"/>
      <point x="493" y="700"/>
      <point x="428" y="753"/>
      <point x="289" y="753" type="curve" smooth="yes"/>
      <point x="174" y="753"/>
      <point x="105" y="686"/>
      <point x="105" y="566" type="curve" smooth="yes"/>
      <point x="105" y="0" type="line"/>
    </contour>
  </outline>
</glyph>
<glyph name="atilde" format="1">
  <advance width="520"/>
  <unicode hex="00E3"/>
  <outline>
    <contour>
      <point x="95" y="642" type="line"/>
      <point x="129" y="672"/>
      <point x="162" y="700"/>
      <point x="201" y="700" type="curve" smooth="yes"/>
      <point x="240" y="700"/>
      <point x="295" y="627"/>
      <point x="327" y="627" type="curve" smooth="yes"/>
      <point x="366" y="627"/>
      <point x="404" y="661"/>
      <point x="427" y="680" type="curve"/>
      <point x="433" y="673" type="line"/>
      <point x="400" y="640"/>
      <point x="369" y="611"/>
      <point x="327" y="611" type="curve" smooth="yes"/>
      <point x="285" y="611"/>
      <point x="234" y="684"/>
      <point x="201" y="684" type="curve" smooth="yes"/>
      <point x="163" y="684"/>
      <point x="135" y="660"/>
      <point x="99" y="634" type="curve"/>
    </contour>
    <contour>
      <point x="78" y="131" type="line" smooth="yes"/>
      <point x="78" y="46"/>
      <point x="138" y="19"/>
      <point x="187" y="18" type="curve" smooth="yes"/>
      <point x="267" y="16"/>
      <point x="429" y="78"/>
      <point x="429" y="78" type="curve"/>
      <point x="429" y="306" type="line"/>
      <point x="187" y="296" type="line" smooth="yes"/>
      <point x="106" y="293"/>
      <point x="78" y="248"/>
      <point x="78" y="187" type="curve" smooth="yes"/>
    </contour>
    <contour>
      <point x="54" y="126" type="curve" smooth="yes"/>
      <point x="54" y="187" type="line" smooth="yes"/>
      <point x="54" y="272"/>
      <point x="105" y="320"/>
      <point x="187" y="320" type="curve" smooth="yes"/>
      <point x="187" y="320"/>
      <point x="429" y="319"/>
      <point x="429" y="320" type="curve" smooth="yes"/>
      <point x="429" y="320"/>
      <point x="430" y="386"/>
      <point x="429" y="387" type="curve"/>
      <point x="429" y="456"/>
      <point x="400" y="518"/>
      <point x="299" y="519" type="curve" smooth="yes"/>
      <point x="227" y="520"/>
      <point x="162" y="510"/>
      <point x="71" y="496" type="curve"/>
      <point x="71" y="510" type="line"/>
      <point x="128" y="524"/>
      <point x="200" y="540"/>
      <point x="300" y="541" type="curve" smooth="yes"/>
      <point x="383" y="542"/>
      <point x="453" y="497"/>
      <point x="453" y="387" type="curve" smooth="yes"/>
      <point x="453" y="0" type="line"/>
      <point x="438" y="0" type="line"/>
      <point x="429" y="64" type="line"/>
      <point x="427" y="64"/>
      <point x="285" y="-6"/>
      <point x="187" y="-6" type="curve" smooth="yes"/>
      <point x="114" y="-6"/>
      <point x="54" y="41"/>
    </contour>
  </outline>
</glyph>
<glyph name="aring" format="1">
  <advance width="520"/>
  <unicode hex="00E5"/>
  <outline>
    <contour>
      <point x="177" y="673" type="curve" smooth="yes"/>
      <point x="177" y="625"/>
      <point x="217" y="586"/>
      <point x="265" y="586" type="curve" smooth="yes"/>
      <point x="313" y="586"/>
      <point x="351" y="625"/>
      <point x="351" y="673" type="curve" smooth="yes"/>
      <point x="351" y="721"/>
      <point x="313" y="761"/>
      <point x="265" y="761" type="curve" smooth="yes"/>
      <point x="217" y="761"/>
      <point x="177" y="721"/>
    </contour>
    <contour>
      <point x="163" y="673" type="curve" smooth="yes"/>
      <point x="163" y="730"/>
      <point x="209" y="776"/>
      <point x="265" y="776" type="curve" smooth="yes"/>
      <point x="321" y="776"/>
      <point x="365" y="730"/>
      <point x="365" y="673" type="curve" smooth="yes"/>
      <point x="365" y="616"/>
      <point x="321" y="571"/>
      <point x="265" y="571" type="curve" smooth="yes"/>
      <point x="209" y="571"/>
      <point x="163" y="616"/>
    </contour>
    <contour>
      <point x="78" y="131" type="line" smooth="yes"/>
      <point x="78" y="46"/>
      <point x="138" y="19"/>
      <point x="187" y="18" type="curve" smooth="yes"/>
      <point x="267" y="16"/>
      <point x="429" y="78"/>
      <point x="429" y="78" type="curve"/>
      <point x="429" y="306" type="line"/>
      <point x="187" y="296" type="line" smooth="yes"/>
      <point x="106" y="293"/>
      <point x="78" y="248"/>
      <point x="78" y="187" type="curve" smooth="yes"/>
    </contour>
    <contour>
      <point x="54" y="126" type="curve" smooth="yes"/>
      <point x="54" y="187" type="line" smooth="yes"/>
      <point x="54" y="272"/>
      <point x="105" y="320"/>
      <point x="187" y="320" type="curve" smooth="yes"/>
      <point x="187" y="320"/>
      <point x="429" y="319"/>
      <point x="429" y="320" type="curve" smooth="yes"/>
      <point x="429" y="320"/>
      <point x="430" y="386"/>
      <point x="429" y="387" type="curve"/>
      <point x="429" y="456"/>
      <point x="400" y="518"/>
      <point x="299" y="519" type="curve" smooth="yes"/>
      <point x="227" y="520"/>
      <point x="162" y="510"/>
      <point x="71" y="496" type="curve"/>
      <point x="71" y="510" type="line"/>
      <point x="128" y="524"/>
      <point x="200" y="540"/>
      <point x="300" y="541" type="curve" smooth="yes"/>
      <point x="383" y="542"/>
      <point x="453" y="497"/>
      <point x="453" y="387" type="curve" smooth="yes"/>
      <point x="453" y="0" type="line"/>
      <point x="438" y="0" type="line"/>
      <point x="429" y="64" type="line"/>
      <point x="427" y="64"/>
      <point x="285" y="-6"/>
      <point x="187" y="-6" type="curve" smooth="yes"/>
      <point x="114" y="-6"/>
      <point x="54" y="41"/>
    </contour>
  </outline>
</glyph>
<glyph name="ae" format="1">
  <advance width="889"/>
  <unicode hex="00E6"/>
  <outline>
    <contour>
      <point x="454" y="285" type="curve"/>
      <point x="698" y="285" type="line" smooth="yes"/>
      <point x="761" y="285"/>
      <point x="811" y="289"/>
      <point x="811" y="359" type="curve" smooth="yes"/>
      <point x="811" y="509"/>
      <point x="757" y="510"/>
      <point x="633" y="510" type="curve" smooth="yes"/>
      <point x="485" y="510"/>
      <point x="456" y="472"/>
    </contour>
    <contour>
      <point x="78" y="131" type="line" smooth="yes"/>
      <point x="78" y="46"/>
      <point x="138" y="19"/>
      <point x="187" y="18" type="curve" smooth="yes"/>
      <point x="267" y="16"/>
      <point x="429" y="85"/>
      <point x="429" y="85" type="curve"/>
      <point x="429" y="270" type="line"/>
      <point x="187" y="264" type="line" smooth="yes"/>
      <point x="106" y="262"/>
      <point x="78" y="216"/>
      <point x="78" y="155" type="curve" smooth="yes"/>
    </contour>
    <contour>
      <point x="54" y="126" type="curve" smooth="yes"/>
      <point x="54" y="155" type="line" smooth="yes"/>
      <point x="54" y="240"/>
      <point x="105" y="288"/>
      <point x="187" y="288" type="curve" smooth="yes"/>
      <point x="187" y="288"/>
      <point x="429" y="287"/>
      <point x="429" y="288" type="curve" smooth="yes"/>
      <point x="429" y="288"/>
      <point x="430" y="386"/>
      <point x="429" y="387" type="curve"/>
      <point x="429" y="456"/>
      <point x="400" y="518"/>
      <point x="299" y="519" type="curve" smooth="yes"/>
      <point x="227" y="520"/>
      <point x="162" y="510"/>
      <point x="71" y="496" type="curve"/>
      <point x="71" y="510" type="line"/>
      <point x="128" y="524"/>
      <point x="200" y="540"/>
      <point x="300" y="541" type="curve" smooth="yes"/>
      <point x="370" y="542"/>
      <point x="430" y="510"/>
      <point x="448" y="435" type="curve"/>
      <point x="468" y="515"/>
      <point x="531" y="534"/>
      <point x="632" y="534" type="curve" smooth="yes"/>
      <point x="753" y="534"/>
      <point x="835" y="535"/>
      <point x="835" y="359" type="curve" smooth="yes"/>
      <point x="835" y="280"/>
      <point x="784" y="262"/>
      <point x="698" y="262" type="curve" smooth="yes"/>
      <point x="454" y="262" type="line"/>
      <point x="452" y="72"/>
      <point x="448" y="20"/>
      <point x="605" y="18" type="curve" smooth="yes"/>
      <point x="697" y="17"/>
      <point x="750" y="27"/>
      <point x="825" y="38" type="curve"/>
      <point x="825" y="22" type="line"/>
      <point x="744" y="-1"/>
      <point x="688" y="-6"/>
      <point x="605" y="-6" type="curve" smooth="yes"/>
      <point x="475" y="-6"/>
      <point x="454" y="43"/>
      <point x="444" y="63" type="curve"/>
      <point x="442" y="63"/>
      <point x="285" y="-6"/>
      <point x="187" y="-6" type="curve" smooth="yes"/>
      <point x="114" y="-6"/>
      <point x="54" y="41"/>
    </contour>
  </outline>
</glyph>
<glyph name="ccedilla" format="1">
  <advance width="501"/>
  <unicode hex="00E7"/>
  <outline>
    <contour>
      <point x="159" y="-164" type="line"/>
      <point x="192" y="-159" type="line" smooth="yes"/>
      <point x="245" y="-151"/>
      <point x="276" y="-143"/>
      <point x="274" y="-35" type="curve"/>
      <point x="291" y="-35" type="line"/>
      <point x="291" y="-135"/>
      <point x="273" y="-171"/>
      <point x="190" y="-171" type="curve" smooth="yes"/>
      <point x="159" y="-171" type="line"/>
    </contour>
    <contour>
      <point x="68" y="266" type="curve" smooth="yes"/>
      <point x="68" y="498"/>
      <point x="140" y="536"/>
      <point x="242" y="536" type="curve" smooth="yes"/>
      <point x="294" y="536"/>
      <point x="378" y="524"/>
      <point x="440" y="510" type="curve"/>
      <point x="440" y="496" type="line"/>
      <point x="440" y="496"/>
      <point x="331" y="512"/>
      <point x="242" y="512" type="curve" smooth="yes"/>
      <point x="151" y="512"/>
      <point x="92" y="478"/>
      <point x="92" y="262" type="curve" smooth="yes"/>
      <point x="92" y="56"/>
      <point x="156" y="19"/>
      <point x="242" y="19" type="curve" smooth="yes"/>
      <point x="334" y="19"/>
      <point x="448" y="40"/>
      <point x="448" y="40" type="curve"/>
      <point x="448" y="24" type="line"/>
      <point x="367" y="1"/>
      <point x="325" y="-4"/>
      <point x="242" y="-5" type="curve"/>
      <point x="143" y="-5"/>
      <point x="68" y="33"/>
    </contour>
  </outline>
</glyph>
<glyph name="eacute" format="1">
  <advance width="526"/>
  <unicode hex="00E9"/>
  <outline>
    <contour>
      <point x="272" y="591" type="line"/>
      <point x="393" y="724" type="line"/>
      <point x="419" y="724" type="line"/>
      <point x="286" y="591" type="line"/>
    </contour>
    <contour>
      <point x="92" y="273" type="curve"/>
      <point x="336" y="273" type="line" smooth="yes"/>
      <point x="392" y="273"/>
      <point x="448" y="277"/>
      <point x="448" y="347" type="curve" smooth="yes"/>
      <point x="448" y="497"/>
      <point x="388" y="511"/>
      <point x="270" y="511" type="curve" smooth="yes"/>
      <point x="131" y="511"/>
      <point x="92" y="481"/>
    </contour>
    <contour>
      <point x="68" y="268" type="curve" smooth="yes"/>
      <point x="68" y="502"/>
      <point x="122" y="535"/>
      <point x="270" y="535" type="curve" smooth="yes"/>
      <point x="391" y="535"/>
      <point x="472" y="523"/>
      <point x="472" y="347" type="curve" smooth="yes"/>
      <point x="472" y="268"/>
      <point x="422" y="250"/>
      <point x="336" y="250" type="curve" smooth="yes"/>
      <point x="92" y="250" type="line"/>
      <point x="92" y="48"/>
      <point x="155" y="19"/>
      <point x="242" y="19" type="curve" smooth="yes"/>
      <point x="334" y="19"/>
      <point x="387" y="28"/>
      <point x="462" y="39" type="curve"/>
      <point x="462" y="23" type="line"/>
      <point x="381" y="0"/>
      <point x="325" y="-6"/>
      <point x="242" y="-5" type="curve" smooth="yes"/>
      <point x="106" y="-3"/>
      <point x="68" y="72"/>
    </contour>
  </outline>
</glyph>
<glyph name="edieresis" format="1">
  <advance width="526"/>
  <unicode hex="00EB"/>
  <outline>
    <contour>
      <point x="387" y="642" type="curve" smooth="yes"/>
      <point x="387" y="652"/>
      <point x="395" y="659"/>
      <point x="405" y="659" type="curve" smooth="yes"/>
      <point x="415" y="659"/>
      <point x="422" y="652"/>
      <point x="422" y="642" type="curve" smooth="yes"/>
      <point x="422" y="632"/>
      <point x="415" y="624"/>
      <point x="405" y="624" type="curve" smooth="yes"/>
      <point x="395" y="624"/>
      <point x="387" y="632"/>
    </contour>
    <contour>
      <point x="133" y="642" type="curve" smooth="yes"/>
      <point x="133" y="652"/>
      <point x="140" y="659"/>
      <point x="150" y="659" type="curve" smooth="yes"/>
      <point x="160" y="659"/>
      <point x="167" y="652"/>
      <point x="167" y="642" type="curve" smooth="yes"/>
      <point x="167" y="632"/>
      <point x="160" y="624"/>
      <point x="150" y="624" type="curve" smooth="yes"/>
      <point x="140" y="624"/>
      <point x="133" y="632"/>
    </contour>
    <contour>
      <point x="92" y="273" type="curve"/>
      <point x="336" y="273" type="line" smooth="yes"/>
      <point x="392" y="273"/>
      <point x="448" y="277"/>
      <point x="448" y="347" type="curve" smooth="yes"/>
      <point x="448" y="497"/>
      <point x="388" y="511"/>
      <point x="270" y="511" type="curve" smooth="yes"/>
      <point x="131" y="511"/>
      <point x="92" y="481"/>
    </contour>
    <contour>
      <point x="68" y="268" type="curve" smooth="yes"/>
      <point x="68" y="502"/>
      <point x="122" y="535"/>
      <point x="270" y="535" type="curve" smooth="yes"/>
      <point x="391" y="535"/>
      <point x="472" y="523"/>
      <point x="472" y="347" type="curve" smooth="yes"/>
      <point x="472" y="268"/>
      <point x="422" y="250"/>
      <point x="336" y="250" type="curve" smooth="yes"/>
      <point x="92" y="250" type="line"/>
      <point x="92" y="48"/>
      <point x="155" y="19"/>
      <point x="242" y="19" type="curve" smooth="yes"/>
      <point x="334" y="19"/>
      <point x="387" y="28"/>
      <point x="462" y="39" type="curve"/>
      <point x="462" y="23" type="line"/>
      <point x="381" y="0"/>
      <point x="325" y="-6"/>
      <point x="242" y="-5" type="curve" smooth="yes"/>
      <point x="106" y="-3"/>
      <point x="68" y="72"/>
    </contour>
  </outline>
</glyph>
<glyph name="igrave" format="1">
  <advance width="186"/>
  <unicode hex="00EC"/>
  <outline>
    <contour>
      <point x="-47" y="729" type="line"/>
      <point x="-21" y="729" type="line"/>
      <point x="100" y="596" type="line"/>
      <point x="86" y="596" type="line"/>
    </contour>
    <contour>
      <point x="81" y="0" type="line"/>
      <point x="81" y="531" type="line"/>
      <point x="105" y="531" type="line"/>
      <point x="105" y="0" type="line"/>
    </contour>
  </outline>
</glyph>
<glyph name="iacute" format="1">
  <advance width="186"/>
  <unicode hex="00ED"/>
  <outline>
    <contour>
      <point x="86" y="596" type="line"/>
      <point x="207" y="729" type="line"/>
      <point x="233" y="729" type="line"/>
      <point x="100" y="596" type="line"/>
    </contour>
    <contour>
      <point x="81" y="0" type="line"/>
      <point x="81" y="531" type="line"/>
      <point x="105" y="531" type="line"/>
      <point x="105" y="0" type="line"/>
    </contour>
  </outline>
</glyph>
<glyph name="icircumflex" format="1">
  <advance width="186"/>
  <unicode hex="00EE"/>
  <outline>
    <contour>
      <point x="-43" y="596" type="line"/>
      <point x="89" y="726" type="line"/>
      <point x="109" y="726" type="line"/>
      <point x="229" y="596" type="line"/>
      <point x="211" y="596" type="line"/>
      <point x="99" y="711" type="line"/>
      <point x="-25" y="596" type="line"/>
    </contour>
    <contour>
      <point x="81" y="0" type="line"/>
      <point x="81" y="531" type="line"/>
      <point x="105" y="531" type="line"/>
      <point x="105" y="0" type="line"/>
    </contour>
  </outline>
</glyph>
<glyph name="idieresis" format="1">
  <advance width="186"/>
  <unicode hex="00EF"/>
  <outline>
    <contour>
      <point x="202.5" y="614" type="curve" smooth="yes"/>
      <point x="202.5" y="624"/>
      <point x="210.5" y="631"/>
      <point x="220.5" y="631" type="curve" smooth="yes"/>
      <point x="230.5" y="631"/>
      <point x="237.5" y="624"/>
      <point x="237.5" y="614" type="curve" smooth="yes"/>
      <point x="237.5" y="604"/>
      <point x="230.5" y="596"/>
      <point x="220.5" y="596" type="curve" smooth="yes"/>
      <point x="210.5" y="596"/>
      <point x="202.5" y="604"/>
    </contour>
    <contour>
      <point x="-51.5" y="614" type="curve" smooth="yes"/>
      <point x="-51.5" y="624"/>
      <point x="-44.5" y="631"/>
      <point x="-34.5" y="631" type="curve" smooth="yes"/>
      <point x="-24.5" y="631"/>
      <point x="-17.5" y="624"/>
      <point x="-17.5" y="614" type="curve" smooth="yes"/>
      <point x="-17.5" y="604"/>
      <point x="-24.5" y="596"/>
      <point x="-34.5" y="596" type="curve" smooth="yes"/>
      <point x="-44.5" y="596"/>
      <point x="-51.5" y="604"/>
    </contour>
    <contour>
      <point x="81" y="0" type="line"/>
      <point x="81" y="531" type="line"/>
      <point x="105" y="531" type="line"/>
      <point x="105" y="0" type="line"/>
    </contour>
  </outline>
</glyph>
<glyph name="eth" format="1">
  <advance width="540"/>
  <unicode hex="00F0"/>
  <outline>
    <contour>
      <point x="78" y="264" type="curve" smooth="yes"/>
      <point x="78" y="63"/>
      <point x="135" y="26"/>
      <point x="232" y="26" type="curve" smooth="yes"/>
      <point x="302" y="26" type="line" smooth="yes"/>
      <point x="428" y="26"/>
      <point x="458" y="133"/>
      <point x="458" y="264" type="curve" smooth="yes"/>
      <point x="458" y="374"/>
      <point x="445" y="507"/>
      <point x="302" y="507" type="curve" smooth="yes"/>
      <point x="232" y="507" type="line" smooth="yes"/>
      <point x="143" y="507"/>
      <point x="78" y="466"/>
    </contour>
    <contour>
      <point x="54" y="264" type="curve" smooth="yes"/>
      <point x="54" y="434"/>
      <point x="97" y="531"/>
      <point x="232" y="531" type="curve" smooth="yes"/>
      <point x="302" y="531" type="line" smooth="yes"/>
      <point x="389" y="531"/>
      <point x="433" y="484"/>
      <point x="442" y="465" type="curve"/>
      <point x="431" y="523"/>
      <point x="407" y="617"/>
      <point x="340" y="684" type="curve"/>
      <point x="179" y="620" type="line"/>
      <point x="174" y="634" type="line"/>
      <point x="328" y="695" type="line"/>
      <point x="282" y="734"/>
      <point x="225" y="761"/>
      <point x="138" y="762" type="curve"/>
      <point x="138" y="783" type="line"/>
      <point x="234" y="783"/>
      <point x="300" y="751"/>
      <point x="352" y="704" type="curve"/>
      <point x="480" y="755" type="line"/>
      <point x="486" y="741" type="line"/>
      <point x="364" y="693" type="line"/>
      <point x="461" y="590"/>
      <point x="482" y="415"/>
      <point x="482" y="264" type="curve" smooth="yes"/>
      <point x="482" y="65"/>
      <point x="409" y="0"/>
      <point x="302" y="0" type="curve" smooth="yes"/>
      <point x="232" y="0" type="line" smooth="yes"/>
      <point x="95" y="0"/>
      <point x="54" y="85"/>
    </contour>
  </outline>
</glyph>
<glyph name="ntilde" format="1">
  <advance width="552"/>
  <unicode hex="00F1"/>
  <outline>
    <contour>
      <point x="114" y="631" type="line"/>
      <point x="148" y="661"/>
      <point x="181" y="689"/>
      <point x="220" y="689" type="curve" smooth="yes"/>
      <point x="259" y="689"/>
      <point x="314" y="616"/>
      <point x="346" y="616" type="curve" smooth="yes"/>
      <point x="385" y="616"/>
      <point x="423" y="650"/>
      <point x="446" y="669" type="curve"/>
      <point x="452" y="662" type="line"/>
      <point x="419" y="629"/>
      <point x="388" y="600"/>
      <point x="346" y="600" type="curve" smooth="yes"/>
      <point x="304" y="600"/>
      <point x="253" y="673"/>
      <point x="220" y="673" type="curve" smooth="yes"/>
      <point x="182" y="673"/>
      <point x="154" y="649"/>
      <point x="118" y="623" type="curve"/>
    </contour>
    <contour>
      <point x="81" y="0" type="line"/>
      <point x="81" y="531" type="line"/>
      <point x="95" y="531" type="line"/>
      <point x="105" y="469" type="line"/>
      <point x="163" y="507"/>
      <point x="240" y="540"/>
      <point x="321" y="540" type="curve" smooth="yes"/>
      <point x="427" y="540"/>
      <point x="485" y="458"/>
      <point x="485" y="370" type="curve" smooth="yes"/>
      <point x="485" y="0" type="line"/>
      <point x="461" y="0" type="line"/>
      <point x="461" y="370" type="line" smooth="yes"/>
      <point x="461" y="449"/>
      <point x="410" y="516"/>
      <point x="321" y="516" type="curve" smooth="yes"/>
      <point x="233" y="516"/>
      <point x="179" y="495"/>
      <point x="105" y="455" type="curve"/>
      <point x="105" y="0" type="line"/>
    </contour>
  </outline>
</glyph>
<glyph name="ocircumflex" format="1">
  <advance width="573"/>
  <unicode hex="00F4"/>
  <outline>
    <contour>
      <point x="150" y="596" type="line"/>
      <point x="282" y="726" type="line"/>
      <point x="302" y="726" type="line"/>
      <point x="422" y="596" type="line"/>
      <point x="404" y="596" type="line"/>
      <point x="292" y="711" type="line"/>
      <point x="168" y="596" type="line"/>
    </contour>
    <contour>
      <point x="92" y="258" type="curve" smooth="yes"/>
      <point x="92" y="47"/>
      <point x="159" y="19"/>
      <point x="286" y="19" type="curve" smooth="yes"/>
      <point x="414" y="19"/>
      <point x="482" y="56"/>
      <point x="482" y="258" type="curve" smooth="yes"/>
      <point x="482" y="475"/>
      <point x="407" y="512"/>
      <point x="286" y="512" type="curve" smooth="yes"/>
      <point x="166" y="512"/>
      <point x="92" y="490"/>
    </contour>
    <contour>
      <point x="68" y="258" type="curve" smooth="yes"/>
      <point x="68" y="475"/>
      <point x="127" y="536"/>
      <point x="286" y="536" type="curve" smooth="yes"/>
      <point x="459" y="536"/>
      <point x="506" y="445"/>
      <point x="506" y="258" type="curve" smooth="yes"/>
      <point x="506" y="64"/>
      <point x="454" y="-5"/>
      <point x="286" y="-5" type="curve" smooth="yes"/>
      <point x="110" y="-5"/>
      <point x="68" y="68"/>
    </contour>
  </outline>
</glyph>
<glyph name="odieresis" format="1">
  <advance width="573"/>
  <unicode hex="00F6"/>
  <outline>
    <contour>
      <point x="395.5" y="614" type="curve" smooth="yes"/>
      <point x="395.5" y="624"/>
      <point x="403.5" y="631"/>
      <point x="413.5" y="631" type="curve" smooth="yes"/>
      <point x="423.5" y="631"/>
      <point x="430.5" y="624"/>
      <point x="430.5" y="614" type="curve" smooth="yes"/>
      <point x="430.5" y="604"/>
      <point x="423.5" y="596"/>
      <point x="413.5" y="596" type="curve" smooth="yes"/>
      <point x="403.5" y="596"/>
      <point x="395.5" y="604"/>
    </contour>
    <contour>
      <point x="141.5" y="614" type="curve" smooth="yes"/>
      <point x="141.5" y="624"/>
      <point x="148.5" y="631"/>
      <point x="158.5" y="631" type="curve" smooth="yes"/>
      <point x="168.5" y="631"/>
      <point x="175.5" y="624"/>
      <point x="175.5" y="614" type="curve" smooth="yes"/>
      <point x="175.5" y="604"/>
      <point x="168.5" y="596"/>
      <point x="158.5" y="596" type="curve" smooth="yes"/>
      <point x="148.5" y="596"/>
      <point x="141.5" y="604"/>
    </contour>
    <contour>
      <point x="92" y="258" type="curve" smooth="yes"/>
      <point x="92" y="47"/>
      <point x="159" y="19"/>
      <point x="286" y="19" type="curve" smooth="yes"/>
      <point x="414" y="19"/>
      <point x="482" y="56"/>
      <point x="482" y="258" type="curve" smooth="yes"/>
      <point x="482" y="475"/>
      <point x="407" y="512"/>
      <point x="286" y="512" type="curve" smooth="yes"/>
      <point x="166" y="512"/>
      <point x="92" y="490"/>
    </contour>
    <contour>
      <point x="68" y="258" type="curve" smooth="yes"/>
      <point x="68" y="475"/>
      <point x="127" y="536"/>
      <point x="286" y="536" type="curve" smooth="yes"/>
      <point x="459" y="536"/>
      <point x="506" y="445"/>
      <point x="506" y="258" type="curve" smooth="yes"/>
      <point x="506" y="64"/>
      <point x="454" y="-5"/>
      <point x="286" y="-5" type="curve" smooth="yes"/>
      <point x="110" y="-5"/>
      <point x="68" y="68"/>
    </contour>
  </outline>
</glyph>
<glyph name="divide" format="1">
  <advance width="551"/>
  <unicode hex="00F7"/>
  <outline>
    <contour>
      <point x="262" y="494" type="curve" smooth="yes"/>
      <point x="262" y="537" type="line" smooth="yes"/>
      <point x="262" y="545"/>
      <point x="266" y="549"/>
      <point x="274" y="549" type="curve" smooth="yes"/>
      <point x="285" y="549" type="line" smooth="yes"/>
      <point x="293" y="549"/>
      <point x="297" y="544"/>
      <point x="297" y="537" type="curve" smooth="yes"/>
      <point x="297" y="494" type="line" smooth="yes"/>
      <point x="297" y="486"/>
      <point x="292" y="483"/>
      <point x="285" y="483" type="curve" smooth="yes"/>
      <point x="274" y="483" type="line" smooth="yes"/>
      <point x="267" y="483"/>
      <point x="262" y="487"/>
    </contour>
    <contour>
      <point x="262" y="159" type="curve" smooth="yes"/>
      <point x="262" y="201" type="line" smooth="yes"/>
      <point x="262" y="209"/>
      <point x="266" y="213"/>
      <point x="274" y="213" type="curve" smooth="yes"/>
      <point x="285" y="213" type="line" smooth="yes"/>
      <point x="293" y="213"/>
      <point x="297" y="208"/>
      <point x="297" y="201" type="curve" smooth="yes"/>
      <point x="297" y="159" type="line" smooth="yes"/>
      <point x="297" y="151"/>
      <point x="292" y="147"/>
      <point x="285" y="147" type="curve" smooth="yes"/>
      <point x="274" y="147" type="line" smooth="yes"/>
      <point x="267" y="147"/>
      <point x="262" y="152"/>
    </contour>
    <contour>
      <point x="68" y="341" type="line"/>
      <point x="68" y="365" type="line"/>
      <point x="484" y="365" type="line"/>
      <point x="484" y="341" type="line"/>
    </contour>
  </outline>
</glyph>
<glyph name="oslash" format="1">
  <advance width="573"/>
  <unicode hex="00F8"/>
  <outline>
    <contour>
      <point x="140" y="60" type="line"/>
      <point x="173" y="26"/>
      <point x="222" y="19"/>
      <point x="286" y="19" type="curve" smooth="yes"/>
      <point x="414" y="19"/>
      <point x="482" y="52"/>
      <point x="482" y="258" type="curve" smooth="yes"/>
      <point x="482" y="360"/>
      <point x="465" y="423"/>
      <point x="436" y="460" type="curve"/>
    </contour>
    <contour>
      <point x="92" y="258" type="curve" smooth="yes"/>
      <point x="92" y="164"/>
      <point x="105" y="107"/>
      <point x="131" y="72" type="curve"/>
      <point x="427" y="471" type="line"/>
      <point x="393" y="505"/>
      <point x="345" y="512"/>
      <point x="286" y="512" type="curve" smooth="yes"/>
      <point x="166" y="512"/>
      <point x="92" y="489"/>
    </contour>
    <contour>
      <point x="68" y="258" type="curve" smooth="yes"/>
      <point x="68" y="475"/>
      <point x="127" y="536"/>
      <point x="286" y="536" type="curve" smooth="yes"/>
      <point x="357" y="536"/>
      <point x="407" y="521"/>
      <point x="441" y="490" type="curve"/>
      <point x="472" y="531" type="line"/>
      <point x="490" y="531" type="line"/>
      <point x="451" y="479" type="line"/>
      <point x="492" y="433"/>
      <point x="506" y="360"/>
      <point x="506" y="258" type="curve" smooth="yes"/>
      <point x="506" y="64"/>
      <point x="454" y="-5"/>
      <point x="286" y="-5" type="curve" smooth="yes"/>
      <point x="210" y="-5"/>
      <point x="159" y="9"/>
      <point x="125" y="40" type="curve"/>
      <point x="96" y="0" type="line"/>
      <point x="78" y="0" type="line"/>
      <point x="115" y="50" type="line"/>
      <point x="79" y="92"/>
      <point x="68" y="159"/>
    </contour>
  </outline>
</glyph>
<glyph name="udieresis" format="1">
  <advance width="552"/>
  <unicode hex="00FC"/>
  <outline>
    <contour>
      <point x="379.5" y="614" type="curve" smooth="yes"/>
      <point x="379.5" y="624"/>
      <point x="387.5" y="631"/>
      <point x="397.5" y="631" type="curve" smooth="yes"/>
      <point x="407.5" y="631"/>
      <point x="414.5" y="624"/>
      <point x="414.5" y="614" type="curve" smooth="yes"/>
      <point x="414.5" y="604"/>
      <point x="407.5" y="596"/>
      <point x="397.5" y="596" type="curve" smooth="yes"/>
      <point x="387.5" y="596"/>
      <point x="379.5" y="604"/>
    </contour>
    <contour>
      <point x="125.5" y="614" type="curve" smooth="yes"/>
      <point x="125.5" y="624"/>
      <point x="132.5" y="631"/>
      <point x="142.5" y="631" type="curve" smooth="yes"/>
      <point x="152.5" y="631"/>
      <point x="159.5" y="624"/>
      <point x="159.5" y="614" type="curve" smooth="yes"/>
      <point x="159.5" y="604"/>
      <point x="152.5" y="596"/>
      <point x="142.5" y="596" type="curve" smooth="yes"/>
      <point x="132.5" y="596"/>
      <point x="125.5" y="604"/>
    </contour>
    <contour>
      <point x="68" y="162" type="curve" smooth="yes"/>
      <point x="68" y="532" type="line"/>
      <point x="92" y="532" type="line"/>
      <point x="92" y="162" type="line" smooth="yes"/>
      <point x="92" y="83"/>
      <point x="143" y="16"/>
      <point x="232" y="16" type="curve" smooth="yes"/>
      <point x="320" y="16"/>
      <point x="374" y="37"/>
      <point x="448" y="77" type="curve"/>
      <point x="448" y="532" type="line"/>
      <point x="472" y="532" type="line"/>
      <point x="472" y="1" type="line"/>
      <point x="458" y="1" type="line"/>
      <point x="448" y="63" type="line"/>
      <point x="390" y="25"/>
      <point x="313" y="-8"/>
      <point x="232" y="-8" type="curve" smooth="yes"/>
      <point x="126" y="-8"/>
      <point x="68" y="74"/>
    </contour>
  </outline>
</glyph>
<glyph name="yacute" format="1">
  <advance width="529"/>
  <unicode hex="00FD"/>
  <outline>
    <contour>
      <point x="256.5" y="596" type="line"/>
      <point x="377.5" y="729" type="line"/>
      <point x="403.5" y="729" type="line"/>
      <point x="270.5" y="596" type="line"/>
    </contour>
    <contour>
      <point x="28" y="531" type="line"/>
      <point x="54" y="531" type="line"/>
      <point x="202" y="116" type="line" smooth="yes"/>
      <point x="239" y="13"/>
      <point x="303" y="25"/>
      <point x="303" y="25" type="curve"/>
      <point x="474" y="531" type="line"/>
      <point x="499" y="531" type="line"/>
      <point x="266" y="-168" type="line"/>
      <point x="220" y="-270" type="line"/>
      <point x="208" y="-270" type="line"/>
      <point x="295" y="0" type="line"/>
      <point x="274" y="1"/>
      <point x="209" y="9"/>
      <point x="178" y="110" type="curve"/>
    </contour>
  </outline>
</glyph>
